<svg xmlns="http://www.w3.org/2000/svg" viewBox="0 0 20 20">
<path
        fill-rule="evenodd"
        d="M3.29 5.791A2.417 2.417 0 0 1 5 5.083h10A2.417 2.417 0 0 1 17.416 7.5v1.667a.75.75 0 1 1-1.5 0V7.5A.917.917 0 0 0 15 6.583H5a.917.917 0 0 0-.917.917v4.167a.917.917 0 0 0 .917.916h4.166a.75.75 0 0 1 0 1.5H5a2.417 2.417 0 0 1-2.417-2.416V7.5c0-.641.255-1.256.708-1.709Zm9.412 6.91a3.25 3.25 0 0 1 5.064 4.005l1.098 1.097a.75.75 0 0 1-1.061 1.06l-1.098-1.097a3.25 3.25 0 0 1-4.003-5.064ZM15 13.25a1.75 1.75 0 1 0 0 3.5 1.75 1.75 0 0 0 0-3.5Z"
        clip-rule="evenodd"
      />
</svg>