<svg xmlns="http://www.w3.org/2000/svg" viewBox="0 0 20 20">
<path
        fill-rule="evenodd"
        d="M6.005 2.78a8.25 8.25 0 0 1 4.913-.98.75.75 0 1 1-.167 1.491 6.75 6.75 0 1 0 5.955 5.959.75.75 0 1 1 1.491-.167A8.25 8.25 0 1 1 6.005 2.78Zm9.283-.973a.75.75 0 0 1 .463.693v1.75h1.75a.75.75 0 0 1 .53 1.28l-2.5 2.5a.75.75 0 0 1-.53.22h-2.19l-1.294 1.294a1.58 1.58 0 0 1-.397 1.576 1.584 1.584 0 1 1-.664-2.636l1.295-1.295V5a.75.75 0 0 1 .22-.53l2.5-2.5a.75.75 0 0 1 .816-.163Zm-8.02 4.105a4.917 4.917 0 0 1 2.733-.829.75.75 0 0 1 0 1.5A3.417 3.417 0 1 0 13.417 10a.75.75 0 1 1 1.5 0A4.916 4.916 0 1 1 7.27 5.912Z"
        clip-rule="evenodd"
      />
</svg>