<svg xmlns="http://www.w3.org/2000/svg" viewBox="0 0 20 20">
<path
        fill-rule="evenodd"
        d="M3.833 7.417A1.333 1.333 0 0 0 2.5 8.75v.5h2.667v-.5a1.333 1.333 0 0 0-1.334-1.333ZM6.667 8.75A2.833 2.833 0 1 0 1 8.75v4.583a.75.75 0 0 0 1.5 0V10.75h2.667v2.583a.75.75 0 0 0 1.5 0V8.75ZM13 6.667a.75.75 0 0 1 .75-.75h2.5A2.417 2.417 0 0 1 18 10a2.417 2.417 0 0 1-1.75 4.083h-2.5a.75.75 0 0 1-.75-.75V6.667Zm1.5 4.083v1.833h1.75a.916.916 0 1 0 0-1.833H14.5Zm1.75-1.5a.917.917 0 0 0 0-1.833H14.5V9.25h1.75ZM8.636 7.803a.75.75 0 0 1 1.061 0l1.667 1.667a.75.75 0 0 1 0 1.06l-1.667 1.667a.75.75 0 1 1-1.06-1.06L9.772 10 8.636 8.864a.75.75 0 0 1 0-1.061Z"
        clip-rule="evenodd"
      />
</svg>