<svg xmlns="http://www.w3.org/2000/svg" viewBox="0 0 20 20">
<path
        fill-rule="evenodd"
        d="m6.135 6.585 1.693 1.832h2.677L12.2 6.585a5.886 5.886 0 0 0-3.032-.835 5.886 5.886 0 0 0-3.032.835Zm7.247.93-1.597 1.727 1.117 1.675h2.134a5.868 5.868 0 0 0-.744-2.208 5.94 5.94 0 0 0-.91-1.194Zm3.164 3.402H17a.583.583 0 0 0 0-1.167h-.667c.101.378.173.768.213 1.167ZM15.75 8.25a7.449 7.449 0 0 0-1.949-2.373A7.388 7.388 0 0 0 9.168 4.25c-1.753 0-3.366.61-4.636 1.627a7.407 7.407 0 0 0-2.743 5.04h-.121a.75.75 0 0 0 0 1.5h1.686l.404 2.694a.75.75 0 0 0 .742.639H5a.75.75 0 0 0 .728-.568l.691-2.765h5.496l.69 2.765a.75.75 0 0 0 .728.568H14a.75.75 0 0 0 .739-.62l.474-2.713H17a2.083 2.083 0 0 0 0-4.167h-1.249Zm-4.65 2.667-.667-1h-2.53l-.667 1H11.1Zm-5.667 0 1.116-1.675-1.596-1.727a5.896 5.896 0 0 0-1.655 3.402h2.135Z"
        clip-rule="evenodd"
      />
</svg>