<svg xmlns="http://www.w3.org/2000/svg" viewBox="0 0 20 20">
<path
        fill-rule="evenodd"
        d="M10 1.75a.75.75 0 0 1 .75.75v1.75h.949a3.25 3.25 0 0 1 2.925 2.167.75.75 0 0 1-1.415.499 1.75 1.75 0 0 0-1.56-1.166H8.333a1.75 1.75 0 1 0 0 3.5h3.333a3.25 3.25 0 1 1 0 6.5h-.916v1.75a.75.75 0 0 1-1.5 0v-1.75H8.3a3.25 3.25 0 0 1-2.925-2.168.75.75 0 1 1 1.414-.498 1.75 1.75 0 0 0 1.56 1.166h3.316a1.75 1.75 0 1 0 0-3.5H8.333a3.25 3.25 0 1 1 0-6.5h.917V2.5a.75.75 0 0 1 .75-.75Z"
        clip-rule="evenodd"
      />
</svg>