<svg xmlns="http://www.w3.org/2000/svg" viewBox="0 0 20 20">
<path
        d="M10.833 2.5a2.5 2.5 0 0 1 2.495 2.353l.005.147v3.333h1.666a2.5 2.5 0 0 1 2.484 2.209l.012.145.004.146-.016.164-.839 4.193c-.317 1.355-1.251 2.33-2.341 2.317l-.137-.007H7.499a.833.833 0 0 1-.827-.736l-.006-.097V8.72A.833.833 0 0 1 7.085 8a2.498 2.498 0 0 0 1.243-1.998l.006-.169V5a2.5 2.5 0 0 1 2.5-2.5ZM4.166 8.333a.833.833 0 0 1 .828.736l.005.098v7.5a.833.833 0 0 1-.735.827l-.098.006h-.833a1.667 1.667 0 0 1-1.663-1.542l-.004-.125V10a1.667 1.667 0 0 1 1.542-1.662l.125-.005h.833Z"
      />
</svg>