<svg xmlns="http://www.w3.org/2000/svg" viewBox="0 0 20 20">
<path d="M11.5 8.03571V6.5H12.25V8.03571H11.5Z" />
      <path d="M7.75 13.5V11.9643H8.5V13.5H7.75Z" />
      <path
        fill-rule="evenodd"
        d="M10.0005 1.75C8.91708 1.75 7.84429 1.96339 6.84335 2.37799C5.84241 2.7926 4.93294 3.40029 4.16686 4.16637C3.40077 4.93245 2.79308 5.84193 2.37848 6.84286C1.96388 7.8438 1.75049 8.91659 1.75049 10C1.75049 11.0834 1.96388 12.1562 2.37848 13.1571C2.79308 14.1581 3.40077 15.0675 4.16686 15.8336C4.93294 16.5997 5.84241 17.2074 6.84335 17.622C7.84429 18.0366 8.91708 18.25 10.0005 18.25C11.0839 18.25 12.1567 18.0366 13.1576 17.622C14.1586 17.2074 15.068 16.5997 15.8341 15.8336C16.6002 15.0675 17.2079 14.1581 17.6225 13.1571C18.0371 12.1562 18.2505 11.0834 18.2505 10C18.2505 8.91659 18.0371 7.8438 17.6225 6.84286C17.2079 5.84193 16.6002 4.93245 15.8341 4.16637C15.068 3.40029 14.1586 2.7926 13.1576 2.37799C12.1567 1.96339 11.0839 1.75 10.0005 1.75ZM7 5C6.58579 5 6.25 5.33579 6.25 5.75C6.25 6.16421 6.58579 6.5 7 6.5V8.78571C7 9.19993 7.33579 9.53571 7.75 9.53571C8.16421 9.53571 8.5 9.19993 8.5 8.78571V5.75C8.5 5.33579 8.16421 5 7.75 5H7ZM11.125 5C10.8719 5 10.6053 5.08006 10.3879 5.25598C10.1663 5.43536 10 5.71684 10 6.05357V8.48214C10 8.81888 10.1663 9.10035 10.3879 9.27973C10.6053 9.45566 10.8719 9.53571 11.125 9.53571H12.625C12.8781 9.53571 13.1447 9.45566 13.3621 9.27973C13.5837 9.10035 13.75 8.81888 13.75 8.48214V6.05357C13.75 5.71684 13.5837 5.43536 13.3621 5.25598C13.1447 5.08006 12.8781 5 12.625 5H11.125ZM7.375 10.4643C7.12192 10.4643 6.85525 10.5443 6.63794 10.7203C6.41634 10.8997 6.25 11.1811 6.25 11.5179V13.9464C6.25 14.2832 6.41634 14.5646 6.63794 14.744C6.85526 14.9199 7.12192 15 7.375 15H8.875C9.12808 15 9.39474 14.9199 9.61206 14.744C9.83366 14.5646 10 14.2832 10 13.9464V11.5179C10 11.1811 9.83366 10.8997 9.61206 10.7203C9.39475 10.5443 9.12808 10.4643 8.875 10.4643H7.375ZM12.25 10.4643C11.8358 10.4643 11.5 10.8001 11.5 11.2143C11.5 11.6285 11.8358 11.9643 12.25 11.9643V14.25C12.25 14.6642 12.5858 15 13 15C13.4142 15 13.75 14.6642 13.75 14.25V11.2143C13.75 10.8001 13.4142 10.4643 13 10.4643H12.25Z"
        clip-rule="evenodd"
      />
</svg>