<svg xmlns="http://www.w3.org/2000/svg" viewBox="0 0 20 20">
<path
        fill-rule="evenodd"
        d="M4.167 4.083A.917.917 0 0 0 3.25 5v10a.917.917 0 0 0 .917.917h11.667A.917.917 0 0 0 16.75 15V5a.917.917 0 0 0-.916-.917H4.167Zm-1.709-.792a2.417 2.417 0 0 1 1.71-.708h11.666A2.417 2.417 0 0 1 18.25 5v10a2.417 2.417 0 0 1-2.416 2.417H4.167A2.417 2.417 0 0 1 1.75 15V5c0-.641.255-1.256.708-1.709ZM6.137 6.97a.75.75 0 0 1 1.06 0l2.5 2.5a.75.75 0 0 1 0 1.06l-2.5 2.5a.75.75 0 1 1-1.06-1.06L8.107 10l-1.97-1.97a.75.75 0 0 1 0-1.06Zm3.947 5.53a.75.75 0 0 1 .75-.75h2.5a.75.75 0 0 1 0 1.5h-2.5a.75.75 0 0 1-.75-.75Z"
        clip-rule="evenodd"
      />
</svg>