<svg xmlns="http://www.w3.org/2000/svg" viewBox="0 0 20 20">
<path
        fill-rule="evenodd"
        d="M6.667 3.25a.917.917 0 0 0-.917.917v11.666a.917.917 0 0 0 .917.917h6.667a.917.917 0 0 0 .917-.917V4.167a.917.917 0 0 0-.917-.917h-1.755a.75.75 0 0 1-.745.833H9.167a.75.75 0 0 1-.745-.833H6.667Zm-1.709-.792a2.417 2.417 0 0 1 1.71-.708h6.666a2.417 2.417 0 0 1 2.417 2.417v11.666a2.417 2.417 0 0 1-2.417 2.417H6.667a2.417 2.417 0 0 1-2.417-2.417V4.167c0-.641.255-1.256.708-1.71Zm5.043 10.959a.75.75 0 0 1 .75.75v.008a.75.75 0 0 1-1.5 0v-.009a.75.75 0 0 1 .75-.75Z"
        clip-rule="evenodd"
      />
</svg>