<svg xmlns="http://www.w3.org/2000/svg" viewBox="0 0 20 20">
<path
        d="M7.702 17.298a3.25 3.25 0 0 0 4.96-.435c.331-.472-.086-1.03-.662-1.029H8c-.576 0-.993.558-.663 1.03.108.154.23.3.365.434Z"
      />
      <path
        fill-rule="evenodd"
        d="M16.666 14.917a.75.75 0 0 0 .37-1.403 2.582 2.582 0 0 1-1.286-1.895V9.167l-.001-.035a6.583 6.583 0 0 0-3.381-5.448 2.416 2.416 0 0 0-4.736 0A6.583 6.583 0 0 0 4.25 9.167v2.452a2.583 2.583 0 0 1-1.286 1.895.75.75 0 0 0 .37 1.403h13.332Z"
        clip-rule="evenodd"
      />
</svg>