<svg xmlns="http://www.w3.org/2000/svg" viewBox="0 0 20 20">
<path
        fill-rule="evenodd"
        d="M13.625 3.026a2.417 2.417 0 0 1 3.349 3.348 6.584 6.584 0 0 1-1.486 6.27l-1.734 1.732a2.583 2.583 0 0 0-.43 2.25.75.75 0 0 1-1.254.73L2.643 7.93a.75.75 0 0 1 .73-1.253 2.583 2.583 0 0 0 2.25-.43L7.356 4.51a6.583 6.583 0 0 1 6.27-1.485ZM4.58 11.662a.75.75 0 0 1 .77.18l2.809 2.808a.75.75 0 0 1-.431 1.274A3.254 3.254 0 0 1 4.998 15a3.25 3.25 0 0 1-.923-2.727.75.75 0 0 1 .503-.611Z"
        clip-rule="evenodd"
      />
</svg>