<svg xmlns="http://www.w3.org/2000/svg" viewBox="0 0 20 20">
<path
        fill-rule="evenodd"
        d="M3.382 10c1.862 2.915 4.07 4.25 6.619 4.25 2.548 0 4.756-1.335 6.618-4.25-1.862-2.916-4.07-4.25-6.618-4.25-2.549 0-4.757 1.334-6.619 4.25Zm-1.525-.386C3.947 6.131 6.66 4.25 10.001 4.25s6.053 1.881 8.143 5.364a.75.75 0 0 1 0 .772c-2.09 3.483-4.802 5.364-8.143 5.364-3.342 0-6.054-1.881-8.144-5.364a.75.75 0 0 1 0-.772Zm6.435-1.323a2.417 2.417 0 1 1 3.417 3.418A2.417 2.417 0 0 1 8.292 8.29Z"
        clip-rule="evenodd"
      />
</svg>