<svg xmlns="http://www.w3.org/2000/svg" viewBox="0 0 20 20">
<path
        fill-rule="evenodd"
        d="M3.51 3.173a1.869 1.869 0 0 0-.054.447c-.013.476.062 1.11.18 1.776a25.782 25.782 0 0 0 .546 2.366l.045.16.012.04.002.01.001.002a.751.751 0 0 1-.043.538c-.406.842-.736 1.636-.736 2.462 0 .569.09 1.108.262 1.61h2.108a.75.75 0 0 1 .53 1.28l-1.005 1.005c1.162.933 2.783 1.48 4.646 1.48 1.85 0 3.463-.56 4.625-1.493l-.993-.992a.75.75 0 0 1 .53-1.28h2.107a4.815 4.815 0 0 0 .273-1.61c0-.798-.288-1.62-.722-2.435a.75.75 0 0 1-.06-.557V7.98l.004-.01.01-.041c.01-.036.026-.09.044-.16a27.882 27.882 0 0 0 .52-2.365c.11-.665.178-1.3.16-1.776a1.838 1.838 0 0 0-.062-.453 2.122 2.122 0 0 0-.659-.05c-.354.018-.77.096-1.208.236-.883.283-1.776.796-2.388 1.484a.75.75 0 0 1-.75.227 5.694 5.694 0 0 0-1.43-.186 6.523 6.523 0 0 0-1.453.167.75.75 0 0 1-.728-.232C7.216 4.138 6.312 3.63 5.41 3.35a5.089 5.089 0 0 0-1.234-.23 2.225 2.225 0 0 0-.667.052Zm13.029.035h-.002Zm.747 4.894c.425.857.76 1.835.76 2.872 0 .564-.07 1.101-.199 1.61h.486a.75.75 0 0 1 0 1.5h-1.089c-.15.265-.319.52-.505.76l1.291 1.292a.75.75 0 0 1-1.06 1.061l-1.275-1.275c-1.479 1.23-3.515 1.927-5.69 1.927-2.185 0-4.231-.683-5.713-1.914L3.03 17.197a.75.75 0 1 1-1.06-1.06l1.28-1.281a6.252 6.252 0 0 1-.506-.773H1.667a.75.75 0 0 1 0-1.5h.488a6.659 6.659 0 0 1-.192-1.61c0-1.08.388-2.055.761-2.854a27.278 27.278 0 0 1-.565-2.46c-.123-.695-.22-1.449-.203-2.08a3.11 3.11 0 0 1 .148-.934c.102-.29.309-.648.725-.822.422-.176.925-.224 1.42-.2a6.582 6.582 0 0 1 1.605.295c.962.298 1.983.824 2.783 1.588.45-.079.907-.119 1.365-.12h.002c.46 0 .924.046 1.376.135.791-.756 1.79-1.285 2.735-1.588a6.4 6.4 0 0 1 1.586-.307c.49-.026.99.02 1.414.197.412.172.622.526.727.814.106.292.147.621.159.934.024.63-.064 1.385-.18 2.08a27.035 27.035 0 0 1-.535 2.451ZM7.5 10.092a.75.75 0 0 1 .75.75v.408a.75.75 0 0 1-1.5 0v-.408a.75.75 0 0 1 .75-.75Zm5 0a.75.75 0 0 1 .75.75v.408a.75.75 0 0 1-1.5 0v-.408a.75.75 0 0 1 .75-.75Zm-3.818 3.163a.75.75 0 0 1 .693-.463h1.25a.75.75 0 0 1 .53 1.28l-.625.625a.75.75 0 0 1-1.06 0l-.625-.625a.75.75 0 0 1-.163-.817Z"
        clip-rule="evenodd"
      />
</svg>