<svg xmlns="http://www.w3.org/2000/svg" viewBox="0 0 20 20">
<path
        fill-rule="evenodd"
        d="M7.702 3.952a3.25 3.25 0 1 1 4.596 4.596 3.25 3.25 0 0 1-4.596-4.596Z"
        clip-rule="evenodd"
      />
      <path
        d="M16.236 16.203c.037-.032.067-.058.088-.078l.04-.039c.14-.14.22-.331.22-.53a4.639 4.639 0 0 0-4.64-4.64H8.057a4.639 4.639 0 0 0-4.639 4.64c0 .199.079.39.22.53l.04.039.087.078c.074.065.18.153.318.256.274.207.677.474 1.208.74 1.064.532 2.636 1.051 4.71 1.051s3.647-.52 4.71-1.051a7.984 7.984 0 0 0 1.21-.74c.137-.103.242-.19.316-.256Z"
      />
</svg>