<svg xmlns="http://www.w3.org/2000/svg" viewBox="0 0 20 20">
<path
        fill-rule="evenodd"
        d="M17.894 2.695a.75.75 0 0 1 .356.638v6.25a.75.75 0 0 1-1.5 0V4.547l-3.5 1.75V10a.75.75 0 0 1-1.5 0V6.297l-3.5-1.75v9.156l1.252.626a.75.75 0 1 1-.67 1.342L7.5 15.005l-4.665 2.332a.75.75 0 0 1-1.085-.67V5.833a.75.75 0 0 1 .415-.67l5-2.5a.75.75 0 0 1 .67 0L12.5 4.995l4.665-2.332a.75.75 0 0 1 .73.032ZM6.75 13.703V4.547l-3.5 1.75v9.156l3.5-1.75Zm5.952-1.001a3.25 3.25 0 0 1 5.064 4.004l1.098 1.097a.75.75 0 0 1-1.061 1.06l-1.097-1.097a3.25 3.25 0 0 1-4.004-5.064ZM15 13.25a1.75 1.75 0 1 0 0 3.5 1.75 1.75 0 0 0 0-3.5Z"
        clip-rule="evenodd"
      />
</svg>