<svg xmlns="http://www.w3.org/2000/svg" viewBox="0 0 20 20">
<path
        fill-rule="evenodd"
        d="M3.333 2.583h3.334a.75.75 0 0 1 0 1.5H5.144l3.72 3.72a.75.75 0 1 1-1.061 1.06l-3.72-3.719v1.523a.75.75 0 1 1-1.5 0V3.333a.75.75 0 0 1 .75-.75Zm11.523 1.5h-1.523a.75.75 0 0 1 0-1.5h3.334a.75.75 0 0 1 .75.75v3.334a.75.75 0 0 1-1.5 0V5.144l-3.72 3.72a.75.75 0 0 1-1.06-1.061l3.719-3.72Zm-5.992 7.053a.75.75 0 0 1 0 1.061l-3.72 3.72h1.523a.75.75 0 0 1 0 1.5H3.333a.75.75 0 0 1-.75-.75v-3.334a.75.75 0 0 1 1.5 0v1.523l3.72-3.72a.75.75 0 0 1 1.06 0Zm2.272 0a.75.75 0 0 1 1.061 0l3.72 3.72v-1.523a.75.75 0 0 1 1.5 0v3.334a.75.75 0 0 1-.75.75h-3.334a.75.75 0 0 1 0-1.5h1.523l-3.72-3.72a.75.75 0 0 1 0-1.06Z"
        clip-rule="evenodd"
      />
</svg>