<svg xmlns="http://www.w3.org/2000/svg" viewBox="0 0 20 20">
<path
        d="M9.352 3.518a.917.917 0 0 1 1.564.649c0 .29.168.554.43.678a5.083 5.083 0 0 1 2.904 4.34v2.482c0 .03.002.061.005.092.016.127.037.257.067.389a.75.75 0 1 0 1.464-.326 2.559 2.559 0 0 1-.036-.204V9.167l-.001-.035a6.583 6.583 0 0 0-3.381-5.448 2.416 2.416 0 0 0-4.736 0A6.583 6.583 0 0 0 4.25 9.167v2.452a2.583 2.583 0 0 1-1.286 1.895.75.75 0 0 0 .37 1.403H6.75V15a3.25 3.25 0 0 0 2.71 3.205.75.75 0 1 0 .25-1.479A1.75 1.75 0 0 1 8.25 15v-.083h1.333a.75.75 0 0 0 0-1.5H5.162c.312-.504.51-1.07.582-1.66a.75.75 0 0 0 .006-.09V9.185a5.083 5.083 0 0 1 2.904-4.34.75.75 0 0 0 .43-.678c0-.243.096-.477.268-.649Z"
      />
      <path
        fill="#00A85F"
        d="M18.03 13.636a.75.75 0 0 0-1.06 0l-2.804 2.803-1.136-1.136a.75.75 0 0 0-1.06 1.06l1.666 1.667a.75.75 0 0 0 1.06 0l3.334-3.333a.75.75 0 0 0 0-1.06Z"
      />
</svg>