<svg xmlns="http://www.w3.org/2000/svg" viewBox="0 0 20 20">
<path
        fill-rule="evenodd"
        d="M10.243 1.29a.75.75 0 0 0-.486 0l-7 2.4a.75.75 0 0 0-.507.71V10c0 2.764 1.997 4.958 3.781 6.386a19.738 19.738 0 0 0 3.63 2.284l.019.008.005.003h.003a.75.75 0 0 0 .625 0h.002l.005-.003.018-.008a7.03 7.03 0 0 0 .302-.148 19.74 19.74 0 0 0 3.329-2.137c1.784-1.427 3.781-3.622 3.781-6.385V4.4a.75.75 0 0 0-.507-.71l-7-2.4ZM10 17.166a18.238 18.238 0 0 0 3.031-1.95c1.716-1.373 3.219-3.179 3.219-5.215V4.936L10 2.793 3.75 4.936V10c0 2.037 1.503 3.842 3.219 5.214A18.239 18.239 0 0 0 10 17.164Z"
        clip-rule="evenodd"
      />
      <path
        d="M8.94 6.8c.28-.352.662-.55 1.06-.55s.78.198 1.06.55c.282.35.44.828.44 1.325s-.158.974-.44 1.326a1.55 1.55 0 0 1-.35.325v2c0 .49-.318.889-.71.889-.393 0-.711-.398-.711-.889v-2a1.578 1.578 0 0 1-.35-.325c-.281-.352-.439-.829-.439-1.326 0-.497.158-.974.44-1.326Z"
      />
      <path
        fill-rule="evenodd"
        d="M10 6.25c-.398 0-.78.198-1.06.55-.282.35-.44.828-.44 1.325s.158.974.44 1.326c.104.13.222.24.35.325l-.001 2c0 .49.318.889.71.889.393 0 .711-.398.711-.889v-2c.128-.086.246-.195.35-.325.282-.352.44-.829.44-1.326 0-.497-.158-.974-.44-1.326-.28-.351-.662-.549-1.06-.549Z"
        clip-rule="evenodd"
      />
</svg>