<svg xmlns="http://www.w3.org/2000/svg" viewBox="0 0 20 20">
<path
        fill-rule="evenodd"
        d="M10 3.25a2.583 2.583 0 0 0-2.583 2.583v2.584h5.166V5.833A2.584 2.584 0 0 0 10 3.25Zm4.083 5.167V5.833a4.083 4.083 0 1 0-8.166 0v2.584h-.084a2.417 2.417 0 0 0-2.416 2.416v5a2.417 2.417 0 0 0 2.416 2.417h8.334a2.417 2.417 0 0 0 2.416-2.417v-5a2.417 2.417 0 0 0-2.416-2.416h-.084Zm-8.25 1.5a.917.917 0 0 0-.916.916v5a.917.917 0 0 0 .916.917h8.334a.917.917 0 0 0 .916-.917v-5a.917.917 0 0 0-.916-.916H5.833Zm3.047 2.297a1.583 1.583 0 1 1 2.24 2.239 1.583 1.583 0 0 1-2.24-2.24Z"
        clip-rule="evenodd"
      />
</svg>