<svg xmlns="http://www.w3.org/2000/svg" viewBox="0 0 20 20">
<path
        fill-rule="evenodd"
        d="M8.77 2.06a2.408 2.408 0 0 1 3.238.848l.002.004 7.02 11.717.005.01a2.407 2.407 0 0 1-2.057 3.61l-.009.001H2.923a2.408 2.408 0 0 1-2.058-3.61l.007-.011 7.02-11.72a2.41 2.41 0 0 1 .878-.85Zm1.18 1.19a.908.908 0 0 0-.775.435L2.162 15.394a.907.907 0 0 0 .775 1.356h14.027a.909.909 0 0 0 .775-1.357L10.726 3.688l-.001-.002a.908.908 0 0 0-.775-.435Zm.05 3.5a.75.75 0 0 1 .75.75v3.333a.75.75 0 0 1-1.5 0V7.5a.75.75 0 0 1 .75-.75Zm-.75 7.417a.75.75 0 0 1 .75-.75h.008a.75.75 0 0 1 0 1.5H10a.75.75 0 0 1-.75-.75Z"
        clip-rule="evenodd"
      />
</svg>