<svg xmlns="http://www.w3.org/2000/svg" viewBox="0 0 20 20">
<path
        fill-rule="evenodd"
        d="M9.665 3.496a.75.75 0 0 1 .67 0l8.334 4.167a.75.75 0 0 1 .414.67v5a.75.75 0 0 1-1.5 0V9.547l-1.833.916v3.704a.75.75 0 0 1-.22.53c-1.422 1.422-3.506 2.095-5.53 2.095-2.024 0-4.108-.673-5.53-2.095a.75.75 0 0 1-.22-.53v-3.704L1.331 9.005a.75.75 0 0 1 0-1.341l8.334-4.167Zm-4.316 5.84a.749.749 0 0 0-.028-.014l-1.977-.989L10 5.005l6.656 3.328-1.977.989a.761.761 0 0 0-.028.014L10 11.66 5.349 9.337Zm.401 1.877v2.63c1.077.944 2.637 1.449 4.25 1.449s3.173-.505 4.25-1.45v-2.629l-3.915 1.958a.75.75 0 0 1-.67 0L5.75 11.214Z"
        clip-rule="evenodd"
      />
</svg>