<svg xmlns="http://www.w3.org/2000/svg" viewBox="0 0 20 20">
<path
        fill-rule="evenodd"
        d="M10.243 1.29a.75.75 0 0 0-.486 0l-7 2.4a.75.75 0 0 0-.507.71V10c0 2.153 1.215 3.956 2.565 5.303 1.074 1.072 2.292 1.914 3.23 2.485a20.021 20.021 0 0 0 1.51.831l.096.046.026.012.007.003.003.002c.199.09.427.09.625 0h.001l.003-.002.007-.003.026-.012c.023-.01.055-.026.095-.046a20.052 20.052 0 0 0 1.512-.832c.94-.572 2.16-1.416 3.234-2.49 1.348-1.346 2.56-3.147 2.56-5.297V4.4a.75.75 0 0 0-.507-.71l-7-2.4ZM10 17.166a17.98 17.98 0 0 0 1.177-.66c.694-.422 1.529-.99 2.321-1.68a3.14 3.14 0 0 0-1.548-.408H8.06c-.55 0-1.084.144-1.554.412a17.117 17.117 0 0 0 2.319 1.677 18.497 18.497 0 0 0 1.175.659ZM5.41 13.75a4.639 4.639 0 0 1 2.65-.832h3.89a4.64 4.64 0 0 1 2.644.827c.983-1.113 1.656-2.38 1.656-3.744V4.936L10 2.793 3.75 4.936V10c0 1.367.675 2.634 1.66 3.749Z"
        clip-rule="evenodd"
      />
      <path
        fill-rule="evenodd"
        d="M10 5a3.25 3.25 0 1 0 0 6.5A3.25 3.25 0 0 0 10 5Zm0 1.5a1.75 1.75 0 1 0 0 3.5 1.75 1.75 0 0 0 0-3.5Z"
        clip-rule="evenodd"
      />
</svg>