<svg xmlns="http://www.w3.org/2000/svg" viewBox="0 0 20 20">
<path
        fill-rule="evenodd"
        d="M9.957 4.958a2.417 2.417 0 0 1 4.007.959h2.702a.75.75 0 1 1 0 1.5h-2.702a2.417 2.417 0 0 1-4.595 0H3.333a.75.75 0 1 1 0-1.5h6.036a2.43 2.43 0 0 1 .588-.96Zm1.71.792a.916.916 0 1 0 0 1.833.916.916 0 0 0 0-1.833Zm-6.304 5.874a2.417 2.417 0 0 1 4.006.96h7.297a.75.75 0 1 1 0 1.5H9.37a2.416 2.416 0 0 1-4.595 0H3.333a.75.75 0 0 1 0-1.5h1.441c.117-.359.317-.688.589-.96Zm1.709.793a.916.916 0 1 0 0 1.832.916.916 0 0 0 0-1.832Z"
        clip-rule="evenodd"
      />
</svg>