<svg xmlns="http://www.w3.org/2000/svg" viewBox="0 0 20 20">
<path
        fill-rule="evenodd"
        d="m10.101 5.065-.367.425a.75.75 0 1 1-1.135-.98l.386-.447a4.917 4.917 0 1 1 6.952 6.95l-.445.386a.75.75 0 1 1-.984-1.132l.424-.368a3.417 3.417 0 0 0-4.83-4.834Zm2.93 1.905a.75.75 0 0 1 0 1.06l-5 5a.75.75 0 1 1-1.062-1.06l5-5a.75.75 0 0 1 1.061 0Zm-7.47 1.7a.75.75 0 0 1-.065 1.059l-.42.37a3.393 3.393 0 0 0 .014 4.813 3.473 3.473 0 0 0 4.846.037l.295-.396a.75.75 0 1 1 1.204.894l-.33.445a.752.752 0 0 1-.075.086 4.973 4.973 0 0 1-6.994 0 4.893 4.893 0 0 1 .03-6.988l.437-.385a.75.75 0 0 1 1.059.065Z"
        clip-rule="evenodd"
      />
</svg>