<svg xmlns="http://www.w3.org/2000/svg" viewBox="0 0 20 20">
<path
        fill-rule="evenodd"
        d="M7.252 3.16c.136-.814.84-1.41 1.665-1.41h2.161c.825 0 1.53.596 1.665 1.41l.178 1.068c.008.05.05.13.16.191.07.039.14.079.208.12.106.065.197.062.245.043l1.014-.38a1.688 1.688 0 0 1 2.054.737l1.08 1.872a1.687 1.687 0 0 1-.388 2.147l-.837.689c-.04.033-.088.11-.086.233a6.856 6.856 0 0 1 0 .24c-.002.124.046.2.086.234l.837.689c.637.524.801 1.432.389 2.146l-1.081 1.872a1.688 1.688 0 0 1-2.054.737l-1.014-.38c-.048-.018-.139-.022-.245.043a6.191 6.191 0 0 1-.208.12c-.11.06-.152.14-.16.191l-.178 1.068a1.688 1.688 0 0 1-1.665 1.41H8.917a1.688 1.688 0 0 1-1.665-1.41l-.178-1.068c-.008-.05-.05-.13-.16-.191a6.228 6.228 0 0 1-.208-.12c-.107-.065-.197-.062-.246-.043l-1.014.38a1.688 1.688 0 0 1-2.053-.737l-1.08-1.872a1.688 1.688 0 0 1 .388-2.146l.837-.69c.04-.033.088-.109.086-.233a6.49 6.49 0 0 1 0-.24c.002-.124-.046-.2-.086-.233l-.837-.69a1.688 1.688 0 0 1-.389-2.146l1.08-1.872a1.687 1.687 0 0 1 2.054-.736l1.014.38c.049.018.14.02.246-.044.069-.041.138-.081.208-.12.11-.06.152-.14.16-.191l.178-1.068Zm1.665.09a.187.187 0 0 0-.185.157l-.178 1.067a1.786 1.786 0 0 1-.914 1.258l-.158.091a1.786 1.786 0 0 1-1.548.164l-1.014-.38a.187.187 0 0 0-.228.082l-1.08 1.872a.188.188 0 0 0 .042.239l.837.689c.448.368.642.911.632 1.419a4.975 4.975 0 0 0 0 .184 1.783 1.783 0 0 1-.632 1.42l-.837.688a.188.188 0 0 0-.043.24l1.081 1.871c.046.08.142.114.228.082l1.014-.38a1.786 1.786 0 0 1 1.548.164l.158.092c.444.245.818.685.914 1.257l.178 1.067c.015.09.093.157.185.157h2.161c.092 0 .17-.066.185-.157l.178-1.067c.095-.572.47-1.012.913-1.257.054-.03.107-.06.16-.092a1.783 1.783 0 0 1 1.547-.164l1.014.38a.187.187 0 0 0 .228-.082l1.08-1.872a.188.188 0 0 0-.043-.239l-.836-.688a1.785 1.785 0 0 1-.633-1.42 4.726 4.726 0 0 0 0-.184 1.787 1.787 0 0 1 .633-1.42l.836-.688a.188.188 0 0 0 .044-.239L15.303 5.69a.187.187 0 0 0-.228-.082l-1.014.38a1.786 1.786 0 0 1-1.548-.164 4.797 4.797 0 0 0-.159-.091 1.787 1.787 0 0 1-.913-1.258l-.178-1.067a.188.188 0 0 0-.185-.157H8.917Zm1.08 5a1.75 1.75 0 1 0 0 3.5 1.75 1.75 0 0 0 0-3.5ZM6.747 10a3.25 3.25 0 1 1 6.5 0 3.25 3.25 0 0 1-6.5 0Z"
        clip-rule="evenodd"
      />
</svg>