<svg xmlns="http://www.w3.org/2000/svg" viewBox="0 0 20 20">
<path
        fill-rule="evenodd"
        d="M10 18.25c2.074 0 3.647-.52 4.71-1.051.36-.18.662-.361.904-.524l1.355 1.355a.75.75 0 0 0 1.06-1.06l-6.053-6.053L3.03 1.97a.75.75 0 0 0-1.06 1.06l7.886 7.887h-1.8a4.639 4.639 0 0 0-4.638 4.639c0 .199.079.39.22.53l.04.039.087.078c.074.065.18.153.318.256.274.207.677.474 1.208.74 1.064.532 2.636 1.051 4.71 1.051Zm-1.944-5.833a3.14 3.14 0 0 0-3.121 2.807l.047.035c.21.159.537.377.979.598.88.44 2.224.893 4.04.893 1.814 0 3.158-.453 4.039-.893.182-.091.345-.182.487-.268l-3.172-3.172h-3.3Zm-.354-8.465a3.25 3.25 0 0 1 4.596 4.596.75.75 0 0 1-1.06-1.06 1.75 1.75 0 1 0-2.475-2.475.75.75 0 1 1-1.061-1.061Z"
        clip-rule="evenodd"
      />
</svg>