<svg xmlns="http://www.w3.org/2000/svg" viewBox="0 0 20 20">
<path
        fill-rule="evenodd"
        d="M4.167 4.917a.922.922 0 0 0-.917.916v8.334a.917.917 0 0 0 .917.916h4.166a.75.75 0 0 1 0 1.5H4.167a2.416 2.416 0 0 1-2.417-2.416V5.832a2.422 2.422 0 0 1 2.417-2.417h11.666a2.417 2.417 0 0 1 2.417 2.417v8.334a2.416 2.416 0 0 1-1.208 2.09.75.75 0 0 1-.75-1.298.917.917 0 0 0 .458-.793V5.833a.917.917 0 0 0-.917-.917H4.167ZM4.25 7.5A.75.75 0 0 1 5 6.75h10a.75.75 0 0 1 0 1.5H5a.75.75 0 0 1-.75-.75Zm0 2.5A.75.75 0 0 1 5 9.25h2.5a.75.75 0 1 1 0 1.5H5a.75.75 0 0 1-.75-.75Zm5.952.202a3.25 3.25 0 0 1 4.715 4.47v3.661a.75.75 0 0 1-1.2.6l-1.217-.912-1.217.912a.75.75 0 0 1-1.2-.6v-3.66a3.25 3.25 0 0 1 .119-4.471Zm1.381 5.416v1.215l.467-.35a.75.75 0 0 1 .9 0l.467.35v-1.215a3.248 3.248 0 0 1-1.834 0Zm.917-4.868a1.75 1.75 0 1 0 0 3.5 1.75 1.75 0 0 0 0-3.5ZM4.25 12.5a.75.75 0 0 1 .75-.75h1.667a.75.75 0 0 1 0 1.5H5a.75.75 0 0 1-.75-.75Z"
        clip-rule="evenodd"
      />
</svg>