<svg xmlns="http://www.w3.org/2000/svg" viewBox="0 0 20 20">
<path
        fill-rule="evenodd"
        d="M2.25 3.333a.75.75 0 0 1 .75-.75h14a.75.75 0 0 1 .75.75v3.334a.75.75 0 0 1-.75.75h-.417V15a2.417 2.417 0 0 1-2.416 2.417H5.833A2.417 2.417 0 0 1 3.417 15V7.417H3a.75.75 0 0 1-.75-.75V3.333Zm2.667 4.084V15a.917.917 0 0 0 .916.917h8.334a.917.917 0 0 0 .916-.917V7.417H4.917Zm11.333-1.5H3.75V4.083h12.5v1.834Z"
        clip-rule="evenodd"
      />
      <path
        fill-rule="evenodd"
        d="M7.584 11a.75.75 0 0 1 .75-.75h3.333a.75.75 0 0 1 0 1.5H8.334a.75.75 0 0 1-.75-.75Z"
        clip-rule="evenodd"
      />
</svg>