<svg xmlns="http://www.w3.org/2000/svg" viewBox="0 0 20 20">
<path
        fill-rule="evenodd"
        d="M13.616 4.633c-1.441-1.156-3.43-1.512-5.224-.966-1.605.49-2.882 1.65-3.416 3.146-2.267.272-4.059 2.139-4.059 4.45 0 2.505 2.1 4.486 4.63 4.487l9.899.003c2.013 0 3.638-1.64 3.638-3.656a3.646 3.646 0 0 0-3.621-3.655c.026-1.454-.649-2.851-1.847-3.81Zm-.938 1.17c-1.04-.833-2.51-1.108-3.85-.7-1.336.407-2.286 1.412-2.548 2.59a.75.75 0 0 1-.732.586c-1.757 0-3.131 1.363-3.131 2.985 0 1.622 1.375 2.986 3.13 2.986l9.9.003c1.175 0 2.137-.96 2.137-2.156a2.146 2.146 0 0 0-2.137-2.155h-.825a.75.75 0 0 1-.732-.913c.26-1.17-.18-2.4-1.212-3.226Z"
        clip-rule="evenodd"
      />
</svg>