<svg xmlns="http://www.w3.org/2000/svg" viewBox="0 0 20 20">
<path
        fill-rule="evenodd"
        d="M4.167 7.583a.75.75 0 0 1 .75.75v.454l.581-.291a.75.75 0 0 1 .67 1.342L5.845 10l.325.163a.75.75 0 1 1-.67 1.341l-.582-.29v.453a.75.75 0 0 1-1.5 0v-.453l-.581.29a.75.75 0 1 1-.671-1.341L2.49 10l-.325-.162a.75.75 0 0 1 .67-1.342l.582.29v-.452a.75.75 0 0 1 .75-.75Zm5.833 0a.75.75 0 0 1 .75.75v.454l.581-.291a.75.75 0 0 1 .671 1.342l-.325.162.325.163a.75.75 0 1 1-.67 1.341l-.582-.29v.453a.75.75 0 0 1-1.5 0v-.453l-.581.29a.75.75 0 1 1-.67-1.341L8.322 10l-.325-.162a.75.75 0 1 1 .67-1.342l.582.29v-.452a.75.75 0 0 1 .75-.75Zm5.834 0a.75.75 0 0 1 .75.75v.454l.58-.291a.75.75 0 0 1 .672 1.342L17.51 10l.325.163a.75.75 0 1 1-.671 1.341l-.581-.29v.453a.75.75 0 0 1-1.5 0v-.453l-.582.29a.75.75 0 1 1-.67-1.341l.324-.163-.325-.162a.75.75 0 0 1 .671-1.342l.582.29v-.452a.75.75 0 0 1 .75-.75Z"
        clip-rule="evenodd"
      />
</svg>