<svg xmlns="http://www.w3.org/2000/svg" viewBox="0 0 20 20">
<path fill-rule="evenodd" clip-rule="evenodd" d="M8.29149 2.45783C8.7447 2.00461 9.35939 1.75 10.0003 1.75C10.6413 1.75 11.256 2.00461 11.7092 2.45783C12.1624 2.91104 12.417 3.52573 12.417 4.16667V10.8453C13.0161 11.2852 13.4862 11.8822 13.7728 12.5741C14.1168 13.4046 14.1772 14.3253 13.9445 15.1936C13.7119 16.0619 13.1992 16.8291 12.4861 17.3763C11.773 17.9235 10.8992 18.2201 10.0003 18.2201C9.10145 18.2201 8.22768 17.9235 7.51455 17.3763C6.80142 16.8291 6.28878 16.0619 6.05613 15.1936C5.82348 14.3253 5.88383 13.4046 6.22782 12.5741C6.51441 11.8822 6.98455 11.2852 7.58366 10.8453V7.50157C7.58366 7.50105 7.58366 7.50052 7.58366 7.5C7.58366 7.49948 7.58366 7.49895 7.58366 7.49843V4.16667C7.58366 3.52573 7.83827 2.91104 8.29149 2.45783ZM9.08366 8.25V11.25C9.08366 11.518 8.94071 11.7655 8.70866 11.8995C8.21617 12.1839 7.83126 12.6228 7.61364 13.1482C7.39601 13.6735 7.35783 14.2561 7.50502 14.8054C7.6522 15.3547 7.97653 15.8401 8.42769 16.1862C8.87886 16.5324 9.43165 16.7201 10.0003 16.7201C10.569 16.7201 11.1218 16.5324 11.573 16.1862C12.0241 15.8401 12.3485 15.3547 12.4956 14.8054C12.6428 14.2561 12.6046 13.6735 12.387 13.1482C12.1694 12.6228 11.7845 12.1839 11.292 11.8995C11.0599 11.7655 10.917 11.518 10.917 11.25V8.25H9.08366ZM10.917 6.75H9.08366V4.16667C9.08366 3.92355 9.18024 3.69039 9.35215 3.51849C9.52405 3.34658 9.75721 3.25 10.0003 3.25C10.2434 3.25 10.4766 3.34658 10.6485 3.51849C10.8204 3.69039 10.917 3.92355 10.917 4.16667V6.75Z" />
</svg>