<svg xmlns="http://www.w3.org/2000/svg" viewBox="0 0 20 20">
<path
        fill-rule="evenodd"
        d="M7 9.125c.483 0 .875.392.875.875v.008a.875.875 0 1 1-1.75 0V10c0-.483.392-.875.875-.875Z"
        clip-rule="evenodd"
      />
      <path
        fill-rule="evenodd"
        d="m7.778 2.777-3.334.834a.917.917 0 0 0-.694.889v10.47c0 .573.39 1.073.947 1.212l4.116 1.03a.083.083 0 0 0 .104-.082V3.667a.92.92 0 0 0-.727-.897.917.917 0 0 0-.412.007Zm2.639.977v12.163h1.833v-1.25a.75.75 0 0 1 1.5 0v1.25h1.417a.75.75 0 0 1 0 1.5H10.39a1.585 1.585 0 0 1-1.94 1.25l-4.117-1.03A2.75 2.75 0 0 1 2.25 14.97V4.5a2.417 2.417 0 0 1 1.83-2.345l3.334-.833a2.417 2.417 0 0 1 2.545.93.765.765 0 0 1 .048-.002l1.318.012a2.416 2.416 0 0 1 2.413 2.417.75.75 0 0 1-1.5 0 .917.917 0 0 0-.916-.917h-.007l-.898-.008ZM14.22 6.47a.75.75 0 0 1 1.06 0l2.5 2.5a.75.75 0 0 1 0 1.06l-2.5 2.5a.75.75 0 1 1-1.06-1.06l1.22-1.22H12.5a.75.75 0 0 1 0-1.5h2.94l-1.22-1.22a.75.75 0 0 1 0-1.06Z"
        clip-rule="evenodd"
      />
</svg>