<svg xmlns="http://www.w3.org/2000/svg" viewBox="0 0 20 20">
<path
        fill-rule="evenodd"
        d="M13.333 4.083a.083.083 0 0 0-.083.084v11.666a.084.084 0 0 0 .083.084h3.334a.083.083 0 0 0 .083-.084V4.167a.083.083 0 0 0-.083-.084h-3.334Zm3.334 13.334a1.583 1.583 0 0 0 1.583-1.584V4.167a1.583 1.583 0 0 0-1.583-1.584h-3.334a1.584 1.584 0 0 0-1.583 1.584v1.752a1.583 1.583 0 0 0-.083-.002H8.333A1.583 1.583 0 0 0 6.75 7.5v1.752a1.582 1.582 0 0 0-.083-.002H3.333a1.583 1.583 0 0 0-1.583 1.583v5a1.583 1.583 0 0 0 1.583 1.584h13.334Zm-5-1.5a.083.083 0 0 0 .083-.084V7.5a.083.083 0 0 0-.083-.083H8.333a.083.083 0 0 0-.083.083v8.333a.084.084 0 0 0 .083.084h3.334Zm-5 0a.084.084 0 0 0 .083-.084v-5a.083.083 0 0 0-.083-.083H3.333a.083.083 0 0 0-.083.083v5a.084.084 0 0 0 .083.084h3.334Z"
        clip-rule="evenodd"
      />
</svg>