<svg xmlns="http://www.w3.org/2000/svg" viewBox="0 0 20 20">
<path
        fill-rule="evenodd"
        d="M10 1.667a8.333 8.333 0 1 0 0 16.666 8.333 8.333 0 0 0 0-16.666Zm.334 4.273A.377.377 0 0 0 10 5.75a.377.377 0 0 0-.334.19L8.477 8.147 5.82 8.5a.365.365 0 0 0-.3.233.321.321 0 0 0 .094.35L7.539 10.8l-.454 2.426a.328.328 0 0 0 .148.334.4.4 0 0 0 .392.026l2.378-1.146 2.372 1.146a.4.4 0 0 0 .392-.026.328.328 0 0 0 .148-.334l-.454-2.426 1.926-1.718a.321.321 0 0 0 .095-.35.365.365 0 0 0-.3-.232l-2.66-.353-1.188-2.207Z"
        clip-rule="evenodd"
      />
</svg>