<svg xmlns="http://www.w3.org/2000/svg" viewBox="0 0 20 20">
<path
        fill-rule="evenodd"
        d="M9.632 1.846a.75.75 0 0 1 .736 0l6.666 3.75a.75.75 0 0 1 .383.654V10a.75.75 0 1 1-1.5 0V7.532L10.75 10.44v7.06a.75.75 0 0 1-1.118.654l-6.666-3.75a.75.75 0 0 1-.383-.654v-7.5a.75.75 0 0 1 .383-.654l6.666-3.75ZM10 9.14l5.137-2.889-1.912-1.075L8.276 8.17 10 9.14ZM6.775 7.325l4.949-2.995L10 3.36 4.863 6.25l1.912 1.075Zm-2.692.207v5.78l5.167 2.906v-5.78L4.083 7.533Zm11.333 5.145a.75.75 0 0 1 .208 1.04l-.89 1.334h1.933a.75.75 0 0 1 .624 1.166l-1.667 2.5a.75.75 0 1 1-1.248-.832l.89-1.334h-1.933a.75.75 0 0 1-.624-1.166l1.667-2.5a.75.75 0 0 1 1.04-.208Z"
        clip-rule="evenodd"
      />
</svg>