<svg xmlns="http://www.w3.org/2000/svg" viewBox="0 0 20 20">
<path
        fill-rule="evenodd"
        d="M6.625 2.458a2.417 2.417 0 0 1 4.126 1.709V5a.083.083 0 0 0 .083.083h2.5a1.583 1.583 0 0 1 1.583 1.584v2.5a.083.083 0 0 0 .084.083h.833a2.417 2.417 0 0 1 0 4.833H15a.083.083 0 0 0-.084.083v2.5a1.583 1.583 0 0 1-1.583 1.584h-2.5a1.583 1.583 0 0 1-1.584-1.584v-.833a.917.917 0 0 0-1.833 0v.833a1.583 1.583 0 0 1-1.583 1.584h-2.5a1.583 1.583 0 0 1-1.584-1.584v-2.5a1.583 1.583 0 0 1 1.584-1.583h.833a.917.917 0 0 0 0-1.833h-.833A1.583 1.583 0 0 1 1.75 9.167v-2.5a1.583 1.583 0 0 1 1.584-1.584h2.5A.083.083 0 0 0 5.917 5v-.833c0-.641.255-1.256.708-1.71Z"
        clip-rule="evenodd"
      />
</svg>