<svg xmlns="http://www.w3.org/2000/svg" viewBox="0 0 20 20">
<path
        d="M8.417 11.25a.75.75 0 0 1 .75-.75H10a.75.75 0 0 1 .75.75v2.5a.75.75 0 0 1-1.5 0V12h-.083a.75.75 0 0 1-.75-.75Z"
      />
      <path
        fill-rule="evenodd"
        d="M7.416 2.5a.75.75 0 1 0-1.5 0v.917H5a2.417 2.417 0 0 0-2.417 2.416v10A2.417 2.417 0 0 0 5 18.25h10a2.417 2.417 0 0 0 2.417-2.417v-10A2.417 2.417 0 0 0 15 3.417h-.917V2.5a.75.75 0 0 0-1.5 0v.917H7.416V2.5Zm8.5 7.5V8.417H4.083v7.416A.917.917 0 0 0 5 16.75h10a.917.917 0 0 0 .917-.917V10Z"
        clip-rule="evenodd"
      />
</svg>