<svg xmlns="http://www.w3.org/2000/svg" viewBox="0 0 20 20">
<path
        fill-rule="evenodd"
        d="M6.229 3.602a7.5 7.5 0 0 1 11.18 5.461.75.75 0 0 1-1.485.207A6 6 0 0 0 5 6.75h1.666a.75.75 0 1 1 0 1.5H3.333a.75.75 0 0 1-.75-.75V4.167a.75.75 0 1 1 1.5 0v1.295a7.5 7.5 0 0 1 2.146-1.86Zm-3 6.489a.75.75 0 0 1 .847.64 6 6 0 0 0 10.923 2.52h-1.666a.75.75 0 0 1 0-1.5h2.9a.65.65 0 0 1 .034 0h.4a.75.75 0 0 1 .75.75v3.332a.75.75 0 0 1-1.5 0v-1.295A7.499 7.499 0 0 1 2.59 10.937a.75.75 0 0 1 .64-.846Z"
        clip-rule="evenodd"
      />
</svg>