<svg xmlns="http://www.w3.org/2000/svg" viewBox="0 0 20 20">
<path
        fill-rule="evenodd"
        d="M7.997 3a3.25 3.25 0 1 0 0 6.5 3.25 3.25 0 0 0 0-6.5ZM6.76 5.013a1.75 1.75 0 1 1 2.474 2.474A1.75 1.75 0 0 1 6.76 5.013Zm5.887-1.947a.75.75 0 1 0-.3 1.47 1.75 1.75 0 0 1 0 3.429.75.75 0 1 0 .3 1.47 3.25 3.25 0 0 0 0-6.37Zm1.586 13.138.088-.08.04-.037a.755.755 0 0 0 .22-.531 4.639 4.639 0 0 0-4.64-4.64H6.054a4.64 4.64 0 0 0-4.639 4.64c0 .199.08.39.22.53l.04.039.087.079c.074.064.18.152.318.255a7.94 7.94 0 0 0 1.208.74c1.064.532 2.636 1.051 4.71 1.051s3.647-.52 4.71-1.051a7.984 7.984 0 0 0 1.21-.74c.137-.103.242-.19.316-.255Zm-8.18-3.787a3.14 3.14 0 0 0-3.121 2.807l.047.035c.21.159.537.377.979.598.88.44 2.225.893 4.04.893 1.814 0 3.158-.453 4.039-.893a6.432 6.432 0 0 0 1.026-.633 3.139 3.139 0 0 0-3.121-2.807H6.053Z"
        clip-rule="evenodd"
      />
      <path
        d="M15.82 11.314a.75.75 0 0 0-.607 1.372 3.138 3.138 0 0 1 1.85 2.538 6.842 6.842 0 0 1-1.367.793.75.75 0 1 0 .603 1.373 8.331 8.331 0 0 0 1.511-.853 5.818 5.818 0 0 0 .502-.405l.016-.015.031-.03h.002a.75.75 0 0 0 .22-.531 4.638 4.638 0 0 0-2.761-4.242Z"
      />
</svg>