<svg xmlns="http://www.w3.org/2000/svg" viewBox="0 0 20 20">
<path d="M9.24191 10.6251L9.55441 9.3751H10.7582L10.4457 10.6251H9.24191Z" />
      <path
        fill-rule="evenodd"
        d="M10.0005 1.75C8.91708 1.75 7.84429 1.96339 6.84335 2.37799C5.84241 2.7926 4.93294 3.40029 4.16686 4.16637C3.40077 4.93245 2.79308 5.84193 2.37848 6.84286C1.96388 7.8438 1.75049 8.91659 1.75049 10C1.75049 11.0834 1.96388 12.1562 2.37848 13.1571C2.79308 14.1581 3.40077 15.0675 4.16686 15.8336C4.93294 16.5997 5.84241 17.2074 6.84335 17.622C7.84429 18.0366 8.91708 18.25 10.0005 18.25C11.0839 18.25 12.1567 18.0366 13.1576 17.622C14.1586 17.2074 15.068 16.5997 15.8341 15.8336C16.6002 15.0675 17.2079 14.1581 17.6225 13.1571C18.0371 12.1562 18.2505 11.0834 18.2505 10C18.2505 8.91659 18.0371 7.8438 17.6225 6.84286C17.2079 5.84193 16.6002 4.93245 15.8341 4.16637C15.068 3.40029 14.1586 2.7926 13.1576 2.37799C12.1567 1.96339 11.0839 1.75 10.0005 1.75ZM10.2694 6.51533C10.3698 6.11348 10.1255 5.70628 9.72365 5.60582C9.3218 5.50536 8.9146 5.74968 8.81414 6.15153L8.38325 7.8751H6.79175C6.37753 7.8751 6.04175 8.21088 6.04175 8.6251C6.04175 9.03931 6.37753 9.3751 6.79175 9.3751H8.00825L7.69575 10.6251H6.79175C6.37753 10.6251 6.04175 10.9609 6.04175 11.3751C6.04175 11.7893 6.37753 12.1251 6.79175 12.1251H7.32075L6.98081 13.4849C6.88035 13.8867 7.12467 14.2939 7.52651 14.3944C7.92836 14.4948 8.33556 14.2505 8.43602 13.8487L8.86691 12.1251H10.0707L9.73081 13.4849C9.63035 13.8867 9.87467 14.2939 10.2765 14.3944C10.6784 14.4948 11.0856 14.2505 11.186 13.8487L11.6169 12.1251H13.2084C13.6226 12.1251 13.9584 11.7893 13.9584 11.3751C13.9584 10.9609 13.6226 10.6251 13.2084 10.6251H11.9919L12.3044 9.3751H13.2084C13.6226 9.3751 13.9584 9.03931 13.9584 8.6251C13.9584 8.21088 13.6226 7.8751 13.2084 7.8751H12.6794L13.0194 6.51533C13.1198 6.11348 12.8755 5.70628 12.4736 5.60582C12.0718 5.50536 11.6646 5.74968 11.5641 6.15153L11.1332 7.8751H9.92941L10.2694 6.51533Z"
        clip-rule="evenodd"
      />
</svg>