<svg xmlns="http://www.w3.org/2000/svg" viewBox="0 0 20 20">
<path
        fill-rule="evenodd"
        d="M4.167 4.083a.083.083 0 0 0-.084.084V7.5a.083.083 0 0 0 .084.083H7.5a.083.083 0 0 0 .083-.083V4.167a.083.083 0 0 0-.083-.084H4.167Zm-1.12-1.036c.297-.297.7-.464 1.12-.464H7.5a1.583 1.583 0 0 1 1.583 1.584V7.5A1.583 1.583 0 0 1 7.5 9.083H4.167A1.583 1.583 0 0 1 2.583 7.5V4.167c0-.42.167-.823.464-1.12Zm11.12-.464a.75.75 0 0 1 .75.75v1.75h1.75a.75.75 0 0 1 0 1.5h-1.75v1.75a.75.75 0 0 1-1.5 0v-1.75h-1.75a.75.75 0 0 1 0-1.5h1.75v-1.75a.75.75 0 0 1 .75-.75Zm-10 9.834a.083.083 0 0 0-.084.083v3.333a.084.084 0 0 0 .084.084H7.5a.083.083 0 0 0 .083-.084V12.5a.083.083 0 0 0-.083-.083H4.167Zm-1.12-1.037c.297-.296.7-.463 1.12-.463H7.5A1.583 1.583 0 0 1 9.083 12.5v3.333A1.583 1.583 0 0 1 7.5 17.417H4.167a1.583 1.583 0 0 1-1.584-1.584V12.5c0-.42.167-.823.464-1.12Zm9.453 1.037a.083.083 0 0 0-.083.083v3.333a.083.083 0 0 0 .083.084h3.333a.084.084 0 0 0 .084-.084V12.5a.083.083 0 0 0-.084-.083H12.5Zm-1.12-1.037c.297-.296.7-.463 1.12-.463h3.333a1.583 1.583 0 0 1 1.584 1.583v3.333a1.583 1.583 0 0 1-1.584 1.584H12.5a1.583 1.583 0 0 1-1.583-1.584V12.5c0-.42.167-.823.463-1.12Z"
        clip-rule="evenodd"
      />
</svg>