<svg xmlns="http://www.w3.org/2000/svg" viewBox="0 0 20 20">
<path
        fill-rule="evenodd"
        d="M18.03 1.97a.75.75 0 0 1 0 1.06l-1.573 1.574a3.704 3.704 0 0 1 .607 2.059 3.697 3.697 0 0 1-1.121 2.621l-1.246 1.246a.75.75 0 0 1-1.06 0L9.47 6.364a.75.75 0 0 1 0-1.061l1.246-1.246a3.696 3.696 0 0 1 4.68-.514L16.97 1.97a.75.75 0 0 1 1.06 0ZM14.2 4.6a2.196 2.196 0 0 0-2.411.505l-.009.009-.72.72 3.107 3.105.728-.728A2.195 2.195 0 0 0 14.2 4.6ZM8.864 8.636a.75.75 0 0 1 0 1.061l-1.137 1.136 1.44 1.44 1.136-1.137a.75.75 0 0 1 1.06 1.061l-1.136 1.136.303.303a.75.75 0 0 1 0 1.061l-1.246 1.246a3.697 3.697 0 0 1-4.68.514L3.03 18.03a.75.75 0 0 1-1.06-1.06l1.573-1.574a3.697 3.697 0 0 1 .514-4.68L5.303 9.47a.75.75 0 0 1 1.06 0l.304.303 1.136-1.137a.75.75 0 0 1 1.06 0Zm-3.03 2.425-.729.728a2.198 2.198 0 1 0 3.106 3.106l.009-.009.72-.72-3.107-3.105Zm9.691.272a.75.75 0 0 1 .75.75v.62c.318.103.613.273.865.499l.537-.31a.75.75 0 1 1 .75 1.3l-.537.31a2.42 2.42 0 0 1 0 .997l.537.31a.75.75 0 1 1-.75 1.299l-.537-.31a2.416 2.416 0 0 1-.865.5v.619a.75.75 0 1 1-1.5 0v-.62a2.414 2.414 0 0 1-.864-.498l-.536.309a.75.75 0 0 1-.75-1.3l.536-.308a2.415 2.415 0 0 1 0-1l-.536-.309a.75.75 0 0 1 .75-1.299l.536.31c.252-.227.547-.396.864-.5v-.619a.75.75 0 0 1 .75-.75Zm-.81 3.239a.764.764 0 0 0 .034-.06.918.918 0 1 1-.035.06Z"
        clip-rule="evenodd"
      />
</svg>