<svg xmlns="http://www.w3.org/2000/svg" viewBox="0 0 20 20">
<path
        fill-rule="evenodd"
        d="M7.645 2.095a8.25 8.25 0 0 1 10.593 8.365.75.75 0 1 1-1.498-.083 6.75 6.75 0 1 0-4.48 5.985.75.75 0 1 1 .502 1.413 8.25 8.25 0 1 1-5.117-15.68ZM10 5.083a.75.75 0 0 1 .75.75V9.69l2.28 2.28a.75.75 0 0 1-1.06 1.061l-2.5-2.5a.75.75 0 0 1-.22-.53V5.833a.75.75 0 0 1 .75-.75Zm5.833 7.5a.75.75 0 0 1 .75.75v2.5a.75.75 0 0 1-1.5 0v-2.5a.75.75 0 0 1 .75-.75Zm.001 4.875c.483 0 .875.392.875.875v.009a.875.875 0 1 1-1.75 0v-.009c0-.483.392-.875.875-.875Z"
        clip-rule="evenodd"
      />
</svg>