<svg xmlns="http://www.w3.org/2000/svg" viewBox="0 0 20 20">
<path
        fill-rule="evenodd"
        d="M9.757 1.29a.75.75 0 0 1 .486 0l7 2.4a.75.75 0 0 1 .507.71V10c0 2.764-1.997 4.958-3.782 6.386a19.74 19.74 0 0 1-3.565 2.253l-.065.03-.018.01-.006.002h-.001L10 18l-.313.682-.002-.001-.005-.003-.018-.008a7.251 7.251 0 0 1-.302-.148 19.739 19.739 0 0 1-3.33-2.137C4.247 14.958 2.25 12.763 2.25 10V4.4a.75.75 0 0 1 .507-.71l7-2.4Zm-.07 17.392L10 18l.313.682a.754.754 0 0 1-.626 0ZM10.75 6.667a.75.75 0 0 0-1.5 0V10.5a.75.75 0 0 0 1.5 0V6.667Zm-1.625 6.667c0-.484.392-.875.875-.875h.008a.875.875 0 1 1 0 1.75H10a.875.875 0 0 1-.875-.875Z"
        clip-rule="evenodd"
      />
</svg>