<svg xmlns="http://www.w3.org/2000/svg" viewBox="0 0 20 20">
<path
        fill-rule="evenodd"
        d="M6.843 2.378a8.25 8.25 0 1 1 6.314 15.244A8.25 8.25 0 0 1 6.843 2.378Zm7.022 3.758c.2.201.271.498.181.768l-1.666 5a.75.75 0 0 1-.475.474l-5 1.667a.75.75 0 0 1-.949-.949l1.667-5a.75.75 0 0 1 .474-.474l5-1.667a.75.75 0 0 1 .768.181Zm-4.937 2.79-1.074 3.221 3.221-1.073 1.074-3.222-3.221 1.074ZM10 2.75a.75.75 0 0 1 .75.75v.009a.75.75 0 0 1-1.5 0V3.5a.75.75 0 0 1 .75-.75Zm0 13a.75.75 0 0 1 .75.75v.01a.75.75 0 0 1-1.5 0v-.01a.75.75 0 0 1 .75-.75ZM2.75 10a.75.75 0 0 1 .75-.75h.009a.75.75 0 0 1 0 1.5H3.5a.75.75 0 0 1-.75-.75Zm13 0a.75.75 0 0 1 .75-.75h.009a.75.75 0 0 1 0 1.5H16.5a.75.75 0 0 1-.75-.75Z"
        clip-rule="evenodd"
      />
</svg>