<svg xmlns="http://www.w3.org/2000/svg" viewBox="0 0 20 20">
<path
        fill-rule="evenodd"
        d="M4.145 4.145a5.333 5.333 0 0 1 8.999 2.711 5.333 5.333 0 0 1 4.07 3.773.75.75 0 0 1-1.443.409 3.833 3.833 0 0 0-2.545-2.614 5.334 5.334 0 0 1-4.802 4.802 3.832 3.832 0 0 0 1.917 2.272.75.75 0 0 1-.682 1.336 5.334 5.334 0 0 1-2.803-3.69 5.333 5.333 0 0 1-2.71-8.999Zm7.43 2.63a5.333 5.333 0 0 0-4.8 4.8 3.834 3.834 0 1 1 4.8-4.8Zm3.841 5.902a.75.75 0 0 1 .208 1.04l-.89 1.334h1.933a.75.75 0 0 1 .624 1.166l-1.667 2.5a.75.75 0 1 1-1.248-.832l.89-1.334h-1.933a.75.75 0 0 1-.624-1.166l1.667-2.5a.75.75 0 0 1 1.04-.208Z"
        clip-rule="evenodd"
      />
</svg>