<svg xmlns="http://www.w3.org/2000/svg" viewBox="0 0 20 20">
<path
        fill-rule="evenodd"
        d="M7.49995 1.71094C7.08574 1.71094 6.74995 2.04672 6.74995 2.46094C6.74995 2.87515 7.08574 3.21094 7.49995 3.21094H7.58328L7.58328 7.32881L4.30659 16.3397C4.22892 16.5121 4.18875 16.6993 4.18897 16.8888C4.18921 17.0953 4.23739 17.2989 4.32973 17.4835C4.42207 17.6682 4.55603 17.8289 4.72105 17.953C4.88608 18.0771 5.07767 18.1611 5.28072 18.1985C5.32555 18.2068 5.37103 18.2109 5.41661 18.2109H9.99994C10.4142 18.2109 10.7499 17.8752 10.7499 17.4609C10.7499 17.0467 10.4142 16.7109 9.99994 16.7109H5.76769L9.03813 7.71725C9.068 7.63509 9.08328 7.54835 9.08328 7.46094L9.08328 3.21094H10.9166L10.9166 7.46094C10.9166 7.54835 10.9319 7.63509 10.9618 7.71724L12.1739 11.0506C12.3154 11.4399 12.7458 11.6407 13.135 11.4991C13.5243 11.3576 13.7251 10.9272 13.5836 10.538L12.4166 7.32881L12.4166 3.21094H12.5C12.9142 3.21094 13.2499 2.87515 13.2499 2.46094C13.2499 2.04672 12.9142 1.71094 12.5 1.71094H7.49995ZM14 14.0835C14 13.6693 13.6642 13.3335 13.25 13.3335C12.8358 13.3335 12.5 13.6693 12.5 14.0835V18.2502C12.5 18.6644 12.8358 19.0002 13.25 19.0002C13.6642 19.0002 14 18.6644 14 18.2502V14.0835ZM17.3333 14.0835C17.3333 13.6693 16.9975 13.3335 16.5833 13.3335C16.1691 13.3335 15.8333 13.6693 15.8333 14.0835V18.2502C15.8333 18.6644 16.1691 19.0002 16.5833 19.0002C16.9975 19.0002 17.3333 18.6644 17.3333 18.2502V14.0835Z"
        clip-rule="evenodd"
      />
</svg>