<svg xmlns="http://www.w3.org/2000/svg" viewBox="0 0 20 20">
<path
        fill-rule="evenodd"
        d="M13.3 2.584a.75.75 0 0 1 .563.219l3.334 3.333a.75.75 0 0 1-1.06 1.061l-2.754-2.753-3.64 4.37a.75.75 0 0 1-.912.19L6.057 7.617 3.933 10.45a.75.75 0 1 1-1.2-.9l2.5-3.333a.75.75 0 0 1 .935-.221l2.802 1.4 3.787-4.543a.75.75 0 0 1 .542-.269Zm-.008 5a.75.75 0 0 1 .571.219l3.334 3.333c.14.141.22.332.22.53v4.167a.75.75 0 0 1-.75.75H3.332a.75.75 0 0 1-.624-1.166l3.333-5a.75.75 0 0 1 .96-.255l2.79 1.396 2.955-3.693a.75.75 0 0 1 .545-.28Z"
        clip-rule="evenodd"
      />
</svg>