<svg xmlns="http://www.w3.org/2000/svg" viewBox="0 0 20 20">
<path
        fill-rule="evenodd"
        d="M5.303 1.97a.75.75 0 0 1 1.06 0L10 5.606l1.552-1.552.002-.002 1.249-1.249a3.107 3.107 0 0 1 4.394 4.394L14.394 10l3.636 3.636a.75.75 0 0 1 0 1.061l-3.333 3.333a.75.75 0 0 1-1.06 0l-2.084-2.083L10 14.394 6.364 18.03a.75.75 0 0 1-.53.22H2.5a.75.75 0 0 1-.75-.75v-3.333a.75.75 0 0 1 .22-.53L5.606 10 4.053 8.447 1.97 6.364a.75.75 0 0 1 0-1.061L5.303 1.97Zm.341 5.947.72-.72a.75.75 0 1 0-1.061-1.06l-.72.719-1.022-1.023 2.272-2.272L8.94 6.667 6.667 8.939 5.644 7.917Zm-2.394 6.56v2.273h2.273l7.28-7.28 1.553-1.553-2.273-2.273-8.833 8.833Zm9.894-9.894 2.273 2.273.72-.72a1.607 1.607 0 1 0-2.273-2.272l-.72.72Zm.19 6.478-2.273 2.272 1.022 1.023.72-.72a.75.75 0 0 1 1.06 1.061l-.719.72 1.023 1.022 2.272-2.272-3.106-3.106Z"
        clip-rule="evenodd"
      />
</svg>