<svg xmlns="http://www.w3.org/2000/svg" viewBox="0 0 20 20">
<path
        fill-rule="evenodd"
        d="M9.665 3.496a.75.75 0 0 1 .67 0l8.334 4.167a.75.75 0 0 1 .414.67v5a.75.75 0 0 1-1.5 0V9.547l-7.248 3.624a.75.75 0 0 1-.67 0L1.33 9.004a.75.75 0 0 1 0-1.341l8.334-4.167Z"
        clip-rule="evenodd"
      />
      <path
        d="M9.441 14.053 5.335 12l-.357-.183a.5.5 0 0 0-.728.445v1.905c0 .199.079.39.22.53 1.422 1.422 3.506 2.095 5.53 2.095 2.024 0 4.108-.673 5.53-2.095a.75.75 0 0 0 .22-.53V12.26a.5.5 0 0 0-.728-.444l-.357.183-4.106 2.053a1.25 1.25 0 0 1-1.118 0Z"
      />
</svg>