<svg xmlns="http://www.w3.org/2000/svg" viewBox="0 0 20 20">
<path
        fill-rule="evenodd"
        d="M5.022 2.53C6.38 2.021 8.17 1.75 10 1.75c1.83 0 3.62.271 4.977.78.677.254 1.26.572 1.685.957.426.386.754.897.754 1.513v10c0 .616-.328 1.127-.754 1.513-.426.385-1.008.703-1.685.957-1.357.509-3.147.78-4.977.78-1.83 0-3.62-.271-4.978-.78-.677-.254-1.259-.572-1.685-.957-.426-.386-.754-.897-.754-1.513V5c0-.616.328-1.127.754-1.513.426-.385 1.008-.703 1.685-.957Zm-.939 4.51V10c0 .047.023.185.26.4.239.216.633.45 1.206.665 1.144.43 2.745.685 4.45.685 1.706 0 3.308-.256 4.451-.684.573-.215.968-.45 1.206-.665.238-.216.26-.354.26-.401V7.04c-.284.16-.6.303-.939.43-1.357.509-3.147.78-4.977.78-1.83 0-3.62-.271-4.978-.78a6.748 6.748 0 0 1-.939-.43ZM15.916 5c0 .047-.022.185-.26.4-.238.216-.633.45-1.206.666-1.143.428-2.745.684-4.45.684-1.706 0-3.307-.256-4.451-.684-.573-.215-.967-.45-1.205-.665-.238-.216-.261-.354-.261-.401 0-.047.023-.185.26-.4.239-.216.633-.45 1.206-.666 1.144-.428 2.745-.684 4.45-.684 1.706 0 3.308.256 4.451.684.573.215.968.45 1.206.665.238.216.26.354.26.401Zm0 7.04c-.284.16-.6.303-.939.43-1.357.509-3.147.78-4.977.78-1.83 0-3.62-.271-4.978-.78a6.735 6.735 0 0 1-.939-.43V15c0 .047.023.185.26.4.239.216.633.45 1.206.665 1.144.43 2.745.685 4.45.685 1.706 0 3.308-.256 4.451-.684.573-.215.968-.45 1.206-.665.238-.216.26-.354.26-.401v-2.96Z"
        clip-rule="evenodd"
      />
</svg>