<svg xmlns="http://www.w3.org/2000/svg" viewBox="0 0 20 20">
<path
        fill-rule="evenodd"
        d="M6.38 3.047a1.583 1.583 0 1 1 2.24 2.24 1.583 1.583 0 0 1-2.24-2.24Zm5 0a1.584 1.584 0 1 1 2.24 2.24 1.584 1.584 0 0 1-2.24-2.24Zm-5 5.833a1.583 1.583 0 1 1 2.24 2.24 1.583 1.583 0 0 1-2.24-2.24Zm5 0a1.584 1.584 0 1 1 2.24 2.24 1.584 1.584 0 0 1-2.24-2.24Zm-5 5.834a1.583 1.583 0 1 1 2.24 2.238 1.583 1.583 0 0 1-2.24-2.238Zm5 0a1.583 1.583 0 1 1 2.24 2.239 1.583 1.583 0 0 1-2.24-2.24Z"
        clip-rule="evenodd"
      />
</svg>