<svg xmlns="http://www.w3.org/2000/svg" viewBox="0 0 20 20">
<path
        d="M12.933 15.29Zm.095-.076Zm-4.204 1.294a19.195 19.195 0 0 1-.003-.002l.003.002Zm-1.593-1.085Z"
      />
      <path
        fill-rule="evenodd"
        d="M9.757 1.29a.75.75 0 0 1 .486 0l7 2.4a.75.75 0 0 1 .507.71V10c0 2.764-1.997 4.958-3.781 6.386a19.74 19.74 0 0 1-3.566 2.253s-.203.111-.403.111a.98.98 0 0 1-.403-.111s-.136-.066-.236-.117a19.738 19.738 0 0 1-3.33-2.137C4.247 14.959 2.25 12.764 2.25 10V4.4a.75.75 0 0 1 .507-.71l7-2.4ZM10 5a3.25 3.25 0 1 0 0 6.5A3.25 3.25 0 0 0 10 5Zm3.294 9.996a17.92 17.92 0 0 1-.58.463 17.36 17.36 0 0 1-1.486 1.013l-.055.033c-.16.098-.313.188-.455.269l-.625.341-.097.05a15.818 15.818 0 0 1-.721-.391c-.139-.08-.287-.166-.444-.261l-.007-.005-.003-.002A21.527 21.527 0 0 1 8.033 16a17.572 17.572 0 0 1-1.283-.96 12.194 12.194 0 0 1-1.328-1.274l-.016-.017a4.639 4.639 0 0 1 2.651-.832h3.889a4.64 4.64 0 0 1 2.644.827l-.016.019c-.39.439-.824.851-1.28 1.233Z"
        clip-rule="evenodd"
      />
</svg>