<svg xmlns="http://www.w3.org/2000/svg" viewBox="0 0 20 20">
<path
        fill-rule="evenodd"
        d="M9.23 1.875c-.765 0-1.417.552-1.542 1.306l-.149.893c-.017.1-.095.218-.247.29a6.244 6.244 0 0 0-.822.476c-.138.095-.279.104-.374.068l-.85-.318a1.562 1.562 0 0 0-1.901.682l-.768 1.331a1.563 1.563 0 0 0 .36 1.988l.7.576c.079.065.14.191.128.359a6.328 6.328 0 0 0 0 .949c.013.167-.049.293-.128.358l-.7.577a1.562 1.562 0 0 0-.36 1.987l.768 1.331c.382.662 1.186.95 1.901.682l.85-.318c.096-.036.236-.027.375.069.26.178.534.337.82.474.153.074.231.19.248.291l.149.893a1.562 1.562 0 0 0 1.541 1.306h1.537c.764 0 1.415-.552 1.541-1.306l.149-.893c.017-.1.095-.217.247-.29.287-.138.561-.297.822-.476.138-.095.278-.104.374-.069l.85.319a1.56 1.56 0 0 0 1.9-.682l.77-1.331a1.563 1.563 0 0 0-.36-1.988l-.701-.576c-.08-.065-.141-.191-.128-.359a6.317 6.317 0 0 0 0-.949c-.013-.167.049-.293.128-.358l.7-.577c.59-.485.742-1.326.36-1.987l-.768-1.331a1.563 1.563 0 0 0-1.901-.682l-.85.318c-.096.036-.236.027-.375-.068a6.241 6.241 0 0 0-.821-.475c-.152-.074-.23-.19-.247-.291l-.149-.893a1.563 1.563 0 0 0-1.541-1.306H9.229Zm.768 11.25a3.125 3.125 0 1 0 0-6.25 3.125 3.125 0 0 0 0 6.25Z"
        clip-rule="evenodd"
      />
</svg>