<svg xmlns="http://www.w3.org/2000/svg" viewBox="0 0 20 20">
<path
        fill-rule="evenodd"
        d="M10 1.75a8.25 8.25 0 1 0 0 16.5 8.25 8.25 0 0 0 0-16.5Zm.068 3.31a2.917 2.917 0 0 0-2.332 1.153.75.75 0 1 0 1.195.907 1.417 1.417 0 1 1 1.642 2.176 2 2 0 0 0-1.321 1.996.75.75 0 1 0 1.497-.085.499.499 0 0 1 .334-.5l.007-.002.012-.005a2.915 2.915 0 0 0-1.034-5.64Zm-.067 8.232c.483 0 .875.391.875.874v.009a.875.875 0 0 1-1.75 0v-.009c0-.483.391-.875.875-.875Z"
        clip-rule="evenodd"
      />
</svg>