<svg xmlns="http://www.w3.org/2000/svg" viewBox="0 0 20 20">
<path
        fill-rule="evenodd"
        d="M10 2.583a.75.75 0 0 1 .75.75v8.19l2.886-2.887a.75.75 0 0 1 1.06 1.061l-4.166 4.167a.75.75 0 0 1-1.06 0L5.302 9.697a.75.75 0 1 1 1.06-1.06l2.887 2.886v-8.19a.75.75 0 0 1 .75-.75ZM3.333 13.417a.75.75 0 0 1 .75.75v1.666A.917.917 0 0 0 5 16.75h10a.917.917 0 0 0 .916-.917v-1.666a.75.75 0 0 1 1.5 0v1.666A2.417 2.417 0 0 1 15 18.25H5a2.417 2.417 0 0 1-2.417-2.417v-1.666a.75.75 0 0 1 .75-.75Z"
        clip-rule="evenodd"
      />
</svg>