<svg xmlns="http://www.w3.org/2000/svg" viewBox="0 0 20 20">
<path
        fill-rule="evenodd"
        d="M17.894 2.695a.75.75 0 0 1 .356.638v10.834a.75.75 0 0 1-.415.67l-5 2.5a.75.75 0 0 1-.67 0L7.5 15.005l-4.665 2.332a.75.75 0 0 1-1.085-.67V5.833a.75.75 0 0 1 .415-.67l5-2.5a.75.75 0 0 1 .67 0L12.5 4.995l4.665-2.332a.75.75 0 0 1 .73.032ZM11.75 6.297l-3.5-1.75v9.156l3.5 1.75V6.297Zm1.5 9.156 3.5-1.75V4.547l-3.5 1.75v9.156Zm-6.5-1.75V4.547l-3.5 1.75v9.156l3.5-1.75Z"
        clip-rule="evenodd"
      />
</svg>