<svg xmlns="http://www.w3.org/2000/svg" viewBox="0 0 20 20">
<path
        fill-rule="evenodd"
        d="M6.684 3.356a7.496 7.496 0 0 1 4.257-.698 7.5 7.5 0 0 1 6.469 6.405.75.75 0 1 1-1.486.207 6 6 0 0 0-5.175-5.124A5.998 5.998 0 0 0 5.6 5.992a1.583 1.583 0 1 1-1.215-.894 7.496 7.496 0 0 1 2.3-1.742Zm1.018 4.346a3.25 3.25 0 1 1 4.596 4.596 3.25 3.25 0 0 1-4.596-4.596ZM3.23 10.09a.75.75 0 0 1 .846.64A6 6 0 0 0 14.4 14.004a1.583 1.583 0 1 1 1.213.896A7.499 7.499 0 0 1 2.59 10.937a.75.75 0 0 1 .64-.846Z"
        clip-rule="evenodd"
      />
</svg>