<svg xmlns="http://www.w3.org/2000/svg" viewBox="0 0 20 20">
<path
        fill-rule="evenodd"
        d="M4.16667 4.91675C3.92355 4.91675 3.69039 5.01333 3.51849 5.18523C3.34658 5.35714 3.25 5.5903 3.25 5.83341V14.1667C3.25 14.4099 3.34658 14.643 3.51849 14.8149C3.69039 14.9868 3.92355 15.0834 4.16667 15.0834H15.8333C16.0764 15.0834 16.3096 14.9868 16.4815 14.8149C16.6534 14.643 16.75 14.4099 16.75 14.1667V5.83341C16.75 5.5903 16.6534 5.35714 16.4815 5.18523C16.3096 5.01332 16.0764 4.91675 15.8333 4.91675H4.16667ZM2.45783 4.12457C2.91104 3.67136 3.52573 3.41675 4.16667 3.41675H15.8333C16.4743 3.41675 17.089 3.67136 17.5422 4.12457C17.9954 4.57779 18.25 5.19247 18.25 5.83341V14.1667C18.25 14.8077 17.9954 15.4224 17.5422 15.8756C17.089 16.3288 16.4743 16.5834 15.8333 16.5834H4.16667C3.52573 16.5834 2.91104 16.3288 2.45783 15.8756C2.00461 15.4224 1.75 14.8077 1.75 14.1667V5.83341C1.75 5.19248 2.00461 4.57779 2.45783 4.12457ZM5.54632 6.80717C5.82658 6.69109 6.14917 6.75525 6.36366 6.96975L7.5 8.10609L8.63634 6.96975C8.85083 6.75525 9.17342 6.69109 9.45368 6.80717C9.73393 6.92326 9.91667 7.19673 9.91667 7.50008V12.5001C9.91667 12.9143 9.58088 13.2501 9.16667 13.2501C8.75245 13.2501 8.41667 12.9143 8.41667 12.5001V9.31074L8.03033 9.69708C7.88968 9.83773 7.69891 9.91675 7.5 9.91675C7.30109 9.91675 7.11032 9.83773 6.96967 9.69708L6.58333 9.31074V12.5001C6.58333 12.9143 6.24755 13.2501 5.83333 13.2501C5.41912 13.2501 5.08333 12.9143 5.08333 12.5001V7.50008C5.08333 7.19673 5.26606 6.92326 5.54632 6.80717ZM13.3333 6.75008C13.7475 6.75008 14.0833 7.08587 14.0833 7.50008V10.6894L14.4697 10.3031C14.7626 10.0102 15.2374 10.0102 15.5303 10.3031C15.8232 10.596 15.8232 11.0709 15.5303 11.3637L13.8637 13.0304C13.723 13.1711 13.5322 13.2501 13.3333 13.2501C13.1344 13.2501 12.9437 13.1711 12.803 13.0304L11.1363 11.3637C10.8434 11.0709 10.8434 10.596 11.1363 10.3031C11.4292 10.0102 11.9041 10.0102 12.197 10.3031L12.5833 10.6894V7.50008C12.5833 7.08587 12.9191 6.75008 13.3333 6.75008Z"
        clip-rule="evenodd"
      />
</svg>