<svg xmlns="http://www.w3.org/2000/svg" viewBox="0 0 20 20">
<path fill-rule="evenodd" clip-rule="evenodd" d="M14.1388 2.58338C14.7451 2.54333 15.2974 2.80041 15.7159 3.21891C16.1361 3.63915 16.4193 4.21357 16.5635 4.82886C16.5654 4.83686 16.5672 4.8449 16.5688 4.85296L17.4021 9.01962C17.4118 9.06805 17.4167 9.11732 17.4167 9.16671C17.4167 9.80765 17.1621 10.4223 16.7088 10.8756C16.2556 11.3288 15.6409 11.5834 15 11.5834H13.25V15C13.25 15.641 12.9954 16.2557 12.5422 16.7089C12.089 17.1621 11.4743 17.4167 10.8333 17.4167C10.1924 17.4167 9.5777 17.1621 9.12449 16.7089C8.67128 16.2557 8.41667 15.641 8.41667 15V14.1667C8.41667 13.4816 8.1445 12.8245 7.66003 12.34C7.17556 11.8555 6.51848 11.5834 5.83333 11.5834H3.33333C2.91341 11.5834 2.51068 11.4166 2.21375 11.1196C1.91682 10.8227 1.75 10.42 1.75 10V4.16671C1.75 3.74678 1.91681 3.34406 2.21375 3.04712C2.51068 2.75019 2.91341 2.58338 3.33333 2.58338H5C5.41993 2.58338 5.82265 2.75019 6.11959 3.04712C6.19305 3.12059 6.25856 3.20054 6.31554 3.28562C6.88688 2.83309 7.59723 2.58338 8.33333 2.58338H14.1388ZM5.08333 4.16671C5.08333 4.14461 5.07455 4.12341 5.05893 4.10778C5.0433 4.09216 5.0221 4.08338 5 4.08338H3.33333C3.31123 4.08338 3.29004 4.09216 3.27441 4.10778C3.25878 4.12341 3.25 4.14461 3.25 4.16671V10C3.25 10.0221 3.25878 10.0433 3.27441 10.059C3.29004 10.0746 3.31123 10.0834 3.33333 10.0834H5.08333V4.16671ZM6.58333 10.1528V5.83338C6.58333 5.36925 6.76771 4.92413 7.0959 4.59594C7.42409 4.26775 7.8692 4.08338 8.33333 4.08338H14.1667C14.1879 4.08338 14.2091 4.08248 14.2302 4.08068C14.3314 4.07207 14.4807 4.10508 14.6552 4.27957C14.8345 4.45886 15.0045 4.75846 15.1005 5.15996L15.9145 9.23003C15.8993 9.45001 15.8051 9.65797 15.6482 9.81489C15.4763 9.9868 15.2431 10.0834 15 10.0834H12.5C12.0858 10.0834 11.75 10.4192 11.75 10.8334V15C11.75 15.2432 11.6534 15.4763 11.4815 15.6482C11.3096 15.8201 11.0764 15.9167 10.8333 15.9167C10.5902 15.9167 10.3571 15.8201 10.1852 15.6482C10.0132 15.4763 9.91667 15.2432 9.91667 15V14.1667C9.91667 13.0837 9.48646 12.0451 8.72069 11.2794C8.1341 10.6928 7.38741 10.3031 6.58333 10.1528Z" />
</svg>