<svg xmlns="http://www.w3.org/2000/svg" viewBox="0 0 20 20">
<path
        fill-rule="evenodd"
        d="M6.75 2.5a.75.75 0 0 1 1.5 0 .917.917 0 0 0 .917.917.75.75 0 1 1 0 1.5.917.917 0 0 0-.917.916.75.75 0 1 1-1.5 0 .917.917 0 0 0-.917-.916.75.75 0 0 1 0-1.5.917.917 0 0 0 .917-.917Zm7.72-.53a.75.75 0 0 1 1.06 0l2.5 2.5a.75.75 0 0 1 0 1.06l-2.5 2.5-10 10a.75.75 0 0 1-1.06 0l-2.5-2.5a.75.75 0 0 1 0-1.06l10-10 2.5-2.5ZM12.5 6.06 3.56 15 5 16.44l8.94-8.94-1.44-1.44Zm2.5.38L13.56 5 15 3.56 16.44 5 15 6.44Zm.833 3.643a.75.75 0 0 1 .75.75.917.917 0 0 0 .917.917.75.75 0 0 1 0 1.5.917.917 0 0 0-.917.917.75.75 0 0 1-1.5 0 .916.916 0 0 0-.916-.917.75.75 0 0 1 0-1.5.917.917 0 0 0 .916-.917.75.75 0 0 1 .75-.75Z"
        clip-rule="evenodd"
      />
</svg>