<svg xmlns="http://www.w3.org/2000/svg" viewBox="0 0 20 20">
<path
        fill-rule="evenodd"
        d="M15.833 12.583a.75.75 0 0 1 .75.75v1.75h1.75a.75.75 0 0 1 0 1.5h-1.75v1.75a.75.75 0 0 1-1.5 0v-1.75h-1.75a.75.75 0 1 1 0-1.5h1.75v-1.75a.75.75 0 0 1 .75-.75Z"
        clip-rule="evenodd"
      />
      <path
        d="M5.836 13.336a3.14 3.14 0 0 1 2.22-.92h3.889c.387 0 .766.072 1.12.208a.75.75 0 0 0 .537-1.401 4.638 4.638 0 0 0-1.657-.306h-3.89a4.639 4.639 0 0 0-4.638 4.639c0 .199.079.39.22.53l.04.039.087.078c.074.065.18.153.318.256.274.207.677.474 1.208.74 1.064.532 2.636 1.051 4.71 1.051a.75.75 0 0 0 0-1.5c-1.815 0-3.159-.453-4.04-.893a6.441 6.441 0 0 1-1.025-.633c.075-.71.391-1.378.901-1.888Z"
      />
      <path
        fill-rule="evenodd"
        d="M10 3a3.25 3.25 0 1 0 0 6.5A3.25 3.25 0 0 0 10 3Zm0 1.5A1.75 1.75 0 1 0 10 8a1.75 1.75 0 0 0 0-3.5Z"
        clip-rule="evenodd"
      />
</svg>