<svg xmlns="http://www.w3.org/2000/svg" viewBox="0 0 20 20">
<path
        fill-rule="evenodd"
        d="M5.833 3.25a.917.917 0 0 0-.916.917v11.666a.917.917 0 0 0 .916.917h3.75a.75.75 0 0 1 0 1.5h-3.75a2.417 2.417 0 0 1-2.416-2.417V4.167A2.417 2.417 0 0 1 5.833 1.75h5.834a.75.75 0 0 1 .53.22l4.167 4.166c.14.141.22.332.22.53v4.167a.75.75 0 0 1-1.5 0V7.417H12.5a1.583 1.583 0 0 1-1.583-1.584V3.25H5.833Zm7.039 8.547a2.4 2.4 0 0 1 1.565.217l.003.002a2.42 2.42 0 0 1-1.104 4.567.75.75 0 0 1-.005-1.5.919.919 0 0 0 .42-1.735.9.9 0 0 0-1.095.22.75.75 0 1 1-1.145-.968 2.4 2.4 0 0 1 1.36-.803Zm.461 5.661c.484 0 .875.392.875.875v.009a.875.875 0 1 1-1.75 0v-.009c0-.483.392-.875.875-.875Z"
        clip-rule="evenodd"
      />
</svg>