<svg xmlns="http://www.w3.org/2000/svg" viewBox="0 0 20 20">
<path
        fill-rule="evenodd"
        d="M6.843 2.378a8.25 8.25 0 1 1 6.314 15.244A8.25 8.25 0 0 1 6.843 2.378ZM10 3.25a6.75 6.75 0 0 0-5.223 11.025 4.639 4.639 0 0 1 3.28-1.358h3.889a4.64 4.64 0 0 1 3.279 1.357A6.75 6.75 0 0 0 10 3.25Zm4.152 12.072a3.139 3.139 0 0 0-2.206-.905h-3.89a3.14 3.14 0 0 0-2.206.906 6.753 6.753 0 0 0 8.302 0Zm-6.45-9.37a3.25 3.25 0 1 1 4.596 4.596 3.25 3.25 0 0 1-4.596-4.596ZM10 6.5a1.75 1.75 0 1 0 0 3.5 1.75 1.75 0 0 0 0-3.5Z"
        clip-rule="evenodd"
      />
</svg>