<svg xmlns="http://www.w3.org/2000/svg" viewBox="0 0 20 20">
<path
        fill-rule="evenodd"
        d="M10 12.583a.75.75 0 0 1 .75.75v1.036a2.416 2.416 0 0 1 1.547 1.548H17.5a.75.75 0 0 1 0 1.5h-5.203a2.416 2.416 0 0 1-4.594 0H2.5a.75.75 0 0 1 0-1.5h5.203a2.416 2.416 0 0 1 1.547-1.548v-1.036a.75.75 0 0 1 .75-.75Zm0 3.167a.917.917 0 1 0 0 1.833.917.917 0 0 0 0-1.833Z"
        clip-rule="evenodd"
      />
      <path
        d="M8.392 2c-1.605.49-2.882 1.651-3.417 3.147C2.708 5.419.917 7.285.917 9.597c0 2.505 2.1 4.486 4.63 4.49h1.12a.75.75 0 0 0 0-1.5H5.549c-1.757-.003-3.132-1.367-3.132-2.99 0-1.621 1.374-2.984 3.13-2.984a.75.75 0 0 0 .733-.587c.26-1.17 1.2-2.17 2.524-2.583l.053-.016c1.332-.395 2.789-.117 3.82.71 1.033.825 1.473 2.056 1.213 3.226a.75.75 0 0 0 .732.913h.825c1.175 0 2.136.96 2.136 2.155a2.146 2.146 0 0 1-2.137 2.156h-2.113a.75.75 0 0 0 0 1.5h2.113c2.013 0 3.637-1.64 3.637-3.656 0-2.01-1.615-3.646-3.62-3.655.025-1.444-.64-2.83-1.82-3.788l-.05-.04c-1.439-1.14-3.417-1.49-5.201-.947Z"
      />
</svg>