<svg xmlns="http://www.w3.org/2000/svg" viewBox="0 0 20 20">
<path
        fill-rule="evenodd"
        d="M13.942 3.532a.75.75 0 0 1 .8 0l4.825 3.044a.75.75 0 0 1 .35.634v.003a.94.94 0 0 1 0 .024v5.553a.75.75 0 0 1-.35.634l-4.825 3.044a.75.75 0 0 1-.8 0l-4.825-3.044a.75.75 0 0 1-.35-.634V7.21a.75.75 0 0 1 .35-.634l4.825-3.044Zm3.836 3.689-3.436-2.167-3.419 2.156 3.453 2.178 3.402-2.167Zm-2.686 3.49 3.325-2.118v3.783l-3.325 2.098V10.71Zm-1.5-.044L10.267 8.57v3.806l3.325 2.098v-3.807ZM.083 6.703a.75.75 0 0 1 .75-.75h4.825a.75.75 0 1 1 0 1.5H.833a.75.75 0 0 1-.75-.75Zm1.93 3.043a.75.75 0 0 1 .75-.75h2.895a.75.75 0 1 1 0 1.5H2.763a.75.75 0 0 1-.75-.75Zm1.93 3.044a.75.75 0 0 1 .75-.75h.965a.75.75 0 0 1 0 1.5h-.965a.75.75 0 0 1-.75-.75Z"
        clip-rule="evenodd"
      />
</svg>