<svg xmlns="http://www.w3.org/2000/svg" viewBox="0 0 20 20">
<path
        fill-rule="evenodd"
        d="M10.243 1.29a.75.75 0 0 0-.486 0l-7 2.4a.75.75 0 0 0-.507.71V10c0 2.764 1.997 4.958 3.781 6.386a19.739 19.739 0 0 0 3.566 2.253s.203.111.403.111.403-.111.403-.111a18.75 18.75 0 0 0 1.063-.563 19.74 19.74 0 0 0 2.502-1.69c1.785-1.428 3.782-3.622 3.782-6.386V4.4a.75.75 0 0 0-.507-.71l-7-2.4Zm-.604 5.663.486.496.486-.496a2.333 2.333 0 0 1 1.665-.703c.624 0 1.223.253 1.665.703.438.453.684 1.064.684 1.7 0 .637-.246 1.248-.684 1.701l-3.305 3.188a.73.73 0 0 1-1.022 0L6.31 10.354a2.444 2.444 0 0 1-.685-1.7c0-.637.246-1.248.685-1.701a2.333 2.333 0 0 1 1.664-.703c.624 0 1.223.253 1.665.703Z"
        clip-rule="evenodd"
      />
</svg>