<svg xmlns="http://www.w3.org/2000/svg" viewBox="0 0 20 20">
<path
        fill-rule="evenodd"
        d="M10.884 4.88c-.601-.104-1.27-.039-2.037.216-1.42.474-2.306 1.427-2.567 2.596a.75.75 0 0 1-.732.587c-1.757 0-3.131 1.364-3.131 2.985 0 1.623 1.375 2.986 3.13 2.986H9a.75.75 0 1 1 0 1.5H5.548c-2.53 0-4.631-1.982-4.631-4.486 0-2.311 1.79-4.178 4.057-4.45.527-1.489 1.763-2.595 3.4-3.14.941-.315 1.866-.428 2.767-.272.906.158 1.737.58 2.502 1.254 1.162 1.024 1.845 2.348 1.82 3.787a.75.75 0 0 1-.016 1.5h-.825a.75.75 0 0 1-.732-.913c.256-1.151-.16-2.298-1.239-3.25-.586-.516-1.17-.796-1.767-.9Zm1.818 7.822a3.25 3.25 0 0 1 5.064 4.004l1.098 1.097a.75.75 0 1 1-1.06 1.061l-1.098-1.097a3.25 3.25 0 0 1-4.004-5.065ZM15 13.25a1.75 1.75 0 1 0 0 3.5 1.75 1.75 0 0 0 0-3.5Z"
        clip-rule="evenodd"
      />
</svg>