<svg xmlns="http://www.w3.org/2000/svg" viewBox="0 0 20 20">
<path
        d="M7.416 2.5a.75.75 0 1 0-1.5 0v.917H5a2.417 2.417 0 0 0-2.417 2.416v10A2.417 2.417 0 0 0 5 18.25h3.635a.75.75 0 0 0 0-1.5H5a.917.917 0 0 1-.917-.917V8.417h11.833l.043.666v.084a.75.75 0 0 0 1.5 0l-.043-3.334A2.417 2.417 0 0 0 15 3.417h-.917V2.5a.75.75 0 0 0-1.5 0v.917H7.416V2.5Z"
      />
      <path
        fill-rule="evenodd"
        d="M15 10.916a4.083 4.083 0 1 0 0 8.167 4.083 4.083 0 0 0 0-8.167Zm0 1.5a2.583 2.583 0 1 0 0 5.167 2.583 2.583 0 0 0 0-5.167Zm.75 1.33a.75.75 0 0 0-1.5 0V15c0 .199.08.39.22.53l.833.833a.75.75 0 1 0 1.06-1.06l-.613-.614v-.943Z"
        clip-rule="evenodd"
      />
</svg>