<svg xmlns="http://www.w3.org/2000/svg" viewBox="0 0 20 20">
<path
        fill-rule="evenodd"
        d="M6.843 2.378a8.25 8.25 0 1 1 6.315 15.244A8.25 8.25 0 0 1 6.843 2.378Zm2.021 5.425a.75.75 0 0 1 0 1.06L7.728 10l1.136 1.136a.75.75 0 0 1-1.06 1.06L6.136 10.53a.75.75 0 0 1 0-1.06l1.666-1.667a.75.75 0 0 1 1.061 0Zm2.273 0a.75.75 0 0 1 1.06 0l1.667 1.667a.75.75 0 0 1 0 1.06l-1.667 1.667a.75.75 0 0 1-1.06-1.06L12.273 10l-1.136-1.136a.75.75 0 0 1 0-1.061Z"
        clip-rule="evenodd"
      />
</svg>