<svg xmlns="http://www.w3.org/2000/svg" viewBox="0 0 20 20">
<path
        fill-rule="evenodd"
        d="M10 1.75a.75.75 0 0 1 .67.415l2.39 4.775 4.776 2.388a.75.75 0 0 1 0 1.342l-4.776 2.388-2.388 4.776a.75.75 0 0 1-1.342 0L6.941 13.06l-4.776-2.388a.75.75 0 0 1 0-1.342L6.94 6.941l2.388-4.776A.75.75 0 0 1 10 1.75Zm0 2.427L8.17 7.835a.75.75 0 0 1-.335.336L4.177 10l3.658 1.83a.75.75 0 0 1 .336.335L10 15.823l1.83-3.658a.75.75 0 0 1 .335-.336L15.823 10l-3.658-1.83a.75.75 0 0 1-.336-.335L10 4.177Z"
        clip-rule="evenodd"
      />
</svg>