<svg xmlns="http://www.w3.org/2000/svg" viewBox="0 0 20 20">
<path
        fill-rule="evenodd"
        d="M9.757 1.29a.75.75 0 0 1 .486 0l7 2.4a.75.75 0 0 1 .507.71V10c0 2.764-1.997 4.958-3.782 6.386a19.74 19.74 0 0 1-3.565 2.253s-.203.111-.403.111-.403-.111-.403-.111-.136-.066-.237-.117a19.739 19.739 0 0 1-3.33-2.137C4.247 14.958 2.25 12.763 2.25 10V4.4a.75.75 0 0 1 .507-.71l7-2.4ZM8.674 6.8a1.875 1.875 0 1 1 2.214 2.976v2a.888.888 0 0 1-1.777 0v-2A1.874 1.874 0 0 1 8.675 6.8Z"
        clip-rule="evenodd"
      />
</svg>