<svg xmlns="http://www.w3.org/2000/svg" viewBox="0 0 20 20">
<path
        fill-rule="evenodd"
        d="M8.25 3.5c0-.966.784-1.75 1.75-1.75h6c.966 0 1.75.784 1.75 1.75V10a.75.75 0 0 1-1.5 0V3.5a.25.25 0 0 0-.25-.25h-6a.25.25 0 0 0-.25.25v13.25H10a.75.75 0 0 1 0 1.5H4a1.75 1.75 0 0 1-1.75-1.75V8.618c0-.663.374-1.269.967-1.565L8.25 4.536V3.5Zm0 2.714-4.362 2.18a.25.25 0 0 0-.138.224V16.5c0 .138.112.25.25.25h4.25V6.214Zm2.25-.547a.75.75 0 0 1 .75-.75h.5a.75.75 0 0 1 0 1.5h-.5a.75.75 0 0 1-.75-.75Zm3 0a.75.75 0 0 1 .75-.75h.5a.75.75 0 0 1 0 1.5h-.5a.75.75 0 0 1-.75-.75ZM10.5 9a.75.75 0 0 1 .75-.75h.5a.75.75 0 0 1 0 1.5h-.5A.75.75 0 0 1 10.5 9Zm3 0a.75.75 0 0 1 .75-.75h.5a.75.75 0 0 1 0 1.5h-.5A.75.75 0 0 1 13.5 9Zm-8.501 2a.75.75 0 0 1 .75-.75h.5a.75.75 0 0 1 0 1.5h-.5a.75.75 0 0 1-.75-.75Zm10 .333a.75.75 0 0 1 .75.75v.62c.318.103.613.273.865.499l.537-.31a.75.75 0 0 1 .75 1.3l-.537.31a2.42 2.42 0 0 1 0 .996l.538.31a.75.75 0 0 1-.75 1.3l-.537-.31a2.415 2.415 0 0 1-.865.5v.619a.75.75 0 0 1-1.5 0v-.62a2.417 2.417 0 0 1-.864-.498l-.537.309a.75.75 0 0 1-.75-1.3l.536-.308a2.414 2.414 0 0 1 0-1l-.535-.309a.75.75 0 1 1 .75-1.3l.536.31c.251-.226.546-.395.864-.498v-.62a.75.75 0 0 1 .75-.75Zm-.81 3.239a.764.764 0 0 0 .035-.06.922.922 0 0 1 .776-.429.917.917 0 1 1-.81.489ZM5 13.333a.75.75 0 0 1 .75-.75h.5a.75.75 0 0 1 0 1.5h-.5a.75.75 0 0 1-.75-.75Z"
        clip-rule="evenodd"
      />
</svg>