<svg xmlns="http://www.w3.org/2000/svg" viewBox="0 0 20 20">
<path
        fill-rule="evenodd"
        d="M10.595 1.771a.752.752 0 0 0-.275-.015 8.25 8.25 0 0 0-.639 0 .752.752 0 0 0-.276.015 8.25 8.25 0 0 0 0 16.457c.09.022.183.028.276.016a8.289 8.289 0 0 0 .639 0 .75.75 0 0 0 .275-.015 8.25 8.25 0 0 0 0-16.458Zm-2.42 1.73a6.75 6.75 0 0 0-4.09 3.249h2.959c.25-1.121.63-2.211 1.131-3.249Zm.41 3.249c.304-1.22.78-2.394 1.415-3.489a13.417 13.417 0 0 1 1.416 3.489H8.585Zm-1.797 1.5H3.481a6.748 6.748 0 0 0 0 3.5h3.307a14.915 14.915 0 0 1 0-3.5Zm1.512 3.5a13.415 13.415 0 0 1 0-3.5h3.4a13.41 13.41 0 0 1 0 3.5H8.3Zm-1.256 1.5h-2.96a6.749 6.749 0 0 0 4.091 3.249 14.92 14.92 0 0 1-1.131-3.249ZM10 16.738a13.415 13.415 0 0 1-1.415-3.488h2.83A13.417 13.417 0 0 1 10 16.738Zm1.825-.24a6.755 6.755 0 0 0 4.092-3.248h-2.96a14.92 14.92 0 0 1-1.132 3.249Zm1.387-4.748h3.308a6.749 6.749 0 0 0 0-3.5h-3.308a14.914 14.914 0 0 1 0 3.5Zm-.255-5h2.96a6.749 6.749 0 0 0-4.092-3.249 14.92 14.92 0 0 1 1.132 3.249Z"
        clip-rule="evenodd"
      />
</svg>