<svg xmlns="http://www.w3.org/2000/svg" viewBox="0 0 20 20">
<path
        fill-rule="evenodd"
        d="M6.75001 2.46094C6.75001 2.04672 7.0858 1.71094 7.50001 1.71094H12.5C12.9142 1.71094 13.25 2.04672 13.25 2.46094C13.25 2.87515 12.9142 3.21094 12.5 3.21094H12.4167L12.4167 7.32881L13.5836 10.538C13.7252 10.9272 13.5244 11.3576 13.1351 11.4991C12.7458 11.6407 12.3155 11.4399 12.1739 11.0506L10.9618 7.71724C10.932 7.63509 10.9167 7.54835 10.9167 7.46094L10.9167 3.21094H9.08334L9.08334 7.46094C9.08334 7.54835 9.06806 7.63509 9.03819 7.71725L5.76775 16.7109H10C10.4142 16.7109 10.75 17.0467 10.75 17.4609C10.75 17.8752 10.4142 18.2109 10 18.2109H5.41667C5.37109 18.2109 5.32561 18.2068 5.28078 18.1985C5.07773 18.1611 4.88614 18.0771 4.72111 17.953C4.55609 17.8289 4.42213 17.6682 4.32979 17.4835C4.23745 17.2989 4.18927 17.0953 4.18903 16.8888C4.18881 16.6993 4.22898 16.5121 4.30665 16.3397L7.58334 7.32881L7.58334 3.21094H7.50001C7.0858 3.21094 6.75001 2.87515 6.75001 2.46094Z"
        clip-rule="evenodd"
      />
      <path
        fill-rule="evenodd"
        d="M12.5 13.892C12.5 13.4777 12.8358 13.142 13.25 13.142H17.25C17.6642 13.142 18 13.4777 18 13.892V17.892C18 18.3062 17.6642 18.642 17.25 18.642H13.25C12.8358 18.642 12.5 18.3062 12.5 17.892V13.892Z"
        clip-rule="evenodd"
      />
</svg>