<svg xmlns="http://www.w3.org/2000/svg" viewBox="0 0 20 20">
<path
        fill-rule="evenodd"
        d="M3.047 6.38a1.583 1.583 0 1 1 2.239 2.24 1.583 1.583 0 0 1-2.24-2.24Zm5.833 0a1.583 1.583 0 1 1 2.24 2.24 1.583 1.583 0 0 1-2.24-2.24Zm5.833 0a1.584 1.584 0 1 1 2.24 2.24 1.584 1.584 0 0 1-2.24-2.24Zm-11.666 5a1.583 1.583 0 1 1 2.24 2.24 1.583 1.583 0 0 1-2.24-2.24Zm5.833 0a1.584 1.584 0 1 1 2.24 2.24 1.584 1.584 0 0 1-2.24-2.24Zm5.833 0a1.584 1.584 0 1 1 2.24 2.24 1.584 1.584 0 0 1-2.24-2.24Z"
        clip-rule="evenodd"
      />
</svg>