<svg xmlns="http://www.w3.org/2000/svg" viewBox="0 0 20 20">
<path
        fill-rule="evenodd"
        d="M4.125 3.291a2.417 2.417 0 1 1 2.458 4.006v5.406a2.417 2.417 0 0 1 1.548 1.547h4.37a.917.917 0 0 0 .916-.917v-2.356l-1.22 1.22a.75.75 0 0 1-1.06-1.06l2.5-2.5a.75.75 0 0 1 1.06 0l2.5 2.5a.75.75 0 0 1-1.06 1.06l-1.22-1.22v2.356A2.417 2.417 0 0 1 12.5 15.75H8.13a2.417 2.417 0 1 1-3.047-3.047V7.297a2.416 2.416 0 0 1-.958-4.006Zm1.708.792a.917.917 0 1 0 0 1.834.917.917 0 0 0 0-1.834Zm6.137-1.28a.75.75 0 0 1 1.06 0l1.137 1.136 1.136-1.136a.75.75 0 1 1 1.06 1.06L15.228 5l1.137 1.136a.75.75 0 0 1-1.06 1.061l-1.137-1.136-1.137 1.136a.75.75 0 1 1-1.06-1.06L13.106 5 11.97 3.864a.75.75 0 0 1 0-1.061Zm-6.137 11.28a.917.917 0 1 0 0 1.834.917.917 0 0 0 0-1.834Z"
        clip-rule="evenodd"
      />
</svg>