<svg xmlns="http://www.w3.org/2000/svg" viewBox="0 0 20 20">
<path
        fill-rule="evenodd"
        d="M7.5 4.917a.75.75 0 0 1 .75.75V9a.75.75 0 0 1-1.5 0V5.667a.75.75 0 0 1 .75-.75Zm5 1.666a.75.75 0 0 1 .75.75V9a.75.75 0 0 1-1.5 0V7.333a.75.75 0 0 1 .75-.75Zm-2.5.834a.75.75 0 0 1 .75.75V9a.75.75 0 0 1-1.5 0v-.833a.75.75 0 0 1 .75-.75Z"
        clip-rule="evenodd"
      />
      <path
        fill-rule="evenodd"
        d="M3.333 3.25a.083.083 0 0 0-.083.083v8.417h13.5V3.333a.083.083 0 0 0-.083-.083H3.333Zm14.917.083a1.583 1.583 0 0 0-1.583-1.583H3.333A1.583 1.583 0 0 0 1.75 3.333v10a1.583 1.583 0 0 0 1.583 1.583h4.15l-.228 1.834h-.588a.75.75 0 0 0 0 1.5h6.666a.75.75 0 0 0 0-1.5h-.588l-.229-1.834h4.15a1.584 1.584 0 0 0 1.584-1.583v-10Z"
        clip-rule="evenodd"
      />
</svg>