<svg xmlns="http://www.w3.org/2000/svg" viewBox="0 0 20 20">
<path
        fill-rule="evenodd"
        d="M3.463 3.047c.297-.297.7-.464 1.12-.464h10.833A1.583 1.583 0 0 1 17 4.167v1.75h.083A1.583 1.583 0 0 1 18.666 7.5v8.333a1.583 1.583 0 0 1-1.583 1.584h-5a1.584 1.584 0 0 1-1.583-1.584v-.083H2.083a.75.75 0 0 1 0-1.5h.919A1.584 1.584 0 0 1 3 14.167v-10c0-.42.166-.823.463-1.12Zm1.12 11.203H10.5V7.5a1.583 1.583 0 0 1 1.583-1.583H15.5v-1.75a.083.083 0 0 0-.084-.084H4.583a.083.083 0 0 0-.083.084v10a.084.084 0 0 0 .083.083Zm8.421-6.833h-.921A.083.083 0 0 0 12 7.5v8.333a.083.083 0 0 0 .083.084h5a.083.083 0 0 0 .083-.084V7.5a.083.083 0 0 0-.083-.083h-.921a.75.75 0 0 1-.745.833H13.75a.75.75 0 0 1-.746-.833Z"
        clip-rule="evenodd"
      />
      <path
        d="M14.583 13.941a.75.75 0 0 1 .75.75v.009a.75.75 0 0 1-1.5 0v-.009a.75.75 0 0 1 .75-.75Z"
      />
</svg>