<svg xmlns="http://www.w3.org/2000/svg" viewBox="0 0 20 20">
<path
        d="M13.814 6.924a.75.75 0 0 1 .096 1.056l-4.167 5a.75.75 0 0 1-1.107.05l-2.5-2.5a.75.75 0 1 1 1.061-1.06l1.92 1.919 3.64-4.37a.75.75 0 0 1 1.057-.095Z"
      />
      <path
        fill-rule="evenodd"
        d="M10.935 2.519a.75.75 0 0 1 .899-.564 8.252 8.252 0 0 1 0 16.09.75.75 0 0 1-.335-1.462 6.753 6.753 0 0 0 0-13.166.75.75 0 0 1-.564-.898Zm-1.87 0a.75.75 0 0 1-.565.898 6.712 6.712 0 0 0-2.32 1.017.75.75 0 0 1-.85-1.236 8.212 8.212 0 0 1 2.836-1.243.75.75 0 0 1 .898.565ZM3.857 5.612a.75.75 0 0 1 .293 1.02l-.136.246a6.73 6.73 0 0 0-.671 1.998.75.75 0 1 1-1.48-.25 8.23 8.23 0 0 1 .826-2.452l.008-.016.141-.254a.75.75 0 0 1 1.02-.292Zm-1.273 5.753a.75.75 0 0 1 .93.512c.2.693.51 1.349.92 1.943a.75.75 0 1 1-1.237.85 8.215 8.215 0 0 1-1.125-2.376.75.75 0 0 1 .512-.93Zm3.032 4.769a.75.75 0 0 1 1.024-.276c.58.333 1.206.578 1.859.726a.75.75 0 1 1-.332 1.463 8.2 8.2 0 0 1-2.275-.889.75.75 0 0 1-.276-1.024Z"
        clip-rule="evenodd"
      />
</svg>