<svg xmlns="http://www.w3.org/2000/svg" viewBox="0 0 20 20">
<path fill-rule="evenodd" clip-rule="evenodd" d="M15.5226 16.5834L14.0226 15.0834H4.16667C3.92355 15.0834 3.69039 14.9868 3.51849 14.8149C3.34658 14.643 3.25 14.4098 3.25 14.1667V5.83335C3.25 5.59024 3.34658 5.35708 3.51849 5.18517C3.62507 5.07859 3.7552 5.00096 3.89665 4.95736L2.78788 3.84859C2.67067 3.93002 2.56013 4.0222 2.45783 4.12451C2.00461 4.57773 1.75 5.19241 1.75 5.83335V14.1667C1.75 14.8076 2.00461 15.4223 2.45783 15.8755C2.91104 16.3287 3.52573 16.5834 4.16667 16.5834H15.5226ZM5.70103 6.76175C5.64867 6.77113 5.59681 6.7862 5.54632 6.80711C5.26606 6.9232 5.08333 7.19667 5.08333 7.50002V12.5C5.08333 12.9142 5.41912 13.25 5.83333 13.25C6.24755 13.25 6.58333 12.9142 6.58333 12.5V9.31068L6.96967 9.69702C7.11032 9.83767 7.30109 9.91669 7.5 9.91669C7.69891 9.91669 7.88968 9.83767 8.03033 9.69702L8.33332 9.39403L5.70103 6.76175ZM8.41667 9.47738V12.5C8.41667 12.9142 8.75245 13.25 9.16667 13.25C9.58088 13.25 9.91667 12.9142 9.91667 12.5V10.9774L8.41667 9.47738Z" />
      <path fill-rule="evenodd" clip-rule="evenodd" d="M14.402 12.4922L15.5306 11.3637C15.8235 11.0708 15.8235 10.5959 15.5306 10.303C15.2377 10.0101 14.7628 10.0101 14.4699 10.303L14.0836 10.6894V7.50002C14.0836 7.08581 13.7478 6.75002 13.3336 6.75002C12.9194 6.75002 12.5836 7.08581 12.5836 7.50002V10.6738L14.402 12.4922ZM18.2502 14.25C18.2502 14.6642 17.9145 15 17.5002 15C17.086 15 16.7502 14.6642 16.7502 14.25V5.83335C16.7502 5.59024 16.6537 5.35708 16.4818 5.18517C16.3098 5.01326 16.0767 4.91669 15.8336 4.91669H7.72754C7.31332 4.91669 6.97754 4.5809 6.97754 4.16669C6.97754 3.75247 7.31333 3.41669 7.72754 3.41669H15.8336C16.4745 3.41669 17.0892 3.6713 17.5424 4.12451C17.9956 4.57772 18.2502 5.19241 18.2502 5.83335V14.25Z" />
      <path fill-rule="evenodd" clip-rule="evenodd" d="M1.96967 1.96967C2.26256 1.67678 2.73744 1.67678 3.03033 1.96967L18.0303 16.9697C18.3232 17.2626 18.3232 17.7374 18.0303 18.0303C17.7374 18.3232 17.2626 18.3232 16.9697 18.0303L1.96967 3.03033C1.67678 2.73744 1.67678 2.26256 1.96967 1.96967Z" />
</svg>