<svg xmlns="http://www.w3.org/2000/svg" viewBox="0 0 20 20">
<path
        fill-rule="evenodd"
        d="M9.458 6.404a1.03 1.03 0 0 1 1.463.416l.002.002.6 1.214 1.344.194a1.028 1.028 0 0 1 .571 1.756l-.971.944.229 1.33a1.03 1.03 0 0 1-1.493 1.086L10 12.715l-1.204.632a1.03 1.03 0 0 1-1.494-1.078l.001-.008.23-1.333-.97-.942a1.03 1.03 0 0 1 .055-1.527c.147-.123.326-.203.515-.23l1.343-.194.603-1.216a1.03 1.03 0 0 1 .38-.416ZM10 8.339l.354.716a.75.75 0 0 0 .565.41l.787.113-.568.552a.75.75 0 0 0-.217.665l.135.781-.709-.37a.75.75 0 0 0-.696 0l-.707.37.135-.782a.75.75 0 0 0-.217-.665l-.567-.551.786-.114a.75.75 0 0 0 .565-.41L10 8.34Z"
        clip-rule="evenodd"
      />
      <path
        fill-rule="evenodd"
        d="M14.47 1.14a.75.75 0 0 1 1.06 0l2.5 2.5a.75.75 0 0 1 0 1.06l-2.5 2.5a.75.75 0 1 1-1.06-1.06l1.22-1.22H6.258a2.167 2.167 0 0 0-1.5 3.684.75.75 0 0 1-1.07 1.051A3.667 3.667 0 0 1 6.237 3.42h9.453L14.47 2.2a.75.75 0 0 1 0-1.06Zm.783 9.2a.75.75 0 0 1 1.06.01 3.667 3.667 0 0 1-2.549 6.236H6.451a2.416 2.416 0 1 1 .027-1.5h7.265a2.167 2.167 0 0 0 1.5-3.685.75.75 0 0 1 .01-1.06ZM4.167 14.879a.917.917 0 1 0 0 1.834.917.917 0 0 0 0-1.834Z"
        clip-rule="evenodd"
      />
</svg>