<svg xmlns="http://www.w3.org/2000/svg" viewBox="0 0 20 20">
<path
        fill-rule="evenodd"
        d="M6.843 2.378a8.25 8.25 0 1 1 6.314 15.244A8.25 8.25 0 0 1 6.843 2.378ZM10 3.25a6.75 6.75 0 1 0 0 13.5 6.75 6.75 0 0 0 0-13.5ZM8.766 5.362A2.917 2.917 0 1 1 11.1 10.7l-.012.005-.007.002a.5.5 0 0 0-.333.5.75.75 0 1 1-1.498.085 2 2 0 0 1 1.322-1.995A1.417 1.417 0 1 0 8.93 7.12a.75.75 0 1 1-1.195-.907c.273-.36.625-.65 1.03-.851Z"
        clip-rule="evenodd"
      />
      <path
        fill-rule="evenodd"
        d="M10 13.292c.483 0 .875.391.875.875v.008a.875.875 0 0 1-1.75 0v-.008c0-.484.392-.875.875-.875Z"
        clip-rule="evenodd"
      />
</svg>