<svg xmlns="http://www.w3.org/2000/svg" viewBox="0 0 20 20">
<path
        fill-rule="evenodd"
        d="M9.167 3.25a.917.917 0 1 0 0 1.833h1.666a.917.917 0 1 0 0-1.833H9.167Zm-1.71-.792a2.417 2.417 0 0 1 1.71-.708h1.666a2.417 2.417 0 0 1 2.298 1.667h1.036a2.417 2.417 0 0 1 2.416 2.416V10a.75.75 0 0 1-1.5 0V5.833a.916.916 0 0 0-.916-.916H13.13a2.417 2.417 0 0 1-2.298 1.666H9.167a2.417 2.417 0 0 1-2.298-1.666H5.833a.917.917 0 0 0-.916.916v10a.917.917 0 0 0 .916.917h2.5a.75.75 0 0 1 0 1.5h-2.5a2.417 2.417 0 0 1-2.416-2.417v-10a2.417 2.417 0 0 1 2.416-2.416H6.87a2.42 2.42 0 0 1 .589-.96Zm6.057 10.352a.75.75 0 0 1-.015 1.061l-1.59 1.546 1.59 1.545a.75.75 0 1 1-1.046 1.076l-2.143-2.084a.75.75 0 0 1 0-1.075l2.143-2.083a.75.75 0 0 1 1.06.014Zm2.139 0a.75.75 0 0 1 1.06-.014l2.143 2.083a.75.75 0 0 1 0 1.075l-2.143 2.084a.75.75 0 1 1-1.045-1.076l1.59-1.545-1.59-1.546a.75.75 0 0 1-.015-1.06Z"
        clip-rule="evenodd"
      />
</svg>