<svg xmlns="http://www.w3.org/2000/svg" viewBox="0 0 20 20">
<path
        fill-rule="evenodd"
        d="M8.67014 1.8583C10.3672 1.58116 12.1084 1.84119 13.6504 2.60205C15.1924 3.36291 16.4581 4.58657 17.2706 6.10198C18.0832 7.61739 18.4019 9.34882 18.1822 11.0542C18.1293 11.4651 17.7534 11.7552 17.3426 11.7023C16.9318 11.6494 16.6416 11.2735 16.6945 10.8626C16.8742 9.46729 16.6135 8.05067 15.9487 6.81079C15.2839 5.57091 14.2483 4.56974 12.9866 3.94721C11.725 3.32469 10.3004 3.11193 8.9119 3.33868C7.52343 3.56543 6.24051 4.22036 5.24246 5.21191C4.24442 6.20345 3.58113 7.48207 3.34532 8.86903C3.10951 10.256 3.31296 11.682 3.92723 12.9476C4.5415 14.2133 5.53589 15.2554 6.7714 15.9283C8.00691 16.6012 9.4218 16.8712 10.8183 16.7006C11.2294 16.6504 11.6035 16.943 11.6537 17.3542C11.7039 17.7653 11.4113 18.1393 11.0002 18.1896C9.29335 18.3981 7.56405 18.068 6.05397 17.2456C4.5439 16.4232 3.32853 15.1495 2.57776 13.6026C1.82699 12.0556 1.57833 10.3128 1.86654 8.61761C2.15476 6.92244 2.96544 5.35968 4.18527 4.14779C5.40511 2.93589 6.97312 2.13543 8.67014 1.8583ZM10 5.08335C10.4142 5.08335 10.75 5.41914 10.75 5.83335V9.68936L12.197 11.1364C12.4899 11.4293 12.4899 11.9041 12.197 12.197C11.9041 12.4899 11.4293 12.4899 11.1364 12.197L9.46969 10.5304C9.32904 10.3897 9.25002 10.1989 9.25002 10V5.83335C9.25002 5.41914 9.58581 5.08335 10 5.08335ZM13.6364 13.6364C13.9293 13.3435 14.4041 13.3435 14.697 13.6364L16.25 15.1894L17.803 13.6364C18.0959 13.3435 18.5708 13.3435 18.8637 13.6364C19.1566 13.9293 19.1566 14.4041 18.8637 14.697L17.3107 16.25L18.8637 17.803C19.1566 18.0959 19.1566 18.5708 18.8637 18.8637C18.5708 19.1566 18.0959 19.1566 17.803 18.8637L16.25 17.3107L14.697 18.8637C14.4041 19.1566 13.9293 19.1566 13.6364 18.8637C13.3435 18.5708 13.3435 18.0959 13.6364 17.803L15.1894 16.25L13.6364 14.697C13.3435 14.4041 13.3435 13.9293 13.6364 13.6364Z"
        clip-rule="evenodd"
      />
</svg>