<svg xmlns="http://www.w3.org/2000/svg" viewBox="0 0 20 20">
<path d="M6.74995 2.46082C6.74995 2.0466 7.08574 1.71082 7.49995 1.71082H12.4999C12.9142 1.71082 13.2499 2.0466 13.2499 2.46082C13.2499 2.87503 12.9142 3.21082 12.4999 3.21082H12.4166L12.4166 7.32868L13.5836 10.5378C13.7251 10.9271 13.5243 11.3574 13.135 11.499C12.7458 11.6405 12.3154 11.4397 12.1739 11.0505L10.9618 7.71712C10.9319 7.63497 10.9166 7.54823 10.9166 7.46082L10.9166 3.21082H9.08328L9.08328 7.46081C9.08328 7.54823 9.068 7.63497 9.03813 7.71712L5.76769 16.7108H9.99994C10.4142 16.7108 10.7499 17.0466 10.7499 17.4608C10.7499 17.875 10.4142 18.2108 9.99994 18.2108H5.41661C5.37103 18.2108 5.32554 18.2067 5.28072 18.1984C5.07767 18.161 4.88608 18.0769 4.72105 17.9529C4.55602 17.8288 4.42206 17.6681 4.32973 17.4834C4.23739 17.2988 4.18921 17.0952 4.18897 16.8887C4.18874 16.6992 4.22892 16.512 4.30659 16.3396L7.58328 7.32868L7.58328 3.21082H7.49995C7.08574 3.21082 6.74995 2.87503 6.74995 2.46082Z" />
      <path
        fill-rule="evenodd"
        d="M12.8833 12.7955C13.1185 12.6624 13.407 12.666 13.6387 12.805L17.8054 15.305C18.0313 15.4406 18.1695 15.6847 18.1695 15.9482C18.1695 16.2116 18.0313 16.4557 17.8054 16.5913L13.6387 19.0913C13.407 19.2303 13.1185 19.2339 12.8833 19.1008C12.6482 18.9677 12.5029 18.7184 12.5029 18.4482V13.4482C12.5029 13.178 12.6482 12.9286 12.8833 12.7955Z"
        clip-rule="evenodd"
      />
</svg>