<svg xmlns="http://www.w3.org/2000/svg" viewBox="0 0 20 20">
<path
        fill-rule="evenodd"
        d="M17.167 14.165a.083.083 0 0 1-.083.083h-6.667a.083.083 0 0 1-.083-.083v-2.5a.75.75 0 0 0-.22-.53L8.978 9.998l1.136-1.136a.75.75 0 0 0 .22-.53v-2.5a.083.083 0 0 1 .083-.084h6.667a.083.083 0 0 1 .083.084v8.333Zm1.036 1.12c.297-.297.464-.7.464-1.12V5.832a1.583 1.583 0 0 0-1.583-1.584h-6.667a1.583 1.583 0 0 0-1.583 1.584V8.02L7.387 9.468a.75.75 0 0 0 0 1.06l1.447 1.448v2.189a1.583 1.583 0 0 0 1.583 1.583h6.667c.42 0 .822-.166 1.12-.463Zm-2.036-5.287a.75.75 0 0 0-.75-.75h-3.333a.75.75 0 1 0 0 1.5h3.333a.75.75 0 0 0 .75-.75Zm0-2.5a.75.75 0 0 0-.75-.75h-3.333a.75.75 0 1 0 0 1.5h3.333a.75.75 0 0 0 .75-.75Zm-1.667 5a.75.75 0 0 0-.75-.75h-1.666a.75.75 0 1 0 0 1.5h1.666a.75.75 0 0 0 .75-.75Zm-9.04-.79A2.417 2.417 0 0 0 4.5 7.7V3.33a.75.75 0 1 0-1.5 0V7.7a2.417 2.417 0 0 0 0 4.595v4.369a.75.75 0 0 0 1.5 0v-4.37c.358-.116.688-.316.96-.588Zm-.793-1.71a.917.917 0 1 1-1.833 0 .917.917 0 0 1 1.833 0Z"
        clip-rule="evenodd"
      />
</svg>