<svg xmlns="http://www.w3.org/2000/svg" viewBox="0 0 20 20">
<path fill-rule="evenodd" clip-rule="evenodd" d="M5.83333 4.08337C5.59022 4.08337 5.35706 4.17995 5.18515 4.35186C5.01324 4.52377 4.91666 4.75693 4.91666 5.00004V15C4.91666 15.2432 5.01324 15.4763 5.18515 15.6482C5.35706 15.8201 5.59022 15.9167 5.83333 15.9167H8.0125C8.42671 15.9167 8.7625 16.2525 8.7625 16.6667C8.7625 17.0809 8.42671 17.4167 8.0125 17.4167H5.83333C5.19239 17.4167 4.5777 17.1621 4.12449 16.7089C3.67128 16.2557 3.41666 15.641 3.41666 15V5.00004C3.41666 4.3591 3.67128 3.74441 4.12449 3.2912C4.5777 2.83799 5.19239 2.58337 5.83333 2.58337H12.5C13.1409 2.58337 13.7556 2.83799 14.2088 3.2912C14.6621 3.74441 14.9167 4.3591 14.9167 5.00004V11.6667C14.9167 12.0809 14.5809 12.4167 14.1667 12.4167C13.7524 12.4167 13.4167 12.0809 13.4167 11.6667V5.00004C13.4167 4.75693 13.3201 4.52377 13.1482 4.35186C12.9763 4.17995 12.7431 4.08337 12.5 4.08337H5.83333ZM6.75 6.66671C6.75 6.25249 7.08578 5.91671 7.5 5.91671H10.8333C11.2475 5.91671 11.5833 6.25249 11.5833 6.66671C11.5833 7.08092 11.2475 7.41671 10.8333 7.41671H7.5C7.08578 7.41671 6.75 7.08092 6.75 6.66671ZM6.75 10C6.75 9.58583 7.08578 9.25004 7.5 9.25004H9.16666C9.58088 9.25004 9.91666 9.58583 9.91666 10C9.91666 10.4143 9.58088 10.75 9.16666 10.75H7.5C7.08578 10.75 6.75 10.4143 6.75 10ZM17.197 13.6364C17.4899 13.9293 17.4899 14.4041 17.197 14.697L13.8637 18.0304C13.723 18.171 13.5322 18.25 13.3333 18.25C13.1344 18.25 12.9437 18.171 12.803 18.0304L11.1363 16.3637C10.8434 16.0708 10.8434 15.5959 11.1363 15.303C11.4292 15.0102 11.9041 15.0102 12.197 15.303L13.3333 16.4394L16.1363 13.6364C16.4292 13.3435 16.9041 13.3435 17.197 13.6364Z"/>
</svg>