<svg xmlns="http://www.w3.org/2000/svg" viewBox="0 0 20 20">
<path fill-rule="evenodd" clip-rule="evenodd" d="M4.99998 3.25C4.75686 3.25 4.52371 3.34658 4.3518 3.51849C4.17989 3.69039 4.08331 3.92355 4.08331 4.16667V15.8333C4.08331 16.0764 4.17989 16.3096 4.3518 16.4815C4.52371 16.6534 4.75686 16.75 4.99998 16.75H15C15.2431 16.75 15.4763 16.6534 15.6482 16.4815C15.8201 16.3096 15.9166 16.0764 15.9166 15.8333V4.16667C15.9166 3.92355 15.8201 3.69039 15.6482 3.51849C15.4763 3.34658 15.2431 3.25 15 3.25H4.99998ZM3.29114 2.45783C3.74435 2.00461 4.35904 1.75 4.99998 1.75H15C15.6409 1.75 16.2556 2.00461 16.7088 2.45783C17.162 2.91104 17.4166 3.52573 17.4166 4.16667V15.8333C17.4166 16.4743 17.162 17.089 16.7088 17.5422C16.2556 17.9954 15.6409 18.25 15 18.25H4.99998C4.35904 18.25 3.74435 17.9954 3.29114 17.5422C2.83793 17.089 2.58331 16.4743 2.58331 15.8333V4.16667C2.58331 3.52573 2.83793 2.91104 3.29114 2.45783ZM7.49998 6.58333C7.47788 6.58333 7.45668 6.59211 7.44105 6.60774C7.42543 6.62337 7.41665 6.64457 7.41665 6.66667V7.5C7.41665 7.5221 7.42543 7.5433 7.44105 7.55893C7.45668 7.57455 7.47788 7.58333 7.49998 7.58333H12.5C12.5221 7.58333 12.5433 7.57455 12.5589 7.55893C12.5745 7.5433 12.5833 7.5221 12.5833 7.5V6.66667C12.5833 6.64457 12.5745 6.62337 12.5589 6.60774C12.5433 6.59211 12.5221 6.58333 12.5 6.58333H7.49998ZM6.38039 5.54708C6.67733 5.25015 7.08005 5.08333 7.49998 5.08333H12.5C12.9199 5.08333 13.3226 5.25015 13.6196 5.54708C13.9165 5.84401 14.0833 6.24674 14.0833 6.66667V7.5C14.0833 7.91993 13.9165 8.32265 13.6196 8.61959C13.3226 8.91652 12.9199 9.08333 12.5 9.08333H7.49998C7.08005 9.08333 6.67733 8.91652 6.38039 8.61959C6.08346 8.32265 5.91665 7.91993 5.91665 7.5V6.66667C5.91665 6.24674 6.08346 5.84401 6.38039 5.54708ZM6.66665 10.9167C7.08086 10.9167 7.41665 11.2525 7.41665 11.6667V11.675C7.41665 12.0892 7.08086 12.425 6.66665 12.425C6.25243 12.425 5.91665 12.0892 5.91665 11.675V11.6667C5.91665 11.2525 6.25243 10.9167 6.66665 10.9167ZM9.99998 10.9167C10.4142 10.9167 10.75 11.2525 10.75 11.6667V11.675C10.75 12.0892 10.4142 12.425 9.99998 12.425C9.58577 12.425 9.24998 12.0892 9.24998 11.675V11.6667C9.24998 11.2525 9.58577 10.9167 9.99998 10.9167ZM13.3333 10.9167C13.7475 10.9167 14.0833 11.2525 14.0833 11.6667V11.675C14.0833 12.0892 13.7475 12.425 13.3333 12.425C12.9191 12.425 12.5833 12.0892 12.5833 11.675V11.6667C12.5833 11.2525 12.9191 10.9167 13.3333 10.9167ZM6.66665 13.4167C7.08086 13.4167 7.41665 13.7525 7.41665 14.1667V14.175C7.41665 14.5892 7.08086 14.925 6.66665 14.925C6.25243 14.925 5.91665 14.5892 5.91665 14.175V14.1667C5.91665 13.7525 6.25243 13.4167 6.66665 13.4167ZM9.99998 13.4167C10.4142 13.4167 10.75 13.7525 10.75 14.1667V14.175C10.75 14.5892 10.4142 14.925 9.99998 14.925C9.58577 14.925 9.24998 14.5892 9.24998 14.175V14.1667C9.24998 13.7525 9.58577 13.4167 9.99998 13.4167ZM13.3333 13.4167C13.7475 13.4167 14.0833 13.7525 14.0833 14.1667V14.175C14.0833 14.5892 13.7475 14.925 13.3333 14.925C12.9191 14.925 12.5833 14.5892 12.5833 14.175V14.1667C12.5833 13.7525 12.9191 13.4167 13.3333 13.4167Z" />
</svg>