<svg xmlns="http://www.w3.org/2000/svg" viewBox="0 0 20 20">
<path
        fill-rule="evenodd"
        d="M5 4.083A.917.917 0 0 0 4.083 5v7.764c.288-.118.6-.18.917-.18h4.166a.75.75 0 1 1 0 1.5H5a.917.917 0 1 0 0 1.833h4.5a.75.75 0 0 1 0 1.5H5A2.417 2.417 0 0 1 2.583 15V5A2.417 2.417 0 0 1 5 2.583h10a.75.75 0 0 1 .75.75V11a.75.75 0 0 1-1.5 0V4.083H5Zm9.697 9.553a.75.75 0 0 1 0 1.06l-1.137 1.137 1.137 1.137a.75.75 0 1 1-1.061 1.06l-1.667-1.666a.75.75 0 0 1 0-1.061l1.667-1.667a.75.75 0 0 1 1.06 0Zm1.439 0a.75.75 0 0 1 1.06 0l1.667 1.667a.75.75 0 0 1 0 1.06l-1.666 1.667a.75.75 0 0 1-1.061-1.06l1.136-1.137-1.136-1.136a.75.75 0 0 1 0-1.06Z"
        clip-rule="evenodd"
      />
      <path
        d="M5.91 6.667a.75.75 0 0 1 .75-.75h5a.75.75 0 0 1 0 1.5h-5a.75.75 0 0 1-.75-.75Z"
      />
</svg>