<svg xmlns="http://www.w3.org/2000/svg" viewBox="0 0 20 20">
<path
        fill-rule="evenodd"
        d="M10 4.917a1.75 1.75 0 0 0-1.75 1.75v.083h3.5v-.083A1.75 1.75 0 0 0 10 4.917Zm3.25 1.833v-.083a3.25 3.25 0 1 0-6.5 0v.083h-.083a.75.75 0 0 0-.364.094L3.738 5.202a.75.75 0 1 0-.809 1.263l2.57 1.645A5.75 5.75 0 0 0 5.083 10v.083H2.5a.75.75 0 0 0 0 1.5h2.583v.917c0 .446.061.886.178 1.31l-2.312 1.38a.75.75 0 0 0 .769 1.287l2.164-1.291a4.915 4.915 0 0 0 7.595.79c.242-.242.457-.507.641-.79l2.164 1.291a.75.75 0 0 0 .77-1.288l-2.313-1.38a4.91 4.91 0 0 0 .178-1.309v-.917H17.5a.75.75 0 0 0 0-1.5h-2.583V10c0-.014 0-.027-.002-.041a5.748 5.748 0 0 0-.414-1.85l2.57-1.644a.75.75 0 0 0-.809-1.263l-2.566 1.642a.75.75 0 0 0-.363-.094h-.083Zm-6.16 1.5a4.25 4.25 0 0 0-.507 1.772V12.5a3.417 3.417 0 0 0 2.667 3.333v-4.166a.75.75 0 0 1 1.5 0v4.166a3.416 3.416 0 0 0 2.667-3.333v-2.478a4.25 4.25 0 0 0-.506-1.772H7.089Z"
        clip-rule="evenodd"
      />
</svg>