<svg xmlns="http://www.w3.org/2000/svg" viewBox="0 0 20 20">
<path
        fill-rule="evenodd"
        d="M6.75001 2.46094C6.75001 2.04672 7.0858 1.71094 7.50001 1.71094H12.5C12.9142 1.71094 13.25 2.04672 13.25 2.46094C13.25 2.87515 12.9142 3.21094 12.5 3.21094H12.4167L12.4167 7.32881L13.5836 10.538C13.7252 10.9272 13.5244 11.3576 13.1351 11.4991C12.7458 11.6407 12.3155 11.4399 12.1739 11.0506L10.9618 7.71724C10.932 7.63509 10.9167 7.54835 10.9167 7.46094L10.9167 3.21094H9.08334L9.08334 7.46094C9.08334 7.54835 9.06806 7.63509 9.03819 7.71725L5.76775 16.7109L11.9458 16.7335C12.36 16.7335 12.6958 17.0693 12.6958 17.4835C12.6958 17.8978 12.36 18.2335 11.9458 18.2335L5.41667 18.2109C5.37109 18.2109 5.32561 18.2068 5.28078 18.1985C5.07773 18.1611 4.88614 18.0771 4.72111 17.953C4.55609 17.8289 4.42213 17.6682 4.32979 17.4835C4.23745 17.2989 4.18927 17.0953 4.18903 16.8888C4.18881 16.6993 4.22898 16.5121 4.30665 16.3397L7.58334 7.32881L7.58334 3.21094H7.50001C7.0858 3.21094 6.75001 2.87515 6.75001 2.46094Z"
        clip-rule="evenodd"
      />
      <path
        fill-rule="evenodd"
        d="M14.921 12.1335C15.3352 12.1335 15.671 12.4693 15.671 12.8835V15.3835C15.671 15.7978 15.3352 16.1335 14.921 16.1335C14.5067 16.1335 14.171 15.7978 14.171 15.3835V12.8835C14.171 12.4693 14.5067 12.1335 14.921 12.1335ZM14.921 17.1335C15.3352 17.1335 15.671 17.4693 15.671 17.8835V17.8919C15.671 18.3061 15.3352 18.6419 14.921 18.6419C14.5067 18.6419 14.171 18.3061 14.171 17.8919V17.8835C14.171 17.4693 14.5067 17.1335 14.921 17.1335Z"
        clip-rule="evenodd"
      />
</svg>