<svg xmlns="http://www.w3.org/2000/svg" viewBox="0 0 20 20">
<path
        fill-rule="evenodd"
        d="M18.03 1.97a.75.75 0 0 1 0 1.06l-1.573 1.574a3.704 3.704 0 0 1 .607 2.059 3.697 3.697 0 0 1-1.121 2.621l-1.246 1.246a.75.75 0 0 1-1.06 0L9.47 6.364a.75.75 0 0 1 0-1.061l1.246-1.246a3.698 3.698 0 0 1 4.68-.514L16.97 1.97a.75.75 0 0 1 1.06 0ZM8.864 8.636a.75.75 0 0 1 0 1.061l-1.137 1.136 1.44 1.44 1.136-1.137a.75.75 0 0 1 1.06 1.061l-1.136 1.136.303.303a.75.75 0 0 1 0 1.061l-1.246 1.246a3.697 3.697 0 0 1-4.68.514L3.03 18.03a.75.75 0 0 1-1.06-1.06l1.573-1.574a3.696 3.696 0 0 1 .514-4.68L5.303 9.47a.75.75 0 0 1 1.06 0l.304.303 1.136-1.137a.75.75 0 0 1 1.06 0Z"
        clip-rule="evenodd"
      />
</svg>