<svg xmlns="http://www.w3.org/2000/svg" viewBox="0 0 20 20">
<path
        fill-rule="evenodd"
        d="M2.58334 5C2.58334 4.58579 2.91913 4.25 3.33334 4.25H9.16668C9.58089 4.25 9.91668 4.58579 9.91668 5C9.91668 5.41421 9.58089 5.75 9.16668 5.75H3.33334C2.91913 5.75 2.58334 5.41421 2.58334 5ZM14.4697 4.46967C14.7626 4.17678 15.2374 4.17678 15.5303 4.46967L18.0303 6.96967C18.3232 7.26256 18.3232 7.73744 18.0303 8.03033C17.7374 8.32322 17.2626 8.32322 16.9697 8.03033L15.75 6.81066V15C15.75 15.4142 15.4142 15.75 15 15.75C14.5858 15.75 14.25 15.4142 14.25 15V6.81066L13.0303 8.03033C12.7374 8.32322 12.2626 8.32322 11.9697 8.03033C11.6768 7.73744 11.6768 7.26256 11.9697 6.96967L14.4697 4.46967ZM2.58334 10C2.58334 9.58579 2.91913 9.25 3.33334 9.25H9.16668C9.58089 9.25 9.91668 9.58579 9.91668 10C9.91668 10.4142 9.58089 10.75 9.16668 10.75H3.33334C2.91913 10.75 2.58334 10.4142 2.58334 10ZM2.58334 15C2.58334 14.5858 2.91913 14.25 3.33334 14.25H10.8333C11.2476 14.25 11.5833 14.5858 11.5833 15C11.5833 15.4142 11.2476 15.75 10.8333 15.75H3.33334C2.91913 15.75 2.58334 15.4142 2.58334 15Z"
        clip-rule="evenodd"
      />
</svg>