<svg xmlns="http://www.w3.org/2000/svg" viewBox="0 0 20 20">
<path
        fill-rule="evenodd"
        d="M10.243 1.29a.75.75 0 0 0-.486 0l-7 2.4a.75.75 0 0 0-.507.71V10c0 2.764 1.997 4.958 3.781 6.386a19.738 19.738 0 0 0 3.63 2.284l.019.008.005.003h.003a.75.75 0 0 0 .625 0l.007-.003.018-.008a7.03 7.03 0 0 0 .302-.148 19.74 19.74 0 0 0 3.329-2.137c1.784-1.427 3.781-3.622 3.781-6.385V4.4a.75.75 0 0 0-.507-.71l-7-2.4ZM10 17.166a18.246 18.246 0 0 0 3.031-1.95c1.716-1.373 3.219-3.179 3.219-5.215V4.936L10 2.793 3.75 4.936V10c0 2.037 1.503 3.842 3.219 5.214A18.248 18.248 0 0 0 10 17.164Z"
        clip-rule="evenodd"
      />
      <path
        d="m9.595 6.836.405.413.405-.413a1.944 1.944 0 0 1 1.387-.586c.52 0 1.02.21 1.388.586.365.377.57.886.57 1.417 0 .53-.205 1.04-.57 1.417l-2.755 2.656a.609.609 0 0 1-.85 0L6.82 9.67a2.037 2.037 0 0 1-.57-1.417c0-.53.205-1.04.57-1.417a1.944 1.944 0 0 1 1.388-.586c.52 0 1.019.21 1.387.586Z"
      />
      <path
        fill-rule="evenodd"
        d="m10 7.25-.405-.414a1.944 1.944 0 0 0-1.387-.586c-.52 0-1.02.21-1.388.586-.365.377-.57.886-.57 1.417 0 .53.205 1.04.57 1.417l2.755 2.656c.24.232.61.232.85 0L13.18 9.67c.365-.377.57-.886.57-1.417 0-.53-.205-1.04-.57-1.417a1.944 1.944 0 0 0-1.388-.586c-.52 0-1.019.21-1.387.586L10 7.249Z"
        clip-rule="evenodd"
      />
</svg>