<svg xmlns="http://www.w3.org/2000/svg" viewBox="0 0 20 20">
<path
        fill-rule="evenodd"
        d="M9.632 1.846a.75.75 0 0 1 .736 0l6.666 3.75a.75.75 0 0 1 .383.654v7.5a.75.75 0 0 1-.383.654l-6.666 3.75a.75.75 0 0 1-.736 0l-6.666-3.75a.75.75 0 0 1-.383-.654v-7.5a.75.75 0 0 1 .383-.654l6.666-3.75ZM4.083 7.532 9.25 10.44v5.779L4.083 13.31V7.532Zm6.667 8.686 5.167-2.907V7.532L10.75 10.44v5.779ZM10 9.139l5.137-2.889-1.912-1.075L8.276 8.17 10 9.14ZM6.775 7.325l4.949-2.995L10 3.36 4.863 6.25l1.912 1.075Z"
        clip-rule="evenodd"
      />
</svg>