<svg xmlns="http://www.w3.org/2000/svg" viewBox="0 0 20 20">
<path
        fill-rule="evenodd"
        d="M2.58334 5C2.58334 4.58579 2.91913 4.25 3.33334 4.25H10.8333C11.2476 4.25 11.5833 4.58579 11.5833 5C11.5833 5.41421 11.2476 5.75 10.8333 5.75H3.33334C2.91913 5.75 2.58334 5.41421 2.58334 5ZM15 4.25C15.4142 4.25 15.75 4.58579 15.75 5V13.1893L16.9697 11.9697C17.2626 11.6768 17.7374 11.6768 18.0303 11.9697C18.3232 12.2626 18.3232 12.7374 18.0303 13.0303L15.5303 15.5303C15.2374 15.8232 14.7626 15.8232 14.4697 15.5303L11.9697 13.0303C11.6768 12.7374 11.6768 12.2626 11.9697 11.9697C12.2626 11.6768 12.7374 11.6768 13.0303 11.9697L14.25 13.1893V5C14.25 4.58579 14.5858 4.25 15 4.25ZM2.58334 10C2.58334 9.58579 2.91913 9.25 3.33334 9.25H9.16668C9.58089 9.25 9.91668 9.58579 9.91668 10C9.91668 10.4142 9.58089 10.75 9.16668 10.75H3.33334C2.91913 10.75 2.58334 10.4142 2.58334 10ZM2.58334 15C2.58334 14.5858 2.91913 14.25 3.33334 14.25H9.16668C9.58089 14.25 9.91668 14.5858 9.91668 15C9.91668 15.4142 9.58089 15.75 9.16668 15.75H3.33334C2.91913 15.75 2.58334 15.4142 2.58334 15Z"
        clip-rule="evenodd"
      />
</svg>