<svg xmlns="http://www.w3.org/2000/svg" viewBox="0 0 20 20">
<path
        fill-rule="evenodd"
        d="M15.53 1.14a.75.75 0 1 0-1.06 1.06l1.22 1.22H6.237a3.667 3.667 0 0 0 0 7.333h1.47a2.417 2.417 0 0 0 4.593 0h1.443a2.167 2.167 0 0 1 0 4.333H6.478a2.429 2.429 0 0 0-.581-.979 2.416 2.416 0 1 0 .554 2.479h7.313a3.667 3.667 0 0 0 0-7.333h-1.462a2.396 2.396 0 0 0-.57-.94 2.417 2.417 0 0 0-4.028.94H6.258a2.167 2.167 0 0 1 0-4.333h9.432l-1.22 1.22a.75.75 0 0 0 1.06 1.06l2.5-2.5a.75.75 0 0 0 0-1.06l-2.5-2.5ZM4.168 14.878a.917.917 0 1 0 0 1.834.917.917 0 0 0 0-1.834Z"
        clip-rule="evenodd"
      />
</svg>