<svg xmlns="http://www.w3.org/2000/svg" viewBox="0 0 20 20">
<path
        fill-rule="evenodd"
        d="M2.946 2.946a4.083 4.083 0 1 1 5.775 5.775 4.083 4.083 0 0 1-5.775-5.775Zm2.137.415A2.583 2.583 0 0 0 4.157 7.8l.926-2.122V3.36Zm1.5 0v1.722h1.722a2.583 2.583 0 0 0-1.722-1.722Zm1.722 3.222h-1.98L5.531 8.4a2.585 2.585 0 0 0 2.773-1.816ZM17.5 9.25a.75.75 0 0 1 .75.75v7.5a.75.75 0 0 1-1.5 0V10a.75.75 0 0 1 .75-.75Zm-6.667.833a.75.75 0 0 1 .75.75V17.5a.75.75 0 0 1-1.5 0v-6.667a.75.75 0 0 1 .75-.75Zm3.334.834a.75.75 0 0 1 .75.75V17.5a.75.75 0 0 1-1.5 0v-5.833a.75.75 0 0 1 .75-.75Zm-6.667 2.5a.75.75 0 0 1 .75.75V17.5a.75.75 0 0 1-1.5 0v-3.333a.75.75 0 0 1 .75-.75Z"
        clip-rule="evenodd"
      />
</svg>