<svg xmlns="http://www.w3.org/2000/svg" viewBox="0 0 20 20">
<path
        fill-rule="evenodd"
        d="M11.762 3.65a.75.75 0 0 1 .885-.584 3.25 3.25 0 0 1 0 6.368.75.75 0 0 1-.3-1.47 1.75 1.75 0 0 0 0-3.429.75.75 0 0 1-.585-.885Zm-6.063.302a3.25 3.25 0 1 1 4.596 4.596A3.25 3.25 0 0 1 5.7 3.952Z"
        clip-rule="evenodd"
      />
      <path
        fill-rule="evenodd"
        d="M5.701 3.952a3.25 3.25 0 1 1 4.596 4.596 3.25 3.25 0 0 1-4.596-4.596Z"
        clip-rule="evenodd"
      />
      <path
        d="m14.233 16.204.088-.08.043-.038c.14-.14.22-.331.22-.53a4.638 4.638 0 0 0-4.64-4.64H6.057l-.138.003a4.639 4.639 0 0 0-4.5 4.636c0 .2.078.39.219.53l.04.04.087.078c.074.065.18.153.318.256.275.207.677.474 1.208.74C4.354 17.73 5.926 18.25 8 18.25c.126 0 .25-.002.372-.006 1.89-.057 3.337-.546 4.336-1.045.53-.266.933-.533 1.208-.74.138-.103.243-.19.317-.255Zm1.587-4.89a.75.75 0 0 0-.607 1.372 3.138 3.138 0 0 1 1.85 2.538 6.842 6.842 0 0 1-1.367.793.75.75 0 1 0 .603 1.373 8.331 8.331 0 0 0 1.511-.853 5.818 5.818 0 0 0 .502-.405l.049-.046a.75.75 0 0 0 .22-.53 4.638 4.638 0 0 0-2.761-4.242Z"
      />
</svg>