<svg xmlns="http://www.w3.org/2000/svg" viewBox="0 0 20 20">
<path fill-rule="evenodd" clip-rule="evenodd" d="M9.83333 2.08331C9.59022 2.08331 9.35706 2.17989 9.18515 2.3518C9.01324 2.52371 8.91667 2.75687 8.91667 2.99998V3.83331C8.91667 4.91628 8.48646 5.95489 7.72069 6.72067C7.1341 7.30726 6.38741 7.69694 5.58333 7.8472V12.1666C5.58333 12.6308 5.76771 13.0759 6.0959 13.4041C6.42409 13.7323 6.8692 13.9166 7.33333 13.9166H13.1667C13.1879 13.9166 13.2091 13.9175 13.2302 13.9193C13.3314 13.928 13.4807 13.8949 13.6552 13.7205C13.8345 13.5412 14.0045 13.2416 14.1005 12.8401L14.9145 8.76999C14.8993 8.55001 14.8051 8.34205 14.6482 8.18513C14.4763 8.01322 14.2431 7.91665 14 7.91665H11.5C11.0858 7.91665 10.75 7.58086 10.75 7.16665V2.99998C10.75 2.75687 10.6534 2.52371 10.4815 2.3518C10.3096 2.17989 10.0764 2.08331 9.83333 2.08331ZM5.31554 14.7144C5.25856 14.7995 5.19305 14.8794 5.11959 14.9529C4.82265 15.2498 4.41992 15.4166 4 15.4166H2.33333C1.91341 15.4166 1.51068 15.2498 1.21375 14.9529C0.916815 14.656 0.75 14.2532 0.75 13.8333V7.99998C0.75 7.58005 0.916815 7.17733 1.21375 6.88039C1.51068 6.58346 1.91341 6.41665 2.33333 6.41665H4.83333C5.51848 6.41665 6.17556 6.14447 6.66003 5.66001C7.1445 5.17554 7.41667 4.51846 7.41667 3.83331V2.99998C7.41667 2.35904 7.67128 1.74435 8.12449 1.29114C8.57771 0.837925 9.19239 0.583313 9.83333 0.583313C10.4743 0.583313 11.089 0.837925 11.5422 1.29114C11.9954 1.74435 12.25 2.35904 12.25 2.99998V6.41665H14C14.6409 6.41665 15.2556 6.67126 15.7088 7.12447C16.1621 7.57768 16.4167 8.19237 16.4167 8.83331C16.4167 8.8827 16.4118 8.93197 16.4021 8.9804L15.5688 13.1471C15.5672 13.1551 15.5654 13.1632 15.5635 13.1712C15.4193 13.7865 15.1361 14.3609 14.7159 14.7811C14.2974 15.1996 13.7451 15.4567 13.1388 15.4166H7.33333C6.59724 15.4166 5.88688 15.1669 5.31554 14.7144ZM4.08333 7.91665H2.33333C2.31123 7.91665 2.29004 7.92543 2.27441 7.94105C2.25878 7.95668 2.25 7.97788 2.25 7.99998V13.8333C2.25 13.8554 2.25878 13.8766 2.27441 13.8922C2.29003 13.9079 2.31123 13.9166 2.33333 13.9166H4C4.0221 13.9166 4.0433 13.9079 4.05893 13.8922C4.07455 13.8766 4.08333 13.8554 4.08333 13.8333V7.91665Z" />
</svg>