<svg xmlns="http://www.w3.org/2000/svg" viewBox="0 0 20 20">
<path
        fill-rule="evenodd"
        d="M3.29 3.291A2.417 2.417 0 0 1 5 2.583h6.666A2.417 2.417 0 0 1 14.083 5v.917H15a2.417 2.417 0 0 1 2.416 2.416V15A2.417 2.417 0 0 1 15 17.417H8.333A2.417 2.417 0 0 1 5.916 15v-.917H5a2.417 2.417 0 0 1-2.417-2.416V5c0-.641.255-1.256.708-1.709ZM7.417 15a.917.917 0 0 0 .917.917H15a.917.917 0 0 0 .916-.917V8.333A.917.917 0 0 0 15 7.417H8.333a.917.917 0 0 0-.917.916V15Zm5.167-9.083h-4.25a2.417 2.417 0 0 0-2.417 2.416v4.25H5a.917.917 0 0 1-.917-.916V5A.917.917 0 0 1 5 4.083h6.666a.917.917 0 0 1 .917.917v.917Z"
        clip-rule="evenodd"
      />
</svg>