<svg xmlns="http://www.w3.org/2000/svg" viewBox="0 0 20 20">
<path
        fill-rule="evenodd"
        d="M7.702 3.952a3.25 3.25 0 1 1 4.596 4.596 3.25 3.25 0 0 1-4.596-4.596ZM10 4.5A1.75 1.75 0 1 0 10 8a1.75 1.75 0 0 0 0-3.5Zm8.03 9.136a.75.75 0 0 1 0 1.061l-3.333 3.333a.75.75 0 0 1-1.06 0l-1.667-1.666a.75.75 0 1 1 1.06-1.061l1.137 1.136 2.803-2.803a.75.75 0 0 1 1.06 0Z"
        clip-rule="evenodd"
      />
      <path
        d="M5.836 13.336a3.14 3.14 0 0 1 2.22-.92h3.889c.387 0 .766.072 1.12.208a.75.75 0 0 0 .537-1.401 4.638 4.638 0 0 0-1.657-.306h-3.89a4.639 4.639 0 0 0-4.638 4.639c0 .199.079.39.22.53l.04.039.087.078c.074.065.18.153.318.256.274.207.677.474 1.208.74 1.064.532 2.636 1.051 4.71 1.051a.75.75 0 0 0 0-1.5c-1.815 0-3.159-.453-4.04-.893a6.441 6.441 0 0 1-1.025-.633c.075-.71.391-1.378.901-1.888Z"
      />
</svg>