<svg xmlns="http://www.w3.org/2000/svg" viewBox="0 0 20 20">
<path
        fill-rule="evenodd"
        d="M6.78 3.22a.75.75 0 0 1 0 1.06L4.697 6.364a.75.75 0 0 1-1.06 0l-1.25-1.25a.75.75 0 1 1 1.06-1.061l.72.72L5.72 3.22a.75.75 0 0 1 1.06 0ZM8.417 5a.75.75 0 0 1 .75-.75h7.5a.75.75 0 1 1 0 1.5h-7.5a.75.75 0 0 1-.75-.75ZM6.78 8.22a.75.75 0 0 1 0 1.06l-2.083 2.084a.75.75 0 0 1-1.06 0l-1.25-1.25a.75.75 0 1 1 1.06-1.061l.72.72L5.72 8.22a.75.75 0 0 1 1.06 0ZM8.417 10a.75.75 0 0 1 .75-.75h7.5a.75.75 0 1 1 0 1.5h-7.5a.75.75 0 0 1-.75-.75ZM6.78 13.22a.75.75 0 0 1 0 1.06l-2.083 2.083a.75.75 0 0 1-1.06 0l-1.25-1.25a.75.75 0 1 1 1.06-1.06l.72.72L5.72 13.22a.75.75 0 0 1 1.06 0ZM8.417 15a.75.75 0 0 1 .75-.75h7.5a.75.75 0 1 1 0 1.5h-7.5a.75.75 0 0 1-.75-.75Z"
        clip-rule="evenodd"
      />
</svg>