<svg xmlns="http://www.w3.org/2000/svg" viewBox="0 0 20 20">
<path 
        fill-rule="evenodd"
        d="M.75 10a.75.75 0 0 1 .75-.75h1a.75.75 0 0 1 0 1.5h-1A.75.75 0 0 1 .75 10Zm4 0a.75.75 0 0 1 .75-.75h1a.75.75 0 0 1 0 1.5h-1a.75.75 0 0 1-.75-.75Zm8 0a.75.75 0 0 1 .75-.75h1a.75.75 0 0 1 0 1.5h-1a.75.75 0 0 1-.75-.75Zm4 0a.75.75 0 0 1 .75-.75h1a.75.75 0 0 1 0 1.5h-1a.75.75 0 0 1-.75-.75Zm-9.49 5.102c-1.274 1.33-2.811 2.315-4.76 2.315a.75.75 0 0 1 0-1.5c1.385 0 2.556-.683 3.677-1.853 1.134-1.183 2.134-2.777 3.187-4.462l.025-.04c1.024-1.637 2.1-3.358 3.35-4.664 1.275-1.33 2.812-2.315 4.761-2.315a.75.75 0 0 1 0 1.5c-1.384 0-2.556.683-3.677 1.853-1.134 1.183-2.135 2.777-3.187 4.461l-.025.04c-1.024 1.638-2.1 3.36-3.35 4.665Z"
        clip-rule="evenodd"
      />
</svg>