<svg xmlns="http://www.w3.org/2000/svg" viewBox="0 0 20 20">
<path
        fill-rule="evenodd"
        d="M12.5 4.083a.75.75 0 0 1 0-1.5h4.166a.75.75 0 0 1 .75.75V7.5a.75.75 0 1 1-1.5 0V5.144l-6.22 6.22a.75.75 0 0 1-1.06-1.061l6.22-6.22H12.5Zm-9.21.875A2.417 2.417 0 0 1 5 4.25h5a.75.75 0 1 1 0 1.5H5a.917.917 0 0 0-.917.917V15a.917.917 0 0 0 .917.917h8.333A.917.917 0 0 0 14.25 15v-5a.75.75 0 0 1 1.5 0v5a2.416 2.416 0 0 1-2.417 2.417H5A2.417 2.417 0 0 1 2.583 15V6.667c0-.641.255-1.256.708-1.71Z"
        clip-rule="evenodd"
      />
</svg>