<svg xmlns="http://www.w3.org/2000/svg" viewBox="0 0 20 20">
<path
        fill-rule="evenodd"
        d="M6.75 5a.75.75 0 0 1 .75-.75h9.167a.75.75 0 0 1 0 1.5H7.501A.75.75 0 0 1 6.75 5Zm0 5a.75.75 0 0 1 .75-.75h9.167a.75.75 0 0 1 0 1.5H7.501a.75.75 0 0 1-.75-.75Zm0 5a.75.75 0 0 1 .75-.75h9.167a.75.75 0 1 1 0 1.5H7.501a.75.75 0 0 1-.75-.75ZM4.167 4.125c.483 0 .875.392.875.875v.008a.875.875 0 1 1-1.75 0V5c0-.483.392-.875.875-.875Zm0 5c.483 0 .875.392.875.875v.008a.875.875 0 0 1-1.75 0V10c0-.483.392-.875.875-.875Zm0 5c.483 0 .875.392.875.875v.008a.875.875 0 0 1-1.75 0V15c0-.483.392-.875.875-.875Z"
        clip-rule="evenodd"
      />
</svg>