<svg xmlns="http://www.w3.org/2000/svg" viewBox="0 0 20 20">
<path
        fill-rule="evenodd"
        d="M5.13 5.13a1.583 1.583 0 1 1 2.24 2.24 1.583 1.583 0 0 1-2.24-2.24Z"
        clip-rule="evenodd"
      />
      <path
        fill-rule="evenodd"
        d="M5 1.75A3.25 3.25 0 0 0 1.75 5v4.31c0 .641.255 1.256.708 1.709l6.425 6.425a2.758 2.758 0 0 0 3.9 0l4.66-4.66a2.758 2.758 0 0 0 0-3.901L11.02 2.458a2.417 2.417 0 0 0-1.71-.708H5Zm0 1.5A1.75 1.75 0 0 0 3.25 5v4.31c0 .243.097.476.269.648l6.425 6.425a1.259 1.259 0 0 0 1.779 0l4.66-4.66a1.258 1.258 0 0 0 0-1.78L9.958 3.52a.917.917 0 0 0-.648-.269H5Z"
        clip-rule="evenodd"
      />
</svg>