<svg xmlns="http://www.w3.org/2000/svg" viewBox="0 0 20 20">
<path
        fill-rule="evenodd"
        d="M13.636 1.93a.75.75 0 0 1 1.061 0l3.333 3.334a.75.75 0 0 1 0 1.06L6.364 17.992a.75.75 0 0 1-1.061 0L1.97 14.658a.75.75 0 0 1 0-1.06L13.636 1.93Zm-1.553 3.675.72.72a.75.75 0 0 0 1.06-1.061l-.719-.72 1.023-1.022 2.272 2.272L5.833 16.4l-2.272-2.272 1.022-1.023.72.72a.75.75 0 1 0 1.06-1.061l-.719-.72 1.44-1.44.719.72a.75.75 0 1 0 1.06-1.06l-.719-.72 1.44-1.44.719.72a.75.75 0 0 0 1.06-1.06l-.719-.72 1.44-1.44Zm4.167 7.065a.75.75 0 0 1 .207 1.04l-.889 1.334H17.5a.75.75 0 0 1 .624 1.166l-1.667 2.5a.75.75 0 0 1-1.248-.832l.89-1.334h-1.932a.75.75 0 0 1-.624-1.166l1.666-2.5a.75.75 0 0 1 1.04-.208Z"
        clip-rule="evenodd"
      />
</svg>