<svg xmlns="http://www.w3.org/2000/svg" viewBox="0 0 20 20">
<path
        fill-rule="evenodd"
        d="M8.246 1.922a1.5 1.5 0 0 1 1.67 1.411v5.834a.917.917 0 0 0 .918.916H16.5a1.583 1.583 0 0 1 1.584 1.584.749.749 0 0 1-.02.17 8.25 8.25 0 1 1-9.9-9.9.748.748 0 0 1 .082-.015Zm.17 1.496a6.75 6.75 0 1 0 8.156 8.207.083.083 0 0 0-.072-.041h-5.666a2.417 2.417 0 0 1-2.417-2.417v-5.75Zm3.651-1.113a.75.75 0 0 1 .683-.096 8.25 8.25 0 0 1 5.041 5.042.75.75 0 0 1-.707 1h-3.75a1.584 1.584 0 0 1-1.583-1.584v-3.75a.75.75 0 0 1 .316-.612Z"
        clip-rule="evenodd"
      />
</svg>