<svg xmlns="http://www.w3.org/2000/svg" viewBox="0 0 20 20">
<path
        fill-rule="evenodd"
        d="M10 3.25a.917.917 0 0 0-.917.917.75.75 0 0 1-.43.678 5.083 5.083 0 0 0-2.903 4.34v2.482a.75.75 0 0 1-.006.09 4.084 4.084 0 0 1-.582 1.66H10a.75.75 0 1 1 0 1.5H8.25V15A1.75 1.75 0 0 0 10 16.75a.75.75 0 1 1 0 1.5A3.25 3.25 0 0 1 6.75 15v-.083H3.333a.75.75 0 0 1-.37-1.403 2.583 2.583 0 0 0 1.287-1.895V9.167a6.583 6.583 0 0 1 3.382-5.483 2.417 2.417 0 0 1 4.736 0 6.583 6.583 0 0 1 3.382 5.483v.416a.75.75 0 1 1-1.5 0v-.398a5.083 5.083 0 0 0-2.904-4.34.75.75 0 0 1-.43-.678A.917.917 0 0 0 10 3.25Zm5.834 8.917a.75.75 0 0 1 .75.75v.619c.318.104.613.273.865.5l.536-.31a.75.75 0 0 1 .75 1.298l-.537.31a2.414 2.414 0 0 1 0 .998l.538.31a.75.75 0 0 1-.75 1.3l-.537-.31a2.417 2.417 0 0 1-.865.499v.619a.75.75 0 0 1-1.5 0v-.62a2.418 2.418 0 0 1-.865-.498l-.536.31a.75.75 0 0 1-.75-1.3l.536-.31a2.41 2.41 0 0 1 0-.998l-.536-.31a.75.75 0 1 1 .75-1.299l.536.31c.252-.226.547-.395.865-.499v-.62a.75.75 0 0 1 .75-.75Zm-.805 3.227a.606.606 0 0 0 .022-.038.916.916 0 1 1-.022.038Z"
        clip-rule="evenodd"
      />
</svg>