<svg xmlns="http://www.w3.org/2000/svg" viewBox="0 0 20 20">
<path fill-rule="evenodd" clip-rule="evenodd" d="M6.74378 2.76509C6.82541 2.30646 7.04564 1.88012 7.37955 1.54621C7.80932 1.11644 8.39221 0.875 9 0.875C9.60779 0.875 10.1907 1.11644 10.6205 1.54621C10.9544 1.88017 11.1747 2.30659 11.2563 2.7653C12.1768 3.26544 12.9636 3.98302 13.5467 4.85773C14.1969 5.83291 14.5694 6.96663 14.6243 8.13736C14.6248 8.14712 14.625 8.15689 14.625 8.16667V10.6667C14.625 10.9194 14.4728 11.1473 14.2393 11.244C14.0058 11.3408 13.737 11.2874 13.5582 11.1088L6.34657 3.90295C6.2112 3.7677 6.14526 3.57788 6.16761 3.38783C6.18996 3.19778 6.29814 3.02845 6.4612 2.92829C6.55407 2.87123 6.64829 2.81691 6.74378 2.76509Z" />
<path d="M1.94194 1.05806C1.69786 0.813981 1.30214 0.813981 1.05806 1.05806C0.813981 1.30214 0.813981 1.69786 1.05806 1.94194L4.26845 5.15233C3.73292 6.05726 3.42519 7.08181 3.37569 8.13739C3.37523 8.14714 3.375 8.1569 3.375 8.16667V10.627C3.32013 11.0351 3.17288 11.4255 2.94429 11.7684C2.70909 12.1212 2.39433 12.4139 2.02536 12.6228C1.77837 12.7627 1.65664 13.0514 1.72896 13.3259C1.80128 13.6004 2.04948 13.7917 2.33333 13.7917H12.9078L16.0581 16.9419C16.3021 17.186 16.6979 17.186 16.9419 16.9419C17.186 16.6979 17.186 16.3021 16.9419 16.0581L1.94194 1.05806Z"/>
<path d="M6.70165 16.2981C7.31114 16.9076 8.13779 17.25 8.99975 17.25C9.8617 17.25 10.6884 16.9076 11.2978 16.2981C11.4329 16.1631 11.5548 16.0174 11.6627 15.8631C11.993 15.391 11.5761 14.8339 11 14.8342H7C6.42364 14.8342 6.0068 15.3917 6.33735 15.8639C6.44519 16.0179 6.56689 16.1633 6.70165 16.2981Z" />
</svg>