<svg xmlns="http://www.w3.org/2000/svg" viewBox="0 0 20 20">
<path
        fill-rule="evenodd"
        d="M15 2.5835C15.4142 2.5835 15.75 2.91928 15.75 3.3335C15.75 3.57661 15.8466 3.80977 16.0185 3.98168C16.1904 4.15359 16.4236 4.25016 16.6667 4.25016C17.0809 4.25016 17.4167 4.58595 17.4167 5.00016C17.4167 5.41438 17.0809 5.75016 16.6667 5.75016C16.4236 5.75016 16.1904 5.84674 16.0185 6.01865C15.8466 6.19056 15.75 6.42371 15.75 6.66683C15.75 7.08104 15.4142 7.41683 15 7.41683C14.5858 7.41683 14.25 7.08104 14.25 6.66683C14.25 6.42371 14.1534 6.19056 13.9815 6.01865C13.8096 5.84674 13.5764 5.75016 13.3333 5.75016C12.9191 5.75016 12.5833 5.41438 12.5833 5.00016C12.5833 4.58595 12.9191 4.25016 13.3333 4.25016C13.5764 4.25016 13.8096 4.15359 13.9815 3.98168C14.1534 3.80977 14.25 3.57661 14.25 3.3335C14.25 2.91928 14.5858 2.5835 15 2.5835ZM7.5 4.25016C7.91421 4.25016 8.25 4.58595 8.25 5.00016C8.25 6.12733 8.69777 7.20834 9.4948 8.00537C10.2918 8.8024 11.3728 9.25016 12.5 9.25016C12.9142 9.25016 13.25 9.58595 13.25 10.0002C13.25 10.4144 12.9142 10.7502 12.5 10.7502C11.3728 10.7502 10.2918 11.1979 9.4948 11.995C8.69777 12.792 8.25 13.873 8.25 15.0002C8.25 15.4144 7.91421 15.7502 7.5 15.7502C7.08579 15.7502 6.75 15.4144 6.75 15.0002C6.75 13.873 6.30223 12.792 5.5052 11.995C4.70817 11.1979 3.62717 10.7502 2.5 10.7502C2.08579 10.7502 1.75 10.4144 1.75 10.0002C1.75 9.58595 2.08579 9.25016 2.5 9.25016C3.62717 9.25016 4.70817 8.8024 5.5052 8.00537C6.30223 7.20834 6.75 6.12733 6.75 5.00016C6.75 4.58595 7.08579 4.25016 7.5 4.25016ZM7.5 7.83964C7.24727 8.2847 6.93412 8.69777 6.56586 9.06603C6.19761 9.43428 5.78454 9.74743 5.33948 10.0002C5.78454 10.2529 6.19761 10.566 6.56586 10.9343C6.93412 11.3026 7.24727 11.7156 7.5 12.1607C7.75273 11.7156 8.06588 11.3026 8.43414 10.9343C8.80239 10.566 9.21546 10.2529 9.66052 10.0002C9.21546 9.74743 8.80239 9.43428 8.43414 9.06603C8.06588 8.69777 7.75273 8.2847 7.5 7.83964ZM15 12.5835C15.4142 12.5835 15.75 12.9193 15.75 13.3335C15.75 13.5766 15.8466 13.8098 16.0185 13.9817C16.1904 14.1536 16.4236 14.2502 16.6667 14.2502C17.0809 14.2502 17.4167 14.5859 17.4167 15.0002C17.4167 15.4144 17.0809 15.7502 16.6667 15.7502C16.4236 15.7502 16.1904 15.8467 16.0185 16.0186C15.8466 16.1906 15.75 16.4237 15.75 16.6668C15.75 17.081 15.4142 17.4168 15 17.4168C14.5858 17.4168 14.25 17.081 14.25 16.6668C14.25 16.4237 14.1534 16.1906 13.9815 16.0186C13.8096 15.8467 13.5764 15.7502 13.3333 15.7502C12.9191 15.7502 12.5833 15.4144 12.5833 15.0002C12.5833 14.5859 12.9191 14.2502 13.3333 14.2502C13.5764 14.2502 13.8096 14.1536 13.9815 13.9817C14.1534 13.8098 14.25 13.5766 14.25 13.3335C14.25 12.9193 14.5858 12.5835 15 12.5835Z"
        clip-rule="evenodd"
      />
</svg>