<svg xmlns="http://www.w3.org/2000/svg" viewBox="0 0 20 20">
<path d="M6.74995 2.46088C6.74995 2.04666 7.08574 1.71088 7.49995 1.71088H12.4999C12.9142 1.71088 13.2499 2.04666 13.2499 2.46088C13.2499 2.87509 12.9142 3.21088 12.4999 3.21088H12.4166L12.4166 7.32874L13.5836 10.5379C13.7251 10.9272 13.5243 11.3575 13.135 11.4991C12.7458 11.6406 12.3154 11.4398 12.1739 11.0505L10.9618 7.71718C10.9319 7.63503 10.9166 7.54829 10.9166 7.46088L10.9166 3.21088H9.08328L9.08328 7.46088C9.08328 7.54829 9.068 7.63503 9.03813 7.71718L5.76769 16.7109H9.99994C10.4142 16.7109 10.7499 17.0467 10.7499 17.4609C10.7499 17.8751 10.4142 18.2109 9.99994 18.2109H5.41661C5.37103 18.2109 5.32554 18.2067 5.28072 18.1985C5.07767 18.1611 4.88608 18.077 4.72105 17.9529C4.55602 17.8289 4.42206 17.6682 4.32973 17.4835C4.23739 17.2988 4.18921 17.0952 4.18897 16.8888C4.18874 16.6992 4.22892 16.5121 4.30659 16.3396L7.58328 7.32874L7.58328 3.21088H7.49995C7.08574 3.21088 6.74995 2.87509 6.74995 2.46088Z" />
      <path
        fill-rule="evenodd"
        d="M12.2984 13.2387C12.5913 12.9458 13.0662 12.9458 13.3591 13.2387L14.9121 14.7917L16.4651 13.2387C16.758 12.9458 17.2328 12.9458 17.5257 13.2387C17.8186 13.5315 17.8186 14.0064 17.5257 14.2993L15.9727 15.8523L17.5257 17.4053C17.8186 17.6982 17.8186 18.1731 17.5257 18.466C17.2328 18.7589 16.758 18.7589 16.4651 18.466L14.9121 16.913L13.3591 18.466C13.0662 18.7589 12.5913 18.7589 12.2984 18.466C12.0055 18.1731 12.0055 17.6982 12.2984 17.4053L13.8514 15.8523L12.2984 14.2993C12.0055 14.0064 12.0055 13.5315 12.2984 13.2387Z"
        clip-rule="evenodd"
      />
</svg>