<svg xmlns="http://www.w3.org/2000/svg" viewBox="0 0 20 20">
<path
        fill-rule="evenodd"
        d="M2.458 3.291a2.417 2.417 0 0 1 1.71-.708h11.666A2.417 2.417 0 0 1 18.25 5v10a2.417 2.417 0 0 1-2.416 2.417H4.167A2.417 2.417 0 0 1 1.75 15V5c0-.641.255-1.256.708-1.709Zm2.626 3.376a.75.75 0 0 1 .75-.75h8.333a.75.75 0 0 1 0 1.5H5.834a.75.75 0 0 1-.75-.75Zm0 3.333a.75.75 0 0 1 .75-.75h8.333a.75.75 0 0 1 0 1.5H5.834a.75.75 0 0 1-.75-.75Zm0 3.333a.75.75 0 0 1 .75-.75h4.583a.75.75 0 0 1 0 1.5H5.834a.75.75 0 0 1-.75-.75Z"
        clip-rule="evenodd"
      />
</svg>