<svg xmlns="http://www.w3.org/2000/svg" viewBox="0 0 20 20">
<path
        fill-rule="evenodd"
        d="M9.583 4.917c-.608 0-1.173.208-1.574.551-.397.34-.592.775-.592 1.199a.75.75 0 0 1-1.5 0c0-.903.419-1.74 1.116-2.338.693-.594 1.612-.912 2.55-.912h.834c.938 0 1.857.318 2.55.912.692.593 1.11 1.422 1.116 2.316a3.25 3.25 0 0 1-2.126 3.214c-.321.16-.637.472-.87.939a3.45 3.45 0 0 0-.338 1.67.75.75 0 1 1-1.498.064 4.95 4.95 0 0 1 .494-2.405c.361-.722.912-1.315 1.603-1.64a.741.741 0 0 1 .07-.028 1.75 1.75 0 0 0 1.165-1.792c0-.424-.195-.858-.592-1.199-.4-.343-.966-.551-1.574-.551h-.834ZM10 14.958c.483 0 .875.392.875.875v.009a.875.875 0 0 1-1.75 0v-.009c0-.483.392-.875.875-.875Z"
        clip-rule="evenodd"
      />
</svg>