<svg xmlns="http://www.w3.org/2000/svg" viewBox="0 0 20 20">
<path
        fill-rule="evenodd"
        d="M4.167 4.917a.917.917 0 0 0-.846.562L10 9.932l6.679-4.453a.917.917 0 0 0-.846-.562H4.167ZM16.75 7.235v2.348a.75.75 0 0 0 1.5 0v-3.75a2.417 2.417 0 0 0-2.417-2.416H4.167A2.417 2.417 0 0 0 1.75 5.833v8.334a2.417 2.417 0 0 0 2.417 2.416H12.5a.75.75 0 0 0 0-1.5H4.167a.916.916 0 0 1-.917-.916V7.235l6.334 4.222a.75.75 0 0 0 .832 0l6.334-4.222Zm-1.378 4.562a2.4 2.4 0 0 1 1.565.217l.003.002a2.42 2.42 0 0 1-1.104 4.567.75.75 0 0 1-.005-1.5.919.919 0 0 0 .42-1.735.9.9 0 0 0-1.095.22.75.75 0 1 1-1.145-.968 2.4 2.4 0 0 1 1.36-.803Zm.461 5.661c.484 0 .875.392.875.875v.009a.875.875 0 1 1-1.75 0v-.009c0-.483.392-.875.875-.875Z"
        clip-rule="evenodd"
      />
</svg>