<svg xmlns="http://www.w3.org/2000/svg" viewBox="0 0 20 20">
<path
        fill-rule="evenodd"
        d="M7.5 4.083A.917.917 0 0 0 6.583 5v7.5a.917.917 0 0 0 .917.917h8.333a.917.917 0 0 0 .917-.917V6.667a.917.917 0 0 0-.917-.917h-4.166a.75.75 0 0 1-.53-.22L9.688 4.083H7.5Zm5.917 10.834H7.5A2.416 2.416 0 0 1 5.083 12.5V7.417h-.916a.917.917 0 0 0-.917.916v7.5a.917.917 0 0 0 .917.917H12.5a.917.917 0 0 0 .917-.917v-.916Zm-8.334-9h-.916A2.417 2.417 0 0 0 1.75 8.333v7.5a2.417 2.417 0 0 0 2.417 2.417H12.5a2.417 2.417 0 0 0 2.417-2.417v-.916h.916A2.416 2.416 0 0 0 18.25 12.5V6.667a2.417 2.417 0 0 0-2.417-2.417h-3.856L10.53 2.803a.75.75 0 0 0-.53-.22H7.5A2.417 2.417 0 0 0 5.083 5v.917Z"
        clip-rule="evenodd"
      />
</svg>