<svg xmlns="http://www.w3.org/2000/svg" viewBox="0 0 20 20">
<path
        fill-rule="evenodd"
        d="M16.709 4.124a2.416 2.416 0 1 1-4.006 2.46h-1.036a.917.917 0 0 0-.917.916v5a.917.917 0 0 0 .917.917h1.036a2.416 2.416 0 1 1 0 1.5h-1.036A2.416 2.416 0 0 1 9.25 12.5v-1.75H7.297a2.415 2.415 0 0 1-4.006.959A2.417 2.417 0 1 1 7.297 9.25H9.25V7.5a2.417 2.417 0 0 1 2.417-2.417h1.036a2.416 2.416 0 0 1 4.006-.959Zm-.792 1.71a.917.917 0 1 0-1.834 0 .917.917 0 0 0 1.834 0Zm0 8.333a.917.917 0 1 0-1.834 0 .917.917 0 0 0 1.834 0ZM5.917 10a.917.917 0 1 0-1.834 0 .917.917 0 0 0 1.834 0Z"
        clip-rule="evenodd"
      />
</svg>