<svg xmlns="http://www.w3.org/2000/svg" viewBox="0 0 20 20">
<path
        fill-rule="evenodd"
        d="M13.616 2.966c-1.441-1.155-3.43-1.511-5.224-.965-1.605.489-2.882 1.65-3.416 3.145C2.709 5.418.917 7.286.917 9.597c0 2.504 2.1 4.486 4.63 4.486l.37.001v2.583a.083.083 0 0 1-.083.083H2.5a.75.75 0 0 0 0 1.5h3.334a1.583 1.583 0 0 0 1.583-1.583v-2.58H9.25V17.5a.75.75 0 1 0 1.5 0v-3.414h1.834v2.58a1.584 1.584 0 0 0 1.583 1.584H17.5a.75.75 0 0 0 0-1.5h-3.333a.083.083 0 0 1-.083-.083v-2.58h1.362a3.646 3.646 0 0 0 3.638-3.656c0-2.01-1.616-3.647-3.621-3.655.026-1.455-.649-2.852-1.847-3.81Zm-.938 1.17c-1.04-.832-2.51-1.108-3.85-.7-1.336.407-2.286 1.413-2.548 2.59a.75.75 0 0 1-.732.586c-1.757 0-3.131 1.364-3.131 2.985 0 1.623 1.375 2.986 3.13 2.986h.003l1.117.003h8.779c1.177 0 2.138-.96 2.138-2.155a2.146 2.146 0 0 0-2.137-2.155h-.825a.75.75 0 0 1-.732-.913c.26-1.17-.18-2.401-1.212-3.226Z"
        clip-rule="evenodd"
      />
</svg>