<svg xmlns="http://www.w3.org/2000/svg" viewBox="0 0 20 20">
<path
        fill-rule="evenodd"
        d="M10.75 2.5a.75.75 0 0 0-1.5 0v1.75H6A1.75 1.75 0 0 0 4.25 6v3.13l-1.21.514a.75.75 0 0 0-.456.69 8.693 8.693 0 0 0 1.05 4.187.75.75 0 0 0 1.097.255h.001l.003-.003.027-.018a4.733 4.733 0 0 1 .569-.317c.388-.182.872-.345 1.35-.354.598-.012 1.272.298 1.859.693a7.036 7.036 0 0 1 .915.738l.01.01v.001a.75.75 0 0 0 1.07 0l.001-.001.01-.01.046-.044a7.045 7.045 0 0 1 .869-.694c.587-.395 1.26-.705 1.858-.694.71.014 1.189.19 1.474.341a1.839 1.839 0 0 1 .357.246l.003.003a.75.75 0 0 0 1.209-.142 8.694 8.694 0 0 0 1.055-4.197.75.75 0 0 0-.457-.69l-1.21-.514V6A1.75 1.75 0 0 0 14 4.25h-3.25V2.5Zm-5 5.992L9.707 6.81a.75.75 0 0 1 .587 0l3.956 1.682V6a.25.25 0 0 0-.25-.25H6a.25.25 0 0 0-.25.25v2.492Zm5 1.34 5.006 2.068c.075-.348.123-.705.146-1.076l-5.152-2.19v1.199Zm-1.5 0V8.635L4.1 10.824c.022.37.071.729.146 1.076L9.25 9.833Z"
        clip-rule="evenodd"
      />
      <path
        fill-rule="evenodd"
        d="M6.651 16.583a1.25 1.25 0 0 0-1.041.521 2.749 2.749 0 0 1-2.276 1.146 2.75 2.75 0 0 1-2.276-1.146.75.75 0 1 1 1.218-.875 1.25 1.25 0 0 0 1.073.521 1.251 1.251 0 0 0 1.042-.52 2.75 2.75 0 0 1 2.276-1.147 2.75 2.75 0 0 1 2.276 1.146 1.25 1.25 0 0 0 1.073.521 1.251 1.251 0 0 0 1.042-.52 2.749 2.749 0 0 1 2.276-1.147 2.75 2.75 0 0 1 2.276 1.146 1.25 1.25 0 0 0 1.073.521 1.251 1.251 0 0 0 1.041-.52.75.75 0 0 1 1.219.874 2.75 2.75 0 0 1-2.276 1.146 2.75 2.75 0 0 1-2.276-1.146 1.25 1.25 0 0 0-1.073-.52 1.25 1.25 0 0 0-1.042.52A2.749 2.749 0 0 1 10 18.25a2.75 2.75 0 0 1-2.276-1.146 1.25 1.25 0 0 0-1.073-.52Z"
        clip-rule="evenodd"
      />
</svg>