<svg xmlns="http://www.w3.org/2000/svg" viewBox="0 0 20 20">
<path fill-rule="evenodd" clip-rule="evenodd" d="M4.79191 2.11445C6.47452 1.62852 8.52547 1.62852 10.2081 2.11445C11.052 2.35815 11.7843 2.71834 12.3209 3.183C12.8572 3.64735 13.25 4.26733 13.25 5C13.25 5.73267 12.8572 6.35265 12.3209 6.817C11.7843 7.28166 11.052 7.64185 10.2081 7.88555C8.52547 8.37148 6.47452 8.37148 4.79191 7.88555C4.21737 7.71963 3.69456 7.49972 3.25 7.22961V9.16667C3.25 9.28119 3.28581 9.3951 3.45864 9.55484C3.65475 9.7361 3.97945 9.92769 4.47323 10.1489C4.85126 10.3182 5.02046 10.7619 4.85115 11.1399C4.68184 11.5179 4.23813 11.6871 3.8601 11.5178C3.65131 11.4243 3.44577 11.3254 3.25 11.2183V13.3333C3.25 13.4479 3.28581 13.5618 3.45864 13.7215C3.65475 13.9028 3.97945 14.0944 4.47323 14.3155C4.85126 14.4848 5.02046 14.9285 4.85115 15.3066C4.68184 15.6846 4.23813 15.8538 3.8601 15.6845C3.33055 15.4473 2.82191 15.1756 2.44053 14.8231C2.03586 14.4491 1.75 13.9588 1.75 13.3333V5C1.75 4.26733 2.14276 3.64735 2.67907 3.183C3.21574 2.71834 3.94802 2.35815 4.79191 2.11445ZM3.25 5C3.25 5.16066 3.33391 5.39985 3.66093 5.683C3.9876 5.96584 4.50531 6.24149 5.20809 6.44445C6.61881 6.85185 8.38119 6.85185 9.79191 6.44445C10.4947 6.24149 11.0124 5.96584 11.3391 5.683C11.6661 5.39985 11.75 5.16066 11.75 5C11.75 4.83934 11.6661 4.60015 11.3391 4.317C11.0124 4.03416 10.4947 3.75851 9.79191 3.55555C8.38119 3.14815 6.61881 3.14815 5.20809 3.55555C4.50531 3.75851 3.9876 4.03416 3.66093 4.317C3.33391 4.60015 3.25 4.83934 3.25 5ZM8.62896 9.22803C9.65836 8.71334 11.028 8.41667 12.5 8.41667C13.972 8.41667 15.3416 8.71334 16.371 9.22803C17.3556 9.72032 18.25 10.5392 18.25 11.6667V15C18.25 16.1271 17.3555 16.946 16.3711 17.4383C15.3417 17.9531 13.9721 18.25 12.5 18.25C11.0279 18.25 9.65827 17.9531 8.6289 17.4383C7.64449 16.946 6.75 16.1271 6.75 15V11.6667C6.75 10.5392 7.64438 9.72032 8.62896 9.22803ZM8.25 13.896V15C8.25 15.2529 8.47468 15.684 9.29985 16.0967C10.0801 16.4869 11.2104 16.75 12.5 16.75C13.7896 16.75 14.9199 16.4869 15.7002 16.0967C16.5253 15.684 16.75 15.2529 16.75 15V13.896C16.6264 13.9713 16.4995 14.0411 16.371 14.1053C15.3416 14.62 13.972 14.9167 12.5 14.9167C11.028 14.9167 9.65836 14.62 8.62896 14.1053C8.50051 14.0411 8.3736 13.9713 8.25 13.896ZM16.75 11.6667C16.75 11.92 16.5252 12.3512 15.7002 12.7637C14.92 13.1538 13.7897 13.4167 12.5 13.4167C11.2103 13.4167 10.08 13.1538 9.29979 12.7637C8.47478 12.3512 8.25 11.92 8.25 11.6667C8.25 11.4133 8.47478 10.9822 9.29979 10.5697C10.08 10.1796 11.2103 9.91667 12.5 9.91667C13.7897 9.91667 14.92 10.1796 15.7002 10.5697C16.5252 10.9822 16.75 11.4133 16.75 11.6667Z"/>
</svg>