<svg xmlns="http://www.w3.org/2000/svg" viewBox="0 0 20 20">
<path 
        fill-rule="evenodd" 
        clip-rule="evenodd" 
        d="M2.83329 2.25C2.59018 2.25 2.35702 2.34658 2.18511 2.51849C2.0132 2.69039 1.91663 2.92355 1.91663 3.16667V14.8333C1.91663 15.0764 2.0132 15.3096 2.18511 15.4815C2.35702 15.6534 2.59018 15.75 2.83329 15.75H11.1666C11.4097 15.75 11.6429 15.6534 11.8148 15.4815C11.9867 15.3096 12.0833 15.0764 12.0833 14.8333V6.41667H9.49996C9.08003 6.41667 8.67731 6.24985 8.38037 5.95292C8.08344 5.65599 7.91663 5.25326 7.91663 4.83333V2.25H2.83329ZM9.41663 3.31066L11.0226 4.91667H9.49996C9.47786 4.91667 9.45666 4.90789 9.44103 4.89226C9.42541 4.87663 9.41663 4.85543 9.41663 4.83333V3.31066ZM1.12445 1.45783C1.57766 1.00461 2.19235 0.75 2.83329 0.75H8.66663C8.86554 0.75 9.0563 0.829018 9.19696 0.96967L13.3636 5.13634C13.5043 5.27699 13.5833 5.46775 13.5833 5.66667V14.8333C13.5833 15.4743 13.3287 16.089 12.8755 16.5422C12.4223 16.9954 11.8076 17.25 11.1666 17.25H2.83329C2.19235 17.25 1.57766 16.9954 1.12445 16.5422C0.671238 16.089 0.416626 15.4743 0.416626 14.8333V3.16667C0.416626 2.52573 0.671238 1.91104 1.12445 1.45783ZM6.46963 7.63634C6.76252 7.34344 7.2374 7.34344 7.53029 7.63634L9.61362 9.71967C9.90652 10.0126 9.90652 10.4874 9.61362 10.7803C9.32073 11.0732 8.84586 11.0732 8.55296 10.7803L7.74996 9.97733V13.1667C7.74996 13.5809 7.41417 13.9167 6.99996 13.9167C6.58575 13.9167 6.24996 13.5809 6.24996 13.1667V9.97733L5.44696 10.7803C5.15406 11.0732 4.67919 11.0732 4.3863 10.7803C4.0934 10.4874 4.0934 10.0126 4.3863 9.71967L6.46963 7.63634Z"
      />
</svg>