<svg xmlns="http://www.w3.org/2000/svg" viewBox="0 0 20 20">
<path
        fill-rule="evenodd"
        d="M5 4.083A.917.917 0 0 0 4.083 5v10a.917.917 0 0 0 .917.917h10a.917.917 0 0 0 .917-.917V5A.917.917 0 0 0 15 4.083H5Zm-1.709-.792A2.417 2.417 0 0 1 5 2.583h10A2.417 2.417 0 0 1 17.417 5v10A2.417 2.417 0 0 1 15 17.417H5A2.416 2.416 0 0 1 2.583 15V5c0-.64.255-1.256.708-1.709ZM7 6.25a.75.75 0 0 1 .75.75v6a.75.75 0 0 1-1.5 0V7A.75.75 0 0 1 7 6.25Zm3 1a.75.75 0 0 1 .75.75v4a.75.75 0 0 1-1.5 0V8a.75.75 0 0 1 .75-.75Zm3 1a.75.75 0 0 1 .75.75v2a.75.75 0 0 1-1.5 0V9a.75.75 0 0 1 .75-.75Z"
        clip-rule="evenodd"
      />
</svg>