<svg xmlns="http://www.w3.org/2000/svg" viewBox="0 0 20 20">
<path
        fill-rule="evenodd"
        d="M4.91663 4.50051V10.2286C5.45765 9.96291 6.04692 9.79697 6.65626 9.74374C7.79157 9.64455 8.92609 9.94277 9.86587 10.5874C10.2074 10.8217 10.2944 11.2886 10.0601 11.6301C9.8258 11.9717 9.35896 12.0587 9.01738 11.8244C8.36426 11.3764 7.57581 11.1691 6.7868 11.238C6.09855 11.2982 5.44714 11.5652 4.91663 12.0005V17.5C4.91663 17.9142 4.58084 18.25 4.16663 18.25C3.75241 18.25 3.41663 17.9142 3.41663 17.5V4.16673C3.41663 3.96522 3.49772 3.77219 3.64163 3.63113C4.56069 2.73026 5.79634 2.22566 7.08329 2.22566C8.37024 2.22566 9.60589 2.73026 10.525 3.63113C11.1636 4.25715 12.0223 4.60781 12.9166 4.60781C13.8109 4.60781 14.6696 4.25715 15.3083 3.63113C15.524 3.41974 15.8454 3.35831 16.1238 3.47527C16.4022 3.59223 16.5833 3.86475 16.5833 4.16673V9.16673C16.5833 9.58095 16.2475 9.91673 15.8333 9.91673C15.4191 9.91673 15.0833 9.58095 15.0833 9.16673V5.60466C14.415 5.93271 13.6747 6.10781 12.9166 6.10781C11.6297 6.10781 10.394 5.60321 9.47496 4.70234C8.83629 4.07632 7.97761 3.72566 7.08329 3.72566C6.29017 3.72566 5.52509 4.00145 4.91663 4.50051ZM11.687 12.4892C12.1768 12.0142 12.8326 11.7491 13.5149 11.7504C14.0503 11.7514 14.5688 11.9164 15.003 12.2178C15.4387 11.9174 15.9584 11.754 16.4945 11.755C17.1769 11.7563 17.8319 12.024 18.3198 12.5011C18.5622 12.7377 18.7546 13.0206 18.8858 13.3328C19.017 13.6451 19.0844 13.9805 19.0838 14.3193C19.0832 14.658 19.0148 14.9932 18.8826 15.305C18.7506 15.6163 18.5578 15.898 18.3153 16.1336C18.3149 16.1341 18.3144 16.1345 18.3139 16.135L15.525 18.869C15.2331 19.1551 14.7659 19.1549 14.4744 18.8684L11.6799 16.1231C11.6797 16.123 11.6801 16.1233 11.6799 16.1231C11.4379 15.8865 11.2452 15.6032 11.1142 15.2911C10.9831 14.9788 10.9159 14.6434 10.9165 14.3047C10.9172 13.9659 10.9857 13.6308 11.118 13.3189C11.2504 13.0071 11.4438 12.725 11.687 12.4892ZM13.512 13.2504C13.2206 13.2498 12.9405 13.3631 12.7313 13.566C12.632 13.6623 12.5529 13.7776 12.4988 13.9049C12.4448 14.0323 12.4168 14.1692 12.4165 14.3076C12.4163 14.4459 12.4437 14.583 12.4973 14.7105C12.5508 14.8381 12.6294 14.9537 12.7283 15.0504L12.7297 15.0517L15.0005 17.2826L17.2693 15.0585C17.3686 14.9621 17.4476 14.8469 17.5016 14.7195C17.5556 14.5921 17.5836 14.4552 17.5838 14.3168C17.584 14.1785 17.5565 14.0415 17.5029 13.9139C17.4493 13.7863 17.3707 13.6708 17.2717 13.5741C17.0633 13.3703 16.7832 13.2556 16.4916 13.255C16.2007 13.2544 15.9211 13.3673 15.712 13.5695C15.7115 13.5699 15.7111 13.5704 15.7106 13.5708L15.5272 13.751C15.2349 14.038 14.7665 14.0375 14.4749 13.7498L14.2916 13.569C14.2912 13.5686 14.2909 13.5683 14.2905 13.5679C14.0822 13.3649 13.803 13.251 13.512 13.2504Z"
        clip-rule="evenodd"
      />
</svg>