<svg xmlns="http://www.w3.org/2000/svg" viewBox="0 0 20 20">
<path
        fill-rule="evenodd"
        d="M6.75 2.46a.75.75 0 0 1 .75-.75h5a.75.75 0 0 1 0 1.5h-.083v4.12l1.167 3.209a.75.75 0 1 1-1.41.513l-1.212-3.334a.752.752 0 0 1-.045-.256V3.21H9.083v4.25a.75.75 0 0 1-.045.256l-3.27 8.994H10a.75.75 0 0 1 0 1.5H5.417a.746.746 0 0 1-.136-.012 1.333 1.333 0 0 1-.974-1.86l3.276-9.01V3.21H7.5a.75.75 0 0 1-.75-.75Zm8.666 10.21a.75.75 0 0 1 .208 1.04l-.89 1.334h1.933a.75.75 0 0 1 .624 1.166l-1.667 2.5a.75.75 0 1 1-1.248-.832l.89-1.334h-1.933a.75.75 0 0 1-.624-1.166l1.667-2.5a.75.75 0 0 1 1.04-.208Z"
        clip-rule="evenodd"
      />
</svg>