<svg xmlns="http://www.w3.org/2000/svg" viewBox="0 0 20 20">
<path
        fill-rule="evenodd"
        d="M6.75001 2.46094C6.75001 2.04672 7.0858 1.71094 7.50001 1.71094H12.5C12.9142 1.71094 13.25 2.04672 13.25 2.46094C13.25 2.87515 12.9142 3.21094 12.5 3.21094H12.4167L12.4167 7.32881L13.5836 10.538C13.7252 10.9272 13.5244 11.3576 13.1351 11.4991C12.7458 11.6407 12.3155 11.4399 12.1739 11.0506L10.9618 7.71724C10.932 7.63509 10.9167 7.54835 10.9167 7.46094L10.9167 3.21094H9.08334L9.08334 7.46094C9.08334 7.54835 9.06806 7.63509 9.03819 7.71725L5.76775 16.7109H10C10.4142 16.7109 10.75 17.0467 10.75 17.4609C10.75 17.8752 10.4142 18.2109 10 18.2109H5.41667C5.37109 18.2109 5.32561 18.2068 5.28078 18.1985C5.07773 18.1611 4.88614 18.0771 4.72111 17.953C4.55609 17.8289 4.42213 17.6682 4.32979 17.4835C4.23745 17.2989 4.18927 17.0953 4.18903 16.8888C4.18881 16.6993 4.22898 16.5121 4.30665 16.3397L7.58334 7.32881L7.58334 3.21094H7.50001C7.0858 3.21094 6.75001 2.87515 6.75001 2.46094Z"
        clip-rule="evenodd"
      />
      <path
        fill-rule="evenodd"
        d="M15.3987 13.7615C15.0649 13.6307 14.6875 13.6011 14.3136 13.6969C14.006 13.7761 13.7258 13.9375 13.5029 14.1638C13.28 14.3902 13.1229 14.6729 13.0485 14.9818C12.974 15.2907 12.9851 15.614 13.0804 15.9171C13.1758 16.2201 13.3518 16.4915 13.5897 16.7021C13.8276 16.9128 14.1183 17.0546 14.4307 17.1126C14.743 17.1706 15.0653 17.1424 15.3629 17.0311C15.6605 16.9198 15.9222 16.7296 16.1199 16.4809C16.3776 16.1567 16.8494 16.1028 17.1737 16.3606C17.4979 16.6183 17.5518 17.0901 17.294 17.4144C16.9269 17.8762 16.4409 18.2294 15.8883 18.4361C15.3356 18.6427 14.7372 18.6951 14.157 18.5874C13.5769 18.4798 13.037 18.2163 12.5953 17.8252C12.1536 17.434 11.8266 16.93 11.6496 16.3672C11.4725 15.8044 11.452 15.204 11.5902 14.6304C11.7284 14.0568 12.0202 13.5317 12.4342 13.1113C12.8482 12.6909 13.3688 12.3911 13.9402 12.2442C14.8537 12.0099 15.7899 12.1833 16.5338 12.6673C16.6291 12.3626 16.9136 12.1415 17.2498 12.1415C17.664 12.1415 17.9998 12.4773 17.9998 12.8915V14.4541C17.9998 14.8683 17.664 15.2041 17.2498 15.2041H17.0889C17.0781 15.2043 17.0673 15.2043 17.0566 15.2041H15.6872C15.273 15.2041 14.9372 14.8683 14.9372 14.4541C14.9372 14.1421 15.1277 13.8746 15.3987 13.7615Z"
        clip-rule="evenodd"
      />
</svg>