<svg xmlns="http://www.w3.org/2000/svg" viewBox="0 0 20 20">
<path
        fill-rule="evenodd"
        d="M1.97 1.97a.75.75 0 0 1 1.06 0l11.338 11.336a.747.747 0 0 1 .12.12l3.543 3.543a.75.75 0 0 1-1.06 1.061l-3.199-3.198a8.014 8.014 0 0 1-3.774.918c-3.34-.001-6.051-1.882-8.14-5.364a.75.75 0 0 1 0-.772c.906-1.511 1.93-2.725 3.081-3.615L1.97 3.03a.75.75 0 0 1 0-1.06Zm4.04 5.1c-.935.687-1.814 1.656-2.628 2.93 1.862 2.915 4.07 4.25 6.619 4.25h.004a6.515 6.515 0 0 0 2.644-.541l-1.554-1.554a2.416 2.416 0 0 1-3.25-3.25L6.01 7.07Z"
        clip-rule="evenodd"
      />
      <path
        d="M8.633 5.885c.45-.091.907-.136 1.366-.135H10c2.548 0 4.756 1.334 6.618 4.25-.46.72-.943 1.345-1.445 1.876a.75.75 0 1 0 1.09 1.03 14.56 14.56 0 0 0 1.88-2.52.75.75 0 0 0 0-.772C16.054 6.131 13.343 4.25 10 4.25a8.297 8.297 0 0 0-1.666.165.75.75 0 0 0 .298 1.47Z"
      />
</svg>