<svg xmlns="http://www.w3.org/2000/svg" viewBox="0 0 20 20">
<path
        fill-rule="evenodd"
        d="M5 4.083a1.75 1.75 0 0 0-1.75 1.75v8.334A1.75 1.75 0 0 0 5 15.917h10a1.75 1.75 0 0 0 1.75-1.75V5.833A1.75 1.75 0 0 0 15 4.083H5Zm-2.298-.548A3.25 3.25 0 0 1 5 2.583h10a3.25 3.25 0 0 1 3.25 3.25v8.334a3.25 3.25 0 0 1-3.25 3.25H5a3.25 3.25 0 0 1-3.25-3.25V5.833c0-.862.342-1.688.952-2.298Zm3.51 2.677a1.821 1.821 0 1 1 2.575 2.576 1.821 1.821 0 0 1-2.576-2.576Zm5.538.871a.75.75 0 0 1 .75-.75h1.667a.75.75 0 0 1 0 1.5H12.5a.75.75 0 0 1-.75-.75Zm0 2.917a.75.75 0 0 1 .75-.75h1.667a.75.75 0 0 1 0 1.5H12.5a.75.75 0 0 1-.75-.75Zm0 2.917a.75.75 0 0 1 .75-.75h1.667a.75.75 0 0 1 0 1.5H12.5a.75.75 0 0 1-.75-.75Z"
        clip-rule="evenodd"
      />
      <path
        fill-rule="evenodd"
        d="m10.455 13.16.048-.044.027-.026c.14-.14.22-.332.22-.53a2.417 2.417 0 0 0-2.417-2.417H6.667a2.417 2.417 0 0 0-2.417 2.416c0 .2.079.39.22.53l.075.07a3.67 3.67 0 0 0 .745.488c.508.254 1.247.496 2.21.496.963 0 1.702-.242 2.21-.496.253-.127.448-.255.584-.357.068-.051.121-.096.16-.13Z"
        clip-rule="evenodd"
      />
</svg>