<svg xmlns="http://www.w3.org/2000/svg" viewBox="0 0 20 20">
<path
        fill-rule="evenodd"
        clip-rule="evenodd" 
        d="M17.894 2.695a.75.75 0 0 1 .356.638v7.5a.75.75 0 0 1-1.5 0V4.547l-3.5 1.75V12.5a.75.75 0 0 1-1.5 0V6.297l-3.5-1.75v9.156l1.252.626a.75.75 0 1 1-.67 1.342L7.5 15.005l-4.665 2.332a.75.75 0 0 1-1.085-.67V5.833a.75.75 0 0 1 .415-.67l5-2.5a.75.75 0 0 1 .67 0L12.5 4.994l4.665-2.333a.75.75 0 0 1 .73.033ZM6.75 13.703V4.547l-3.5 1.75v9.156l3.5-1.75Zm7.417 2.736 2.803-2.803a.75.75 0 1 1 1.06 1.061l-3.333 3.333a.75.75 0 0 1-1.06 0l-1.667-1.666a.75.75 0 1 1 1.06-1.061l1.137 1.136Z"
      />
</svg>