<svg xmlns="http://www.w3.org/2000/svg" viewBox="0 0 20 20">
<path
        fill-rule="evenodd"
        d="M9.533 1.763a8.248 8.248 0 0 1 8.666 9.154.75.75 0 0 1-1.49-.167 6.746 6.746 0 0 0-.19-2.5h-3.307a14.914 14.914 0 0 1-.131 4.382.75.75 0 0 1-.739.618H8.584a13.417 13.417 0 0 0 1.628 3.842.75.75 0 0 1-.679 1.145A8.252 8.252 0 0 1 1.75 10a8.25 8.25 0 0 1 7.783-8.237ZM8.3 11.75h3.4a13.41 13.41 0 0 0 0-3.5H8.3a13.416 13.416 0 0 0 0 3.5Zm-1.512-3.5a14.914 14.914 0 0 0 0 3.5H3.48a6.75 6.75 0 0 1 0-3.5h3.307Zm1.796-1.5h2.831A13.415 13.415 0 0 0 10 3.261 13.416 13.416 0 0 0 8.584 6.75Zm3.24-3.249a14.92 14.92 0 0 1 1.133 3.249h2.96a6.749 6.749 0 0 0-4.092-3.249Zm-3.65 0a14.917 14.917 0 0 0-1.13 3.249h-2.96a6.748 6.748 0 0 1 4.09-3.249Zm-4.09 9.749h2.96c.25 1.121.629 2.211 1.13 3.249a6.751 6.751 0 0 1-4.09-3.249Zm13.946.386a.75.75 0 0 1 0 1.061l-3.333 3.333a.75.75 0 0 1-1.06 0l-1.667-1.666a.75.75 0 0 1 1.06-1.061l1.137 1.136 2.803-2.803a.75.75 0 0 1 1.06 0Z"
        clip-rule="evenodd"
      />
</svg>