<svg xmlns="http://www.w3.org/2000/svg" viewBox="0 0 20 20">
<path
        fill-rule="evenodd"
        d="M14.059 2.614a1.5 1.5 0 0 1 1.692 1.488v1.902a3.25 3.25 0 0 1 0 6.325v1.902a1.501 1.501 0 0 1-2.46 1.154l-3.562-2.968h-.645v3.416A1.584 1.584 0 0 1 7.5 17.417h-.833a1.583 1.583 0 0 1-1.583-1.584v-3.416h-1.75a1.583 1.583 0 0 1-1.584-1.584V7.5a1.583 1.583 0 0 1 1.584-1.583h6.395l3.561-2.968a1.5 1.5 0 0 1 .769-.335Zm-7.475 9.803v3.416a.083.083 0 0 0 .083.084H7.5a.083.083 0 0 0 .084-.084v-3.416h-1Zm1-1.5h-4.25a.083.083 0 0 1-.084-.084V7.5a.083.083 0 0 1 .084-.083h4.25v3.5Zm1.5 0H10a.75.75 0 0 1 .48.174l3.77 3.141V4.102l-3.77 3.14a.75.75 0 0 1-.48.175h-.917v3.5Zm6.667-.17a1.748 1.748 0 0 0 .487-2.818 1.75 1.75 0 0 0-.487-.343v3.162Z"
        clip-rule="evenodd"
      />
</svg>