<svg xmlns="http://www.w3.org/2000/svg" viewBox="0 0 20 20">
<path
        fill-rule="evenodd"
        d="M5 4.083a1.75 1.75 0 0 0-1.75 1.75V7.5A1.75 1.75 0 0 0 5 9.25h10a1.75 1.75 0 0 0 1.75-1.75V5.833A1.75 1.75 0 0 0 15 4.083H5ZM17.077 10a3.25 3.25 0 0 0 1.173-2.5V5.833A3.25 3.25 0 0 0 15 2.583H5a3.25 3.25 0 0 0-3.25 3.25V7.5A3.25 3.25 0 0 0 2.924 10a3.246 3.246 0 0 0-1.174 2.5v1.667A3.25 3.25 0 0 0 5 17.417h10a3.25 3.25 0 0 0 3.25-3.25V12.5a3.25 3.25 0 0 0-1.173-2.5ZM5 10.75a1.75 1.75 0 0 0-1.75 1.75v1.667A1.75 1.75 0 0 0 5 15.917h10a1.75 1.75 0 0 0 1.75-1.75V12.5A1.75 1.75 0 0 0 15 10.75H5Zm.834-4.833a.75.75 0 0 1 .75.75v.008a.75.75 0 1 1-1.5 0v-.008a.75.75 0 0 1 .75-.75Zm2.583.75a.75.75 0 0 1 .75-.75h5a.75.75 0 0 1 0 1.5h-5a.75.75 0 0 1-.75-.75Zm-2.583 5.916a.75.75 0 0 1 .75.75v.009a.75.75 0 1 1-1.5 0v-.009a.75.75 0 0 1 .75-.75Zm2.583.75a.75.75 0 0 1 .75-.75h5a.75.75 0 0 1 0 1.5h-5a.75.75 0 0 1-.75-.75Z"
        clip-rule="evenodd"
      />
</svg>