<svg xmlns="http://www.w3.org/2000/svg" viewBox="0 0 20 20">
<path
        fill-rule="evenodd"
        d="M9.167 3.25a.917.917 0 1 0 0 1.833h1.666a.917.917 0 1 0 0-1.833H9.167Zm-1.71-.792a2.417 2.417 0 0 1 1.71-.708h1.666a2.417 2.417 0 0 1 2.298 1.667h1.036a2.417 2.417 0 0 1 2.416 2.416v3.334a.75.75 0 0 1-1.5 0V5.833a.916.916 0 0 0-.916-.916H13.13a2.417 2.417 0 0 1-2.298 1.666H9.167a2.417 2.417 0 0 1-2.298-1.666H5.833a.917.917 0 0 0-.916.916v10a.917.917 0 0 0 .916.917H7.5a.75.75 0 0 1 0 1.5H5.833a2.417 2.417 0 0 1-2.416-2.417v-10a2.417 2.417 0 0 1 2.416-2.416H6.87a2.42 2.42 0 0 1 .589-.96Zm7.464 10.788a1 1 0 0 0-.707.293l-.003.002-2.628 2.605v1.437h1.438l2.605-2.628.002-.002a1 1 0 0 0-.707-1.707Zm-.957-1.31a2.5 2.5 0 0 1 2.726 4.076l-.001.002-2.823 2.847a.75.75 0 0 1-.533.222h-2.5a.75.75 0 0 1-.75-.75v-2.5c0-.2.08-.392.222-.532l2.848-2.823.001-.001a2.5 2.5 0 0 1 .81-.541Z"
        clip-rule="evenodd"
      />
</svg>