<svg xmlns="http://www.w3.org/2000/svg" viewBox="0 0 20 20">
<path
        fill-rule="evenodd"
        d="M10 1.75a.75.75 0 0 1 .75.75v1.75H14c.967 0 1.75.784 1.75 1.75v3.13l1.21.514a.75.75 0 0 1 .457.69 8.694 8.694 0 0 1-1.266 4.57c-.219.368-.464.729-.735 1.085.069.076.133.157.194.24a1.25 1.25 0 0 0 1.073.521 1.251 1.251 0 0 0 1.041-.52.75.75 0 0 1 1.219.874 2.75 2.75 0 0 1-2.276 1.146 2.75 2.75 0 0 1-2.276-1.146 1.25 1.25 0 0 0-1.073-.52 1.249 1.249 0 0 0-1.042.52A2.749 2.749 0 0 1 10 18.25a2.75 2.75 0 0 1-2.276-1.146 1.25 1.25 0 0 0-1.073-.52 1.249 1.249 0 0 0-1.041.52 2.749 2.749 0 0 1-2.276 1.146 2.75 2.75 0 0 1-2.276-1.146.75.75 0 1 1 1.218-.875 1.25 1.25 0 0 0 1.073.521 1.251 1.251 0 0 0 1.042-.52 2.51 2.51 0 0 1 .194-.24 11.437 11.437 0 0 1-.656-.955 9.262 9.262 0 0 1-.89-1.877 8.693 8.693 0 0 1-.455-2.823.75.75 0 0 1 .456-.69l1.21-.515V6c0-.966.784-1.75 1.75-1.75h3.25V2.5a.75.75 0 0 1 .75-.75ZM5.75 8.492 9.707 6.81a.75.75 0 0 1 .587 0l3.956 1.682V6a.25.25 0 0 0-.25-.25H6a.25.25 0 0 0-.25.25v2.492Zm.113 6.699a9.944 9.944 0 0 1-.656-.941 8.209 8.209 0 0 1-.49-.922L10 11.146l5.284 2.182a8.098 8.098 0 0 1-.423.81c-.208.35-.449.7-.723 1.053a2.754 2.754 0 0 0-.804-.108 2.75 2.75 0 0 0-2.276 1.146 1.25 1.25 0 0 1-1.073.521 1.251 1.251 0 0 1-1.042-.52 2.75 2.75 0 0 0-2.276-1.147 2.754 2.754 0 0 0-.804.108Zm9.893-3.29c.075-.348.123-.706.146-1.077l-5.152-2.19v1.199l5.006 2.067ZM9.25 9.832v-1.2L4.1 10.825c.022.37.071.729.146 1.076L9.25 9.833Z"
        clip-rule="evenodd"
      />
</svg>