<svg xmlns="http://www.w3.org/2000/svg" viewBox="0 0 20 20">
<path
        fill-rule="evenodd"
        d="M13.636 13.636a.75.75 0 0 1 1.06 0l1.554 1.553 1.553-1.553a.75.75 0 1 1 1.06 1.06L17.31 16.25l1.553 1.553a.75.75 0 1 1-1.06 1.06l-1.553-1.552-1.553 1.552a.75.75 0 0 1-1.061-1.06l1.553-1.553-1.553-1.553a.75.75 0 0 1 0-1.06Z"
        clip-rule="evenodd"
      />
      <path
        d="M7.416 2.5a.75.75 0 1 0-1.5 0v.917H5a2.417 2.417 0 0 0-2.417 2.416v10A2.417 2.417 0 0 0 5 18.25h5a.75.75 0 1 0 0-1.5H5a.917.917 0 0 1-.917-.917V8.417h11.833V10a.75.75 0 0 0 1.5 0V5.833A2.417 2.417 0 0 0 15 3.417h-.917V2.5a.75.75 0 0 0-1.5 0v.917H7.416V2.5Z"
      />
</svg>