<svg xmlns="http://www.w3.org/2000/svg" viewBox="0 0 20 20">
<path
        fill-rule="evenodd"
        d="M12.958 3.986a5.917 5.917 0 0 0-8.875 5.14v.86c-.063 1.891.18 3.78.72 5.595a.75.75 0 1 1-1.439.427 19.084 19.084 0 0 1-.78-6.06v-.82a7.417 7.417 0 0 1 11.124-6.441.75.75 0 0 1-.75 1.299Zm2.405 1.166a.75.75 0 0 1 1.03.255 7.417 7.417 0 0 1 1.024 4.594v.793a.75.75 0 0 1-1.5 0v-.833a.75.75 0 0 1 .004-.082 5.917 5.917 0 0 0-.813-3.698.75.75 0 0 1 .255-1.029ZM10 6.544a2.583 2.583 0 0 0-2.583 2.584.75.75 0 0 1-1.5 0 4.083 4.083 0 1 1 8.166 0v.833c0 .383.03.763.086 1.138a.75.75 0 0 1-1.483.225 9.084 9.084 0 0 1-.103-1.363v-.833A2.583 2.583 0 0 0 10 6.544Zm0 1.834a.75.75 0 0 1 .75.749l.001.834-.001.834c-.002 1.34.244 2.66.715 3.899a.75.75 0 1 1-1.401.534 12.417 12.417 0 0 1-.814-4.434l.001-.833-.001-.832a.75.75 0 0 1 .75-.751Zm-3.42 3.338a.75.75 0 0 1 .832.658 14.249 14.249 0 0 0 1.425 4.75.75.75 0 0 1-1.34.674 15.75 15.75 0 0 1-1.575-5.25.75.75 0 0 1 .657-.832Zm9.67.954a.75.75 0 0 1 .207 1.04l-.889 1.334H17.5a.75.75 0 0 1 .624 1.166l-1.667 2.5a.75.75 0 1 1-1.248-.832l.89-1.334h-1.932a.75.75 0 0 1-.624-1.166l1.666-2.5a.75.75 0 0 1 1.04-.208Z"
        clip-rule="evenodd"
      />
</svg>