<svg xmlns="http://www.w3.org/2000/svg" viewBox="0 0 20 20">
<path
        fill-rule="evenodd"
        d="M13.349 3.683c.643-.522 1.577-.766 2.9-.766a.75.75 0 0 1 0 1.5c-1.175 0-1.7.224-1.955.431-.247.2-.37.483-.494.98l-.053.223c-.1.434-.237 1.023-.553 1.529-.418.67-1.102 1.159-2.198 1.402a.75.75 0 1 1-.326-1.464c.78-.173 1.085-.465 1.252-.733.172-.275.244-.576.346-1.004l.077-.317c.136-.545.352-1.252 1.004-1.78ZM15.083 7a.75.75 0 0 1 .75-.75h.008a.75.75 0 1 1 0 1.5h-.008a.75.75 0 0 1-.75-.75Zm-4.166-4.167a.75.75 0 0 1 .75-.75h.008a.75.75 0 0 1 0 1.5h-.008a.75.75 0 0 1-.75-.75Zm-5.834.834a.75.75 0 0 1 .75-.75h.009a.75.75 0 1 1 0 1.5h-.009a.75.75 0 0 1-.75-.75Zm9.167 9.166a.75.75 0 0 1 .75-.75h.008a.75.75 0 1 1 0 1.5H15a.75.75 0 0 1-.75-.75ZM4.917 8.364a1.494 1.494 0 0 0-.38.662L1.792 16.75a.75.75 0 0 0 .957.958l7.885-2.793a.751.751 0 0 0 .157-.077c.122-.064.238-.148.344-.254.332-.332.445-.764.447-1.16.003-.39-.1-.798-.255-1.188-.314-.781-.9-1.632-1.666-2.397-.765-.765-1.616-1.352-2.398-1.666-.39-.156-.797-.258-1.188-.255-.395.002-.827.115-1.16.447Zm2.955 5.938a8.515 8.515 0 0 1-1.481-1.193 8.52 8.52 0 0 1-1.19-1.475l-1.467 4.133 4.138-1.465Zm2.2-.783a.394.394 0 0 1-.105.011c-.135.001-.343-.037-.62-.148-.553-.221-1.239-.676-1.896-1.333-.552-.553-.966-1.13-1.215-1.633-.25-.504-.283-.825-.26-.96l.01-.029a.413.413 0 0 1 .1-.01c.135-.001.343.037.62.148.553.221 1.238.677 1.895 1.334s1.113 1.342 1.334 1.894c.111.278.15.486.148.621a.394.394 0 0 1-.011.105ZM8.414 2.996a.75.75 0 0 1 1.006.335c.537 1.074.39 2.13.145 2.865a4.997 4.997 0 0 1-.607 1.219l-.016.023-.005.007-.002.003-.001.001S8.933 7.45 8.333 7l.6.45a.75.75 0 0 1-1.202-.897l.004-.006.026-.038a3.498 3.498 0 0 0 .381-.788c.172-.515.233-1.126-.063-1.719a.75.75 0 0 1 .335-1.006Zm4.671 8.64a.074.074 0 0 1-.002.003l.001-.002.001-.001Zm.004-.004-.006.007a.75.75 0 0 1-1.169-.94l.586.468-.586-.469.001-.001.002-.001.002-.004.008-.01a1.912 1.912 0 0 1 .099-.112 4.608 4.608 0 0 1 1.284-.96c.9-.45 2.194-.696 3.692.053a.75.75 0 0 1-.67 1.341c-1.003-.5-1.793-.33-2.35-.052a3.11 3.11 0 0 0-.893.68Z"
        clip-rule="evenodd"
      />
</svg>