<svg xmlns="http://www.w3.org/2000/svg" viewBox="0 0 20 20">
<path
        fill-rule="evenodd"
        d="M5 4.083A.917.917 0 0 0 4.083 5v10a.917.917 0 0 0 .917.917h10a.917.917 0 0 0 .917-.917V5A.917.917 0 0 0 15 4.083H5Zm-1.709-.792A2.417 2.417 0 0 1 5 2.583h10A2.417 2.417 0 0 1 17.417 5v10A2.416 2.416 0 0 1 15 17.417H5A2.416 2.416 0 0 1 2.583 15V5c0-.64.255-1.256.708-1.709Z"
        clip-rule="evenodd"
      />
      <path
        fill-rule="evenodd"
        d="M8.986 6.42a1.434 1.434 0 1 1 2.028 2.028A1.434 1.434 0 0 1 8.986 6.42ZM6.42 8.986a1.434 1.434 0 1 1 2.028 2.028A1.434 1.434 0 0 1 6.42 8.986Zm5.132 0a1.434 1.434 0 1 1 2.028 2.028 1.434 1.434 0 0 1-2.028-2.028Zm-2.566 2.566a1.434 1.434 0 1 1 2.028 2.027 1.434 1.434 0 0 1-2.028-2.027Z"
        clip-rule="evenodd"
      />
</svg>