<svg xmlns="http://www.w3.org/2000/svg" viewBox="0 0 20 20">
<path
        fill-rule="evenodd"
        d="M4.166 4.083a.083.083 0 0 0-.083.084v1.75h1.833V4.083h-1.75Zm0-1.5a1.583 1.583 0 0 0-1.583 1.584v11.666a1.583 1.583 0 0 0 1.583 1.584H7.5a.75.75 0 1 0 0-1.5H4.166a.083.083 0 0 1-.083-.084V7.417h11.833v2.166a.75.75 0 0 0 1.5 0V4.167a1.583 1.583 0 0 0-1.583-1.584H4.166Zm3.25 1.5v1.834h8.5v-1.75a.083.083 0 0 0-.083-.084H7.416Z"
        clip-rule="evenodd"
      />
      <path
        fill-rule="evenodd"
        d="M10.825 14.083c.898 1.194 2.1 1.75 3.258 1.75 1.159 0 2.36-.556 3.258-1.75-.898-1.193-2.1-1.75-3.258-1.75-1.159 0-2.36.557-3.258 1.75Zm3.258-3.25c1.845 0 3.637.987 4.803 2.853a.75.75 0 0 1 0 .795c-1.166 1.865-2.958 2.852-4.803 2.852-1.845 0-3.637-.987-4.803-2.852a.75.75 0 0 1 0-.795c1.166-1.866 2.959-2.853 4.803-2.853Z"
        clip-rule="evenodd"
      />
      <path
        fill-rule="evenodd"
        d="M12.908 14.083c0-.644.523-1.166 1.167-1.166h.008a1.167 1.167 0 0 1 0 2.333h-.008a1.167 1.167 0 0 1-1.167-1.167Z"
        clip-rule="evenodd"
      />
</svg>