<svg xmlns="http://www.w3.org/2000/svg" viewBox="0 0 20 20">
<path
        fill-rule="evenodd"
        d="M7.018 4.093a3.417 3.417 0 0 0-2.745 5.846l.005.005L10 15.61l1.03-1.02-1.144-1.144a.75.75 0 0 1 1.06-1.06l1.15 1.148 1.027-1.017-1.153-1.154a.75.75 0 1 1 1.06-1.061l1.16 1.159 1.027-1.018-1.373-1.372a1.902 1.902 0 0 0-2.689 0l-.833.833a2.224 2.224 0 0 1-3.144 0l-.453-.452a1.584 1.584 0 0 1 0-2.24l2.241-2.24a3.416 3.416 0 0 0-1.948-.88Zm3.457 1.493L7.786 8.274m0 .118a.084.084 0 0 1 0-.118m0 .118.452.453a.724.724 0 0 0 1.023 0l.833-.834a3.401 3.401 0 0 1 4.811 0l1.317 1.318a3.405 3.405 0 0 0 .524-1.917A3.416 3.416 0 0 0 10.6 5.456a.75.75 0 0 1-.125.13m6.248 5.478a.743.743 0 0 0 .053-.047 4.916 4.916 0 0 0-6.773-7.128 4.917 4.917 0 0 0-6.778 7.123L9.472 17.2a.75.75 0 0 0 1.056 0l6.195-6.136Z"
        clip-rule="evenodd"
      />
</svg>