<svg xmlns="http://www.w3.org/2000/svg" viewBox="0 0 20 20">
<path
        fill-rule="evenodd"
        d="M5.023 2.53c1.31-.491 3.07-.78 4.977-.78 1.907 0 3.667.289 4.977.78.653.245 1.233.554 1.663.936.43.38.777.897.777 1.534v5a.75.75 0 0 1-1.5 0V7.04a6.791 6.791 0 0 1-.94.43c-1.31.491-3.07.78-4.977.78-1.907 0-3.667-.289-4.977-.78a6.788 6.788 0 0 1-.94-.43V10c0 .054.027.195.272.412.244.216.64.446 1.194.654 1.103.413 2.676.684 4.45.684.895 0 1.743-.069 2.507-.191a.75.75 0 0 1 .238 1.48c-.848.136-1.775.211-2.744.211-1.907 0-3.667-.289-4.977-.78a6.793 6.793 0 0 1-.94-.43V15c0 .054.027.195.272.412.244.216.64.446 1.194.654 1.103.413 2.676.684 4.45.684.125 0 .25-.002.375-.004a.75.75 0 1 1 .029 1.5c-.132.002-.266.004-.403.004-1.907 0-3.667-.289-4.977-.78-.653-.245-1.233-.554-1.663-.936-.43-.38-.777-.897-.777-1.534V5c0-.637.347-1.154.777-1.534.43-.382 1.01-.691 1.663-.936ZM4.083 5c0 .054.027.195.272.412.244.217.64.446 1.194.654 1.103.413 2.676.684 4.45.684 1.776 0 3.349-.271 4.451-.684.555-.208.95-.437 1.195-.654.245-.217.272-.358.272-.412 0-.054-.027-.195-.272-.412-.244-.217-.64-.446-1.194-.654-1.103-.413-2.676-.684-4.451-.684-1.775 0-3.348.271-4.45.684-.555.208-.951.437-1.195.654-.245.217-.272.358-.272.412Zm11.22 7.803a.75.75 0 0 1 1.06 0l2.5 2.5a.75.75 0 0 1 0 1.06l-2.5 2.5a.75.75 0 0 1-1.06-1.06l1.22-1.22h-3.19a.75.75 0 1 1 0-1.5h3.19l-1.22-1.22a.75.75 0 0 1 0-1.06Z"
        clip-rule="evenodd"
      />
</svg>