<svg xmlns="http://www.w3.org/2000/svg" viewBox="0 0 20 20">
<path
        fill-rule="evenodd"
        d="M10 3.25a.917.917 0 0 0-.917.917.75.75 0 0 1-.43.678 5.083 5.083 0 0 0-2.903 4.34v2.482a.75.75 0 0 1-.006.09 4.084 4.084 0 0 1-.582 1.66h5.254a.75.75 0 0 1 0 1.5H8.25V15a1.75 1.75 0 0 0 2.047 1.725.75.75 0 1 1 .255 1.478A3.25 3.25 0 0 1 6.75 15v-.083H3.333a.75.75 0 0 1-.37-1.403 2.583 2.583 0 0 0 1.287-1.895V9.167a6.583 6.583 0 0 1 3.382-5.483 2.417 2.417 0 0 1 4.736 0 6.583 6.583 0 0 1 3.382 5.483V10a.75.75 0 1 1-1.5 0v-.815a5.083 5.083 0 0 0-2.904-4.34.75.75 0 0 1-.43-.678A.917.917 0 0 0 10 3.25Zm5.833 9.333a.75.75 0 0 1 .75.75v1.75h1.75a.75.75 0 0 1 0 1.5h-1.75v1.75a.75.75 0 0 1-1.5 0v-1.75h-1.75a.75.75 0 0 1 0-1.5h1.75v-1.75a.75.75 0 0 1 .75-.75Z"
        clip-rule="evenodd"
      />
</svg>