<svg xmlns="http://www.w3.org/2000/svg" viewBox="0 0 20 20">
<path
        fill-rule="evenodd"
        d="M1.25 5A.75.75 0 0 1 2 4.25c4.838 0 8.018 1.296 10.377 3.304 2.138 1.82 3.556 4.196 4.924 6.488l.342.572a.75.75 0 1 1-1.286.772c-.108-.18-.215-.358-.32-.536-1.396-2.334-2.691-4.502-4.632-6.154C9.357 6.954 6.537 5.75 2 5.75A.75.75 0 0 1 1.25 5Z"
        clip-rule="evenodd"
      />
      <path
        fill-rule="evenodd"
        d="M1.25 15c0 .414.336.75.75.75 4.838 0 8.018-1.296 10.377-3.304 2.138-1.82 3.556-4.196 4.924-6.488l.342-.572a.75.75 0 1 0-1.286-.772c-.108.18-.215.358-.32.536-1.396 2.334-2.691 4.502-4.632 6.154C9.357 13.046 6.537 14.25 2 14.25a.75.75 0 0 0-.75.75Z"
        clip-rule="evenodd"
      />
</svg>