<svg xmlns="http://www.w3.org/2000/svg" viewBox="0 0 20 20">
<path
        fill-rule="evenodd"
        d="M13.636 1.97a.75.75 0 0 1 1.06 0l3.334 3.333a.75.75 0 0 1 0 1.06L6.364 18.03a.75.75 0 0 1-1.061 0L1.97 14.697a.75.75 0 0 1 0-1.06L13.636 1.97Zm-1.553 3.674 1.25 1.25 1.06-1.06-1.25-1.25 1.023-1.023 2.273 2.272L5.833 16.44l-2.272-2.273 1.022-1.022 1.25 1.25 1.06-1.06-1.25-1.25 1.44-1.44 1.25 1.25 1.06-1.06-1.25-1.25 1.44-1.44 1.25 1.25 1.06-1.06-1.25-1.25 1.44-1.44Z"
        clip-rule="evenodd"
      />
</svg>