<svg xmlns="http://www.w3.org/2000/svg" viewBox="0 0 20 20">
<path
        fill-rule="evenodd"
        d="M10 1.75a.75.75 0 0 1 .75.75v.833a.75.75 0 0 1-1.5 0V2.5a.75.75 0 0 1 .75-.75ZM4.136 4.136a.75.75 0 0 1 1.061 0l.583.584a.75.75 0 0 1-1.06 1.06l-.584-.583a.75.75 0 0 1 0-1.06Zm11.728 0a.75.75 0 0 1 0 1.061l-.584.583a.75.75 0 1 1-1.06-1.06l.583-.584a.75.75 0 0 1 1.06 0ZM7.113 7.113a4.083 4.083 0 1 1 5.774 5.774 4.083 4.083 0 0 1-5.774-5.774ZM10 7.417a2.583 2.583 0 1 0 0 5.166 2.583 2.583 0 0 0 0-5.166ZM1.75 10a.75.75 0 0 1 .75-.75h.833a.75.75 0 1 1 0 1.5H2.5a.75.75 0 0 1-.75-.75Zm14.167 0a.75.75 0 0 1 .75-.75h.833a.75.75 0 0 1 0 1.5h-.833a.75.75 0 0 1-.75-.75Zm-1.697 4.22a.75.75 0 0 1 1.06 0l.584.583a.75.75 0 0 1-1.061 1.06l-.583-.583a.75.75 0 0 1 0-1.06Zm-8.44 0a.75.75 0 0 1 0 1.06l-.583.584a.75.75 0 1 1-1.06-1.061l.583-.583a.75.75 0 0 1 1.06 0ZM10 15.917a.75.75 0 0 1 .75.75v.833a.75.75 0 0 1-1.5 0v-.833a.75.75 0 0 1 .75-.75Z"
        clip-rule="evenodd"
      />
</svg>