<svg xmlns="http://www.w3.org/2000/svg" viewBox="0 0 20 20">
<path
        fill-rule="evenodd"
        d="M9.757 1.29a.75.75 0 0 1 .486 0l7 2.4a.75.75 0 0 1 .507.71V10c0 2.764-1.997 4.958-3.781 6.386a19.74 19.74 0 0 1-3.63 2.284l-.019.008-.005.003h-.002s-.001.001-.313-.681l-.312.682-.003-.001-.005-.003-.018-.008a6.995 6.995 0 0 1-.301-.148 19.738 19.738 0 0 1-3.33-2.137C4.247 14.959 2.25 12.764 2.25 10V4.4a.75.75 0 0 1 .507-.71l7-2.4ZM10 18l-.312.682c.198.09.426.09.624 0L10 18Zm0-.835a18.238 18.238 0 0 0 3.031-1.95c1.716-1.373 3.219-3.179 3.219-5.215V4.936L10 2.793 3.75 4.936V10c0 2.037 1.503 3.842 3.219 5.214A18.239 18.239 0 0 0 10 17.164Z"
        clip-rule="evenodd"
      />
      <path
        d="M10 5.917a.75.75 0 0 1 .75.75V10.5a.75.75 0 0 1-1.5 0V6.667a.75.75 0 0 1 .75-.75Zm-.875 7.417c0-.484.392-.875.875-.875h.008a.875.875 0 1 1 0 1.75H10a.875.875 0 0 1-.875-.875Z"
      />
</svg>