<svg xmlns="http://www.w3.org/2000/svg" viewBox="0 0 20 20">
<path
        fill-rule="evenodd"
        d="M4.125 3.291a2.417 2.417 0 1 1 2.53 3.982A2.583 2.583 0 0 0 9.167 9.25h2.702a2.416 2.416 0 1 1 0 1.5H9.167a4.083 4.083 0 0 1-2.584-.921v2.874a2.417 2.417 0 1 1-1.5 0V7.297a2.416 2.416 0 0 1-.958-4.006Zm1.708.792a.917.917 0 1 0 0 1.834.917.917 0 0 0 0-1.834Zm8.334 5a.916.916 0 1 0 0 1.833.916.916 0 0 0 0-1.833Zm-8.334 5a.917.917 0 1 0 0 1.834.917.917 0 0 0 0-1.834Z"
        clip-rule="evenodd"
      />
</svg>