<svg xmlns="http://www.w3.org/2000/svg" viewBox="0 0 20 20">
<path
        fill-rule="evenodd"
        d="M4.958 2.458a2.417 2.417 0 0 1 3.45 3.385L9.59 7.618a2.416 2.416 0 0 1 .818 0l1.183-1.775a2.417 2.417 0 1 1 1.333.705L11.74 8.324c.255.265.444.582.556.926h2.072a2.416 2.416 0 1 1 0 1.5h-2.072a2.416 2.416 0 0 1-.556.926l1.184 1.775a2.417 2.417 0 1 1-1.332.706l-1.184-1.775a2.407 2.407 0 0 1-.818 0l-1.183 1.775a2.417 2.417 0 1 1-1.333-.706l1.184-1.775a2.417 2.417 0 0 1-.556-.926H5.63a2.417 2.417 0 1 1 0-1.5h2.072c.112-.344.301-.661.556-.926L7.075 6.548a2.417 2.417 0 0 1-2.117-4.09Zm1.709.792a.917.917 0 1 0 0 1.833.917.917 0 0 0 0-1.833Zm6.666 0a.917.917 0 1 0 0 1.833.917.917 0 0 0 0-1.833Zm-10 5.833a.917.917 0 1 0 0 1.834.917.917 0 0 0 0-1.834Zm13.334 0a.916.916 0 1 0 0 1.833.916.916 0 0 0 0-1.833Zm-10 5.833a.917.917 0 1 0 0 1.834.917.917 0 0 0 0-1.834Zm6.666 0a.917.917 0 1 0 0 1.834.917.917 0 0 0 0-1.834Z"
        clip-rule="evenodd"
      />
</svg>