<svg xmlns="http://www.w3.org/2000/svg" viewBox="0 0 20 20">
<path
        fill-rule="evenodd"
        d="M16.903 2.87a.75.75 0 1 0-1.306-.74l-.022.04-.067.116-.255.435c-.218.368-.527.878-.886 1.444-.613.964-1.354 2.058-2.042 2.892-.681-.298-1.46-.448-2.07-.53a13.23 13.23 0 0 0-1.378-.108l-.126-.002H8.75a.75.75 0 0 0-.386 1.393l.12.072c-.527.45-1.234.948-2.062 1.42-1.232.704-2.674 1.32-4.085 1.633a.75.75 0 0 0-.53 1.018 10.07 10.07 0 0 0 1.622 2.697 8.632 8.632 0 0 0 3.282 2.397c1.38.575 2.172.703 2.99.703.756 0 1.437-.438 1.976-.934.56-.515 1.086-1.203 1.537-1.93.642-1.033 1.19-2.237 1.484-3.283a.75.75 0 0 0 1.026-.884l-.013-.041a3.57 3.57 0 0 0-.121-.32 5.298 5.298 0 0 0-.432-.79 7.437 7.437 0 0 0-1.563-1.695c.72-.893 1.454-1.985 2.038-2.904a57.017 57.017 0 0 0 1.244-2.055l.026-.044ZM9.828 8.688c-.666.636-1.602 1.312-2.662 1.917a17.37 17.37 0 0 1-3.607 1.56c.231.442.482.834.747 1.182a7.14 7.14 0 0 0 1.025-.35c.623-.266 1.234-.623 1.639-1.027a.75.75 0 1 1 1.06 1.06c-.595.596-1.4 1.044-2.111 1.346a9.302 9.302 0 0 1-.46.182c.299.248.603.46.908.641l.057-.015c.212-.06.504-.147.823-.263.67-.245 1.346-.574 1.723-.951a.75.75 0 1 1 1.06 1.06c-.444.444-1.05.785-1.616 1.037.541.154.916.183 1.288.183.185 0 .511-.125.96-.537.427-.394.87-.961 1.278-1.619.703-1.132 1.225-2.4 1.412-3.292L9.828 8.688Z"
        clip-rule="evenodd"
      />
</svg>