<svg xmlns="http://www.w3.org/2000/svg" viewBox="0 0 20 20">
<path
        fill-rule="evenodd"
        d="M5 4.083A.917.917 0 0 0 4.083 5v5.083h1.75a.75.75 0 0 1 .53.22l2.28 2.28h2.713l2.28-2.28a.75.75 0 0 1 .53-.22h1.75V5A.917.917 0 0 0 15 4.083H5ZM17.416 5A2.417 2.417 0 0 0 15 2.583H5A2.417 2.417 0 0 0 2.583 5v10A2.417 2.417 0 0 0 5 17.417h10A2.417 2.417 0 0 0 17.416 15V5Zm-1.5 6.583h-1.439l-2.28 2.28a.75.75 0 0 1-.53.22H8.332a.75.75 0 0 1-.53-.22l-2.28-2.28h-1.44V15a.917.917 0 0 0 .917.917h10a.917.917 0 0 0 .916-.917v-3.417Z"
        clip-rule="evenodd"
      />
</svg>