<svg xmlns="http://www.w3.org/2000/svg" viewBox="0 0 20 20">
<path
        fill-rule="evenodd"
        d="M10 1.75a.75.75 0 0 1 .651.378l3.334 5.833a.75.75 0 0 1-.652 1.122H6.667a.75.75 0 0 1-.652-1.122L9.35 2.128A.75.75 0 0 1 10 1.75ZM7.96 7.583h4.08L10 4.012 7.96 7.583Zm-3.793 4.834a.083.083 0 0 0-.084.083v3.333a.084.084 0 0 0 .084.084H7.5a.083.083 0 0 0 .083-.084V12.5a.083.083 0 0 0-.083-.083H4.167Zm-1.12-1.037c.297-.296.7-.463 1.12-.463H7.5A1.583 1.583 0 0 1 9.083 12.5v3.333A1.583 1.583 0 0 1 7.5 17.417H4.167a1.583 1.583 0 0 1-1.584-1.584V12.5c0-.42.167-.823.464-1.12Zm8.822.489a3.25 3.25 0 1 1 4.596 4.596 3.25 3.25 0 0 1-4.596-4.596Z"
        clip-rule="evenodd"
      />
</svg>