<svg xmlns="http://www.w3.org/2000/svg" viewBox="0 0 20 20">
<path
        fill-rule="evenodd"
        d="M4.917 4.5v5.729a4.916 4.916 0 0 1 5.608.902 3.417 3.417 0 0 0 4.558.202V5.605a4.916 4.916 0 0 1-5.608-.903A3.417 3.417 0 0 0 4.917 4.5Zm0 7.5a3.417 3.417 0 0 1 4.558.202 4.916 4.916 0 0 0 6.883 0 .75.75 0 0 0 .225-.535v-7.5a.75.75 0 0 0-1.275-.536 3.417 3.417 0 0 1-4.783 0 4.917 4.917 0 0 0-6.883 0 .75.75 0 0 0-.225.536V17.5a.75.75 0 0 0 1.5 0V12Z"
        clip-rule="evenodd"
      />
</svg>