<svg xmlns="http://www.w3.org/2000/svg" viewBox="0 0 20 20">
<path
        fill-rule="evenodd"
        d="M9.25 2.499a.75.75 0 0 1 .751-.749 8.25 8.25 0 0 1 3.154.632.75.75 0 0 1-.576 1.385 6.75 6.75 0 0 0-2.58-.517.75.75 0 0 1-.749-.751Zm-1.424.29a.75.75 0 0 1-.406.979A6.75 6.75 0 0 0 5.23 5.23a.75.75 0 0 1-1.06-1.06 8.25 8.25 0 0 1 2.676-1.788.75.75 0 0 1 .98.406Zm6.944 1.38a.75.75 0 0 1 1.06 0 8.251 8.251 0 0 1 1.788 2.677.75.75 0 1 1-1.386.574 6.75 6.75 0 0 0-1.462-2.19.75.75 0 0 1 0-1.06ZM3.363 6.441a.75.75 0 0 1 .405.98 6.75 6.75 0 0 0-.518 2.58.75.75 0 1 1-1.5-.002 8.25 8.25 0 0 1 .632-3.154.75.75 0 0 1 .981-.404ZM17.501 9.25a.75.75 0 0 1 .749.751 8.249 8.249 0 0 1-.633 3.154.75.75 0 0 1-1.385-.576c.34-.818.516-1.695.518-2.58a.75.75 0 0 1 .751-.749ZM2.789 12.174a.75.75 0 0 1 .98.406 6.75 6.75 0 0 0 1.462 2.19.75.75 0 1 1-1.061 1.06 8.25 8.25 0 0 1-1.788-2.677.75.75 0 0 1 .407-.98ZM15.83 14.77a.75.75 0 0 1 0 1.06 8.25 8.25 0 0 1-2.677 1.788.75.75 0 0 1-.574-1.386 6.75 6.75 0 0 0 2.19-1.462.75.75 0 0 1 1.06 0Zm-9.39 1.867a.75.75 0 0 1 .98-.404 6.75 6.75 0 0 0 2.58.517.75.75 0 1 1-.003 1.5 8.249 8.249 0 0 1-3.153-.633.75.75 0 0 1-.405-.98Z"
        clip-rule="evenodd"
      />
</svg>