<svg xmlns="http://www.w3.org/2000/svg" viewBox="0 0 20 20">
<path
        fill-rule="evenodd"
        d="M5 4.083A.917.917 0 0 0 4.083 5v1.667a.75.75 0 1 1-1.5 0V5A2.417 2.417 0 0 1 5 2.583h1.667a.75.75 0 0 1 0 1.5H5Zm7.583-.75a.75.75 0 0 1 .75-.75H15A2.417 2.417 0 0 1 17.417 5v1.667a.75.75 0 0 1-1.5 0V5A.917.917 0 0 0 15 4.083h-1.667a.75.75 0 0 1-.75-.75ZM6.768 10c1.216 1.563 2.3 2.167 3.232 2.167.933 0 2.016-.604 3.232-2.167-1.216-1.563-2.3-2.167-3.232-2.167-.933 0-2.016.604-3.232 2.167ZM10 6.333c1.763 0 3.347 1.23 4.777 3.231a.75.75 0 0 1 0 .872c-1.43 2.002-3.014 3.23-4.777 3.23-1.763 0-3.347-1.228-4.777-3.23a.75.75 0 0 1 0-.872c1.43-2.002 3.014-3.23 4.777-3.23Zm-6.667 6.25a.75.75 0 0 1 .75.75V15a.917.917 0 0 0 .917.917h1.667a.75.75 0 0 1 0 1.5H5A2.416 2.416 0 0 1 2.583 15v-1.667a.75.75 0 0 1 .75-.75Zm13.334 0a.75.75 0 0 1 .75.75V15A2.416 2.416 0 0 1 15 17.417h-1.667a.75.75 0 0 1 0-1.5H15a.917.917 0 0 0 .917-.917v-1.667a.75.75 0 0 1 .75-.75Z"
        clip-rule="evenodd"
      />
      <path
        d="M10.707 9.207a1 1 0 0 0-1.414 0l-.086.086a1 1 0 0 0 0 1.414l.086.086a1 1 0 0 0 1.414 0l.086-.086a1 1 0 0 0 0-1.414l-.086-.086Z"
      />
</svg>