<svg xmlns="http://www.w3.org/2000/svg" viewBox="0 0 20 20">
<path
        fill-rule="evenodd"
        d="M6.667 5.71a4.25 4.25 0 1 0 0 8.5H10a.75.75 0 0 1 0 1.5H6.667a5.75 5.75 0 0 1 0-11.5h6.666a5.75 5.75 0 0 1 5.75 5.75.75.75 0 1 1-1.5 0 4.25 4.25 0 0 0-4.25-4.25H6.667Zm4.957 2.542a2.417 2.417 0 1 1 3.418 3.418 2.417 2.417 0 0 1-3.418-3.418Zm4.625 4.418a.75.75 0 0 1 .208 1.04l-.889 1.334H17.5a.75.75 0 0 1 .624 1.166l-1.667 2.5a.75.75 0 0 1-1.248-.832l.89-1.334h-1.932a.75.75 0 0 1-.624-1.166l1.666-2.5a.75.75 0 0 1 1.04-.208Z"
        clip-rule="evenodd"
      />
</svg>