<svg xmlns="http://www.w3.org/2000/svg" viewBox="0 0 20 20">
<path
        fill-rule="evenodd"
        d="M9.583 3.25A1.333 1.333 0 0 0 8.25 4.583V10a.75.75 0 0 1-1.5 0V4.583a2.833 2.833 0 0 1 5.667 0V5a.75.75 0 0 1-1.5 0v-.417A1.333 1.333 0 0 0 9.583 3.25ZM9.25 7.5a.75.75 0 0 1 .75-.75h5.417a2.833 2.833 0 1 1 0 5.667H15a.75.75 0 0 1 0-1.5h.417a1.333 1.333 0 0 0 0-2.667H10a.75.75 0 0 1-.75-.75ZM4.583 9.083a1.333 1.333 0 0 0 0 2.667H10a.75.75 0 0 1 0 1.5H4.583a2.833 2.833 0 1 1 0-5.667H5a.75.75 0 0 1 0 1.5h-.417Zm7.917.167a.75.75 0 0 1 .75.75v5.417a2.833 2.833 0 1 1-5.667 0V15a.75.75 0 0 1 1.5 0v.417a1.333 1.333 0 0 0 2.667 0V10a.75.75 0 0 1 .75-.75Z"
        clip-rule="evenodd"
      />
</svg>