<svg xmlns="http://www.w3.org/2000/svg" viewBox="0 0 20 20">
<path
        fill-rule="evenodd"
        d="M5 4.917a1.75 1.75 0 0 0-1.75 1.75v.916h13.5v-.916A1.75 1.75 0 0 0 15 4.917H5Zm13.25 1.75A3.25 3.25 0 0 0 15 3.417H5a3.25 3.25 0 0 0-3.25 3.25v6.666A3.25 3.25 0 0 0 5 16.583h10a3.25 3.25 0 0 0 3.25-3.25V6.667Zm-1.5 2.416H3.25v4.25A1.75 1.75 0 0 0 5 15.083h10a1.75 1.75 0 0 0 1.75-1.75v-4.25ZM5.084 12.5a.75.75 0 0 1 .75-.75h.008a.75.75 0 0 1 0 1.5h-.008a.75.75 0 0 1-.75-.75Zm3.333 0a.75.75 0 0 1 .75-.75h1.667a.75.75 0 0 1 0 1.5H9.167a.75.75 0 0 1-.75-.75Z"
        clip-rule="evenodd"
      />
</svg>