<svg xmlns="http://www.w3.org/2000/svg" viewBox="0 0 20 20">
<path
        fill-rule="evenodd"
        d="M4.917 4.5v5.729a4.917 4.917 0 0 1 5.608.902c.28.275.607.5.964.665a.75.75 0 1 1-.627 1.363 4.91 4.91 0 0 1-1.387-.957A3.416 3.416 0 0 0 4.917 12v5.5a.75.75 0 0 1-1.5 0V4.167a.75.75 0 0 1 .225-.536 4.917 4.917 0 0 1 6.883 0 3.417 3.417 0 0 0 4.784 0 .75.75 0 0 1 1.275.536v6.666a.75.75 0 0 1-1.5 0V5.605a4.916 4.916 0 0 1-5.609-.903A3.417 3.417 0 0 0 4.917 4.5Zm9.78 9.136a.75.75 0 0 1 0 1.061l-1.136 1.136 1.136 1.137a.75.75 0 1 1-1.06 1.06l-1.667-1.666a.75.75 0 0 1 0-1.061l1.667-1.667a.75.75 0 0 1 1.06 0Zm1.44 0a.75.75 0 0 1 1.06 0l1.667 1.667a.75.75 0 0 1 0 1.06l-1.667 1.667a.75.75 0 1 1-1.06-1.06l1.136-1.137-1.136-1.136a.75.75 0 0 1 0-1.06Z"
        clip-rule="evenodd"
      />
</svg>