<svg xmlns="http://www.w3.org/2000/svg" viewBox="0 0 20 20">
<path
        fill-rule="evenodd"
        d="M10.323 4.072c-1.658-.067-3.277.404-4.556 1.312-1.277.906-2.12 2.178-2.402 3.567-.28 1.386.012 2.822.84 4.046a.75.75 0 0 1 .09.657l-.669 2.006 2.635-.56a.75.75 0 0 1 .483.059 7.58 7.58 0 0 0 4.753.595c1.618-.32 3.03-1.149 3.986-2.308.954-1.157 1.391-2.567 1.254-3.969-.137-1.402-.845-2.732-2.02-3.734-1.176-1.004-2.736-1.604-4.394-1.67Zm-5.424.088c1.562-1.108 3.511-1.667 5.485-1.587 1.974.08 3.86.795 5.307 2.029 1.449 1.235 2.36 2.913 2.539 4.73.178 1.817-.395 3.618-1.59 5.068-1.192 1.447-2.92 2.443-4.851 2.825a9.097 9.097 0 0 1-5.462-.606l-3.67.781a.75.75 0 0 1-.869-.97l.97-2.911c-.89-1.477-1.201-3.193-.863-4.866C2.258 6.862 3.335 5.27 4.9 4.16Z"
        clip-rule="evenodd"
      />
</svg>