<svg xmlns="http://www.w3.org/2000/svg" viewBox="0 0 20 20">
<path d="M12.5 6.75a.75.75 0 0 0 0 1.5h.008a.75.75 0 0 0 0-1.5H12.5Z" />
      <path
        fill-rule="evenodd"
        d="M12.1 1.75a3.147 3.147 0 0 0-2.225.922L7.672 4.875a3.147 3.147 0 0 0-.262 4.154l-1.274 1.274a.75.75 0 0 0-.22.53v.917H5a.75.75 0 0 0-.75.75v.916h-.917a.75.75 0 0 0-.53.22l-.345.345a.806.806 0 0 0-.023.024l-.1.108a2.417 2.417 0 0 0-.586 1.576v.977l.002.045.006.098.004.043a1.583 1.583 0 0 0 1.572 1.398h1.011l.146-.008c.01 0 .021 0 .031-.002a2.416 2.416 0 0 0 1.498-.698l4.952-4.952a3.147 3.147 0 0 0 4.154-.262l.098-.098 2.105-2.105a3.148 3.148 0 0 0 0-4.451l-3.002-3.002A3.148 3.148 0 0 0 12.1 1.75Zm-.63 1.625a1.647 1.647 0 0 1 1.795.358l3.002 3.001a1.648 1.648 0 0 1 0 2.33l-2.202 2.203a1.648 1.648 0 0 1-2.33 0l-.173-.172-.078-.079a.75.75 0 0 0-1.061 0l-5.465 5.465a.917.917 0 0 1-.554.264l-.111.005h-.96a.083.083 0 0 1-.08-.064l-.003-.042v-.954c0-.21.073-.415.205-.578l.075-.082.114-.114H5a.75.75 0 0 0 .75-.75v-.916h.917a.75.75 0 0 0 .75-.75v-1.356l1.567-1.567a.75.75 0 0 0 0-1.06l-.251-.252a1.648 1.648 0 0 1 0-2.33l2.202-2.202c.153-.153.335-.275.535-.358Z"
        clip-rule="evenodd"
      />
</svg>