<svg xmlns="http://www.w3.org/2000/svg" viewBox="0 0 20 20">
<path
        fill-rule="evenodd"
        d="M10 2.583a.75.75 0 0 1 .75.75v1.75H15a.75.75 0 0 1 .494.186l3.334 2.917a.75.75 0 0 1 0 1.128l-3.334 2.917a.75.75 0 0 1-.493.186h-4.25v4.25a.75.75 0 1 1-1.5 0v-4.25H4.166A2.417 2.417 0 0 1 1.75 10V7.5a2.417 2.417 0 0 1 2.417-2.417H9.25v-1.75a.75.75 0 0 1 .75-.75Zm-5.833 4a.917.917 0 0 0-.917.917V10a.917.917 0 0 0 .917.917H14.72l2.476-2.167-2.476-2.167H4.167Z"
        clip-rule="evenodd"
      />
</svg>