<svg xmlns="http://www.w3.org/2000/svg" viewBox="0 0 20 20">
<path
        fill-rule="evenodd"
        d="M4.167 13.417a.75.75 0 0 1 .75.75v.453l.581-.29a.75.75 0 1 1 .67 1.34l-.324.163.325.163a.75.75 0 0 1-.67 1.341l-.582-.29v.453a.75.75 0 0 1-1.5 0v-.453l-.581.29a.75.75 0 0 1-.671-1.341l.325-.163-.325-.162a.75.75 0 1 1 .67-1.342l.582.29v-.452a.75.75 0 0 1 .75-.75Zm5.833 0a.75.75 0 0 1 .75.75v.453l.581-.29a.75.75 0 1 1 .671 1.34l-.325.163.325.163a.75.75 0 0 1-.67 1.341l-.582-.29v.453a.75.75 0 0 1-1.5 0v-.453l-.581.29a.75.75 0 1 1-.67-1.341l.324-.163-.325-.162a.75.75 0 1 1 .67-1.342l.582.29v-.452a.75.75 0 0 1 .75-.75Zm5.834 0a.75.75 0 0 1 .75.75v.453l.58-.29a.75.75 0 1 1 .672 1.34l-.325.163.325.163a.75.75 0 0 1-.671 1.341l-.581-.29v.453a.75.75 0 0 1-1.5 0v-.453l-.582.29a.75.75 0 0 1-.67-1.341l.324-.163-.325-.162a.75.75 0 1 1 .671-1.342l.582.29v-.452a.75.75 0 0 1 .75-.75ZM7.702 2.702a3.25 3.25 0 1 1 4.596 4.596 3.25 3.25 0 0 1-4.596-4.596ZM10 3.25a1.75 1.75 0 1 0 0 3.5 1.75 1.75 0 0 0 0-3.5Zm-1.943 7.5a3.139 3.139 0 0 0-2.467 1.198.75.75 0 0 1-1.179-.927 4.639 4.639 0 0 1 3.646-1.77h3.889a4.639 4.639 0 0 1 3.643 1.767.75.75 0 1 1-1.178.928 3.139 3.139 0 0 0-2.466-1.196H8.058Z"
        clip-rule="evenodd"
      />
</svg>