<svg xmlns="http://www.w3.org/2000/svg" viewBox="0 0 20 20">
<path
        fill-rule="evenodd"
        d="M10 3.25a.917.917 0 0 0-.917.917.75.75 0 0 1-.43.678 5.083 5.083 0 0 0-2.903 4.34v2.482a.75.75 0 0 1-.006.09 4.084 4.084 0 0 1-.582 1.66h9.676a4.083 4.083 0 0 1-.583-1.66.754.754 0 0 1-.005-.09V9.185a5.083 5.083 0 0 0-2.904-4.34.75.75 0 0 1-.43-.678A.917.917 0 0 0 10 3.25Zm1.75 11.667h-3.5V15a1.75 1.75 0 0 0 3.5 0v-.083Zm-5 0V15a3.25 3.25 0 1 0 6.5 0v-.083h3.416a.75.75 0 0 0 .37-1.403 2.582 2.582 0 0 1-1.286-1.896V9.167l-.001-.035a6.583 6.583 0 0 0-3.381-5.448 2.416 2.416 0 0 0-4.736 0A6.583 6.583 0 0 0 4.25 9.167v2.451a2.583 2.583 0 0 1-1.286 1.896.75.75 0 0 0 .37 1.403H6.75Z"
        clip-rule="evenodd"
      />
</svg>